<svg xmlns="http://www.w3.org/2000/svg" xmlns:xlink="http://www.w3.org/1999/xlink" width="1080" zoomAndPan="magnify" viewBox="0 0 810 239.999995" height="320" preserveAspectRatio="xMidYMid meet" version="1.0"><defs><clipPath id="a3551b92d1"><path d="M 18.671875 51 L 791.171875 51 L 791.171875 230.441406 L 18.671875 230.441406 Z M 18.671875 51 " clip-rule="nonzero"/></clipPath><clipPath id="e60d2c8a12"><path d="M 83 43 L 732 43 L 732 230.441406 L 83 230.441406 Z M 83 43 " clip-rule="nonzero"/></clipPath></defs><g clip-path="url(#a3551b92d1)"><path fill="#000000" d="M -303.328125 499.578125 L -301.117188 499.578125 L -298.554688 499.566406 L -295.730469 499.578125 L -292.71875 499.570312 C -289.351562 499.5625 -285.984375 499.570312 -282.613281 499.578125 L -275.3125 499.570312 C -269.984375 499.5625 -264.65625 499.5625 -259.328125 499.570312 C -251.351562 499.574219 -243.375 499.574219 -235.394531 499.570312 C -221.804688 499.558594 -208.210938 499.558594 -194.617188 499.566406 C -180.835938 499.570312 -167.050781 499.570312 -153.269531 499.566406 L -150.636719 499.566406 L -140.015625 499.5625 C -105.03125 499.554688 -70.046875 499.554688 -35.066406 499.558594 C 4.789062 499.5625 44.640625 499.5625 84.480469 499.558594 L 151.734375 499.554688 L 154.828125 499.554688 C 205.605469 499.566406 256.371094 499.570312 307.121094 499.570312 C 393.359375 499.585938 479.597656 499.582031 565.832031 499.5625 C 621.796875 499.570312 677.730469 499.566406 733.636719 499.558594 L 763.652344 499.5625 C 794.460938 499.578125 825.277344 499.578125 856.101562 499.558594 L 859.0625 499.558594 C 895.5 499.546875 931.9375 499.550781 968.371094 499.566406 L 970.996094 499.566406 C 984.746094 499.570312 998.492188 499.570312 1012.242188 499.5625 C 1025.742188 499.558594 1039.242188 499.558594 1052.742188 499.570312 C 1060.667969 499.574219 1068.59375 499.574219 1076.523438 499.566406 C 1081.777344 499.5625 1087.027344 499.5625 1092.28125 499.570312 C 1095.265625 499.574219 1098.25 499.574219 1101.238281 499.570312 C 1104.433594 499.5625 1107.632812 499.570312 1110.832031 499.578125 L 1113.65625 499.566406 L 1116.21875 499.578125 L 1118.429688 499.578125 C 1120.308594 499.808594 1120.308594 499.808594 1123.054688 501.636719 C 1123.398438 504.144531 1123.398438 504.144531 1123.398438 507.417969 L 1123.410156 509.246094 C 1123.417969 511.292969 1123.40625 513.335938 1123.394531 515.382812 C 1123.398438 516.863281 1123.402344 518.339844 1123.40625 519.820312 C 1123.414062 523.914062 1123.40625 528.011719 1123.398438 532.109375 C 1123.386719 536.550781 1123.394531 540.996094 1123.402344 545.4375 C 1123.40625 553.238281 1123.40625 561.039062 1123.394531 568.835938 C 1123.378906 580.433594 1123.382812 592.035156 1123.386719 603.632812 C 1123.390625 623.136719 1123.386719 642.644531 1123.375 662.152344 C 1123.359375 681.476562 1123.351562 700.800781 1123.351562 720.125 L 1123.351562 738.375 L 1123.347656 781.109375 C 1123.34375 811.296875 1123.328125 841.480469 1123.3125 871.664062 C 1123.277344 925.335938 1123.261719 979.019531 1123.273438 1032.71875 C 1123.269531 1073.9375 1123.257812 1115.160156 1123.246094 1156.382812 C 1123.246094 1168.464844 1123.242188 1180.546875 1123.238281 1192.625 C 1123.234375 1218.042969 1123.226562 1243.457031 1123.214844 1268.871094 C 1123.207031 1279.386719 1123.203125 1289.902344 1123.203125 1300.417969 C 1123.203125 1309.132812 1123.199219 1317.84375 1123.191406 1326.554688 C 1123.1875 1330.945312 1123.183594 1335.335938 1123.1875 1339.726562 C 1123.1875 1343.714844 1123.183594 1347.703125 1123.179688 1351.6875 C 1123.175781 1353.132812 1123.175781 1354.574219 1123.179688 1356.011719 C 1123.179688 1357.957031 1123.179688 1359.898438 1123.171875 1361.839844 L 1123.171875 1365.113281 C 1123.054688 1367.621094 1123.054688 1367.621094 1122.140625 1369.449219 C 1114.042969 1370.898438 1105.695312 1370.496094 1097.496094 1370.492188 L 1092.425781 1370.5 C 1087.765625 1370.507812 1083.109375 1370.511719 1078.453125 1370.507812 C 1073.386719 1370.511719 1068.320312 1370.515625 1063.257812 1370.523438 C 1054.371094 1370.535156 1045.484375 1370.542969 1036.597656 1370.546875 C 1023.375 1370.554688 1010.148438 1370.5625 996.925781 1370.578125 C 974.632812 1370.597656 952.339844 1370.617188 930.046875 1370.632812 C 907.847656 1370.648438 885.648438 1370.664062 863.449219 1370.683594 L 861.355469 1370.683594 L 795.167969 1370.742188 C 794.449219 1370.742188 793.734375 1370.742188 792.996094 1370.746094 C 758.070312 1370.773438 723.144531 1370.800781 688.21875 1370.824219 C 626.867188 1370.824219 565.476562 1370.871094 504.046875 1370.972656 C 445.195312 1371.152344 386.378906 1371.199219 327.597656 1371.121094 C 173.640625 1371.246094 173.640625 1371.246094 -6.996094 1371.296875 L -15.804688 1371.296875 C -53.414062 1371.300781 -91.019531 1371.292969 -128.625 1371.234375 L -130.609375 1371.230469 C -151.925781 1371.195312 -173.238281 1371.136719 -194.550781 1371.050781 C -205.734375 1371.007812 -216.914062 1370.976562 -228.09375 1370.957031 C -237.210938 1370.9375 -246.324219 1370.910156 -255.4375 1370.871094 C -260.730469 1370.847656 -266.023438 1370.832031 -271.316406 1370.824219 C -276.121094 1370.820312 -280.925781 1370.800781 -285.730469 1370.773438 C -287.476562 1370.765625 -289.222656 1370.761719 -290.972656 1370.765625 C -293.339844 1370.765625 -295.707031 1370.75 -298.078125 1370.730469 L -300.167969 1370.742188 C -302.078125 1370.71875 -302.078125 1370.71875 -305.207031 1370.367188 C -306.753906 1369.292969 -306.753906 1369.292969 -307.953125 1367.621094 C -308.296875 1365.304688 -308.296875 1365.304688 -308.292969 1362.472656 L -308.3125 1359.199219 L -308.289062 1355.578125 C -308.292969 1354.292969 -308.292969 1353.011719 -308.296875 1351.730469 C -308.304688 1348.183594 -308.296875 1344.640625 -308.285156 1341.09375 C -308.273438 1337.242188 -308.28125 1333.390625 -308.285156 1329.539062 C -308.285156 1322.78125 -308.28125 1316.023438 -308.269531 1309.265625 C -308.25 1299.207031 -308.25 1289.152344 -308.25 1279.097656 C -308.246094 1262.160156 -308.238281 1245.222656 -308.21875 1228.285156 C -308.199219 1211.449219 -308.183594 1194.609375 -308.179688 1177.773438 L -308.179688 1174.59375 L -308.175781 1158.617188 C -308.164062 1120.804688 -308.140625 1082.996094 -308.109375 1045.183594 L -308.089844 1017.691406 L -308.085938 1014.25 C -308.066406 986.925781 -308.050781 959.601562 -308.035156 932.28125 C -308.019531 906.632812 -308.007812 880.984375 -307.996094 855.339844 L -307.996094 852.046875 L -307.984375 822.679688 C -307.976562 799.488281 -307.960938 776.296875 -307.941406 753.105469 C -307.929688 727.648438 -307.914062 702.191406 -307.890625 676.734375 C -307.867188 629.65625 -307.925781 582.585938 -308.585938 535.511719 C -308.625 532.894531 -308.660156 530.277344 -308.691406 527.660156 C -308.734375 524.609375 -308.78125 521.554688 -308.835938 518.5 L -308.890625 514.542969 L -308.945312 511.171875 C -308.867188 507.890625 -308.648438 504.851562 -307.953125 501.636719 C -305.207031 499.808594 -305.207031 499.808594 -303.328125 499.578125 M 170.878906 854.988281 C 170.859375 859.144531 170.839844 863.296875 170.828125 867.453125 C 170.824219 868.867188 170.820312 870.28125 170.8125 871.695312 C 170.800781 873.726562 170.792969 875.753906 170.789062 877.785156 L 170.777344 879.710938 C 170.777344 881.234375 170.824219 882.757812 170.878906 884.28125 L 171.796875 885.195312 C 174.101562 885.277344 176.386719 885.300781 178.695312 885.285156 L 180.785156 885.28125 C 182.996094 885.277344 185.207031 885.265625 187.417969 885.253906 C 188.914062 885.25 190.410156 885.246094 191.902344 885.242188 C 195.578125 885.230469 199.25 885.214844 202.925781 885.195312 L 202.925781 854.988281 L 187.933594 854.472656 L 183.203125 854.304688 C 181.96875 854.261719 180.734375 854.222656 179.5 854.183594 L 177.550781 854.109375 C 174.101562 853.9375 174.101562 853.9375 170.878906 854.988281 M 532.523438 854.988281 C 532.5 859.125 532.484375 863.261719 532.472656 867.402344 C 532.46875 868.808594 532.460938 870.21875 532.453125 871.628906 C 532.445312 873.648438 532.4375 875.671875 532.433594 877.695312 L 532.421875 879.609375 C 532.375 882.972656 532.375 882.972656 533.4375 886.113281 L 565.484375 886.113281 C 566.867188 883.339844 566.402344 880.519531 566.289062 877.492188 L 566.222656 875.46875 C 566.152344 873.332031 566.078125 871.199219 566 869.0625 C 565.949219 867.617188 565.902344 866.167969 565.851562 864.722656 C 565.734375 861.171875 565.609375 857.621094 565.484375 854.070312 C 561.085938 854.050781 556.683594 854.03125 552.285156 854.023438 C 550.789062 854.015625 549.289062 854.011719 547.792969 854.003906 C 545.644531 853.992188 543.492188 853.984375 541.34375 853.984375 L 539.308594 853.96875 C 535.800781 853.90625 535.800781 853.90625 532.523438 854.988281 M 62.84375 863.226562 L 64.675781 865.058594 L 62.832031 866.539062 C 58.300781 870.363281 54.125 874.023438 51.640625 879.484375 C 50.015625 886.394531 50.609375 893.714844 50.941406 900.757812 L 53.5625 901.625 C 58.140625 903.160156 58.140625 903.160156 60.097656 904.417969 C 60.742188 905.625 61.351562 906.84375 61.929688 908.082031 L 62.941406 909.984375 C 64.589844 913.289062 65.941406 916.238281 65.761719 919.980469 C 65.160156 923.152344 63.761719 924.972656 61.699219 927.417969 C 57.414062 932.53125 55.445312 938.335938 53.6875 944.699219 L 52.996094 947.15625 C 50.933594 955.152344 50.582031 962.777344 50.675781 970.976562 C 50.679688 972.3125 50.683594 973.652344 50.6875 974.988281 C 50.695312 978.46875 50.722656 981.945312 50.753906 985.421875 C 50.78125 988.988281 50.792969 992.554688 50.808594 996.121094 C 50.839844 1003.085938 50.882812 1010.050781 50.941406 1017.015625 C 55.195312 1017.039062 59.449219 1017.054688 63.699219 1017.066406 C 65.148438 1017.070312 66.59375 1017.078125 68.039062 1017.085938 C 70.121094 1017.09375 72.199219 1017.101562 74.277344 1017.105469 L 76.238281 1017.121094 C 79.054688 1017.121094 81.210938 1016.996094 83.902344 1016.101562 L 83.902344 1003.285156 L 85.734375 1003.285156 C 85.898438 1003.902344 86.066406 1004.519531 86.238281 1005.160156 L 86.9375 1007.632812 L 87.613281 1010.078125 C 88.84375 1013.472656 88.84375 1013.472656 91.226562 1016.101562 C 105.601562 1018.867188 124.625 1018.910156 138.835938 1015.183594 C 142.519531 1013.257812 145.207031 1010.960938 147.992188 1007.863281 L 147.992188 1006.03125 L 150.738281 1005.117188 C 152.089844 1003 153.242188 1000.925781 154.398438 998.707031 L 155.585938 996.730469 C 161.191406 986.863281 161.054688 975.183594 161.015625 964.105469 L 160.980469 960.03125 L 160.957031 955.773438 C 161.429688 932.957031 161.429688 932.957031 154.800781 911.515625 C 151.617188 906.566406 147.605469 903.578125 142.496094 900.757812 C 130.15625 894.882812 116.832031 895.203125 103.414062 894.980469 L 100.796875 894.898438 C 98.46875 894.878906 96.277344 894.925781 93.972656 895.265625 C 91.167969 896.65625 91.167969 896.65625 89.394531 898.925781 C 88.09375 901.15625 88.09375 901.15625 87.277344 903.5625 L 86.375 905.941406 C 85.601562 908.148438 85.601562 908.148438 85.734375 910.828125 L 83.902344 910.828125 L 84.003906 908.765625 C 84.59375 894.898438 84.332031 883.148438 78.894531 870.261719 C 77.648438 867.257812 77.492188 866.300781 77.492188 863.226562 Z M 436.925781 862.511719 L 435.132812 862.566406 L 428.492188 862.769531 L 420.472656 863.015625 L 416.484375 863.136719 L 413.5 863.226562 C 412.363281 892.835938 412.445312 922.453125 412.46875 952.078125 C 412.472656 957.585938 412.472656 963.09375 412.464844 968.601562 C 412.460938 973.96875 412.460938 979.339844 412.460938 984.707031 C 412.464844 987.890625 412.464844 991.070312 412.460938 994.253906 C 412.460938 997.761719 412.460938 1001.269531 412.46875 1004.777344 L 412.460938 1007.953125 L 412.46875 1010.820312 L 412.472656 1013.324219 L 412.585938 1015.183594 L 413.5 1016.101562 C 415.941406 1016.183594 418.359375 1016.207031 420.800781 1016.191406 L 423.015625 1016.1875 C 425.355469 1016.179688 427.699219 1016.167969 430.039062 1016.15625 C 431.625 1016.152344 433.207031 1016.148438 434.789062 1016.144531 C 438.679688 1016.136719 442.570312 1016.121094 446.460938 1016.101562 L 447.378906 1002.371094 L 449.878906 1009.789062 C 451.207031 1012.824219 452.304688 1014.703125 454.703125 1017.015625 C 457.410156 1017.449219 459.582031 1017.59375 462.285156 1017.527344 L 464.53125 1017.519531 C 466.101562 1017.511719 467.667969 1017.492188 469.238281 1017.460938 C 471.605469 1017.417969 473.972656 1017.40625 476.339844 1017.402344 C 490.054688 1017.699219 490.054688 1017.699219 502.914062 1013.875 C 508.09375 1010.40625 513.175781 1005.453125 516.386719 1000.082031 L 517.875 996.875 C 518.191406 996.203125 518.507812 995.53125 518.832031 994.835938 C 524.359375 982.246094 523.628906 969.140625 523.367188 955.683594 L 523.3125 952.199219 C 523.25 948.554688 523.175781 944.910156 523.082031 941.265625 L 523.019531 937.800781 C 522.71875 927.667969 520.835938 919.136719 515.734375 910.320312 C 512.789062 905.988281 509.125 903.199219 504.597656 900.644531 C 494.203125 895.988281 483.59375 894.542969 472.320312 894.488281 C 470.179688 894.464844 468.046875 894.375 465.90625 894.28125 C 461.980469 894.199219 458.527344 894.308594 454.703125 895.265625 C 451.828125 897.972656 450.488281 900.726562 449.207031 904.421875 L 448.292969 906.25 L 447.378906 905.335938 C 447.246094 902.558594 447.160156 899.777344 447.121094 896.996094 L 447.070312 894.449219 C 447.015625 891.746094 446.964844 889.042969 446.917969 886.339844 C 446.855469 882.796875 446.789062 879.253906 446.71875 875.714844 L 446.683594 873.246094 C 446.605469 869.496094 446.476562 865.96875 445.546875 862.3125 C 442.671875 862.3125 439.800781 862.421875 436.925781 862.511719 M 682.273438 896.8125 L 679.277344 897.488281 C 674.550781 898.691406 670.421875 900.054688 666.578125 903.128906 C 664.347656 905.347656 662.902344 907.796875 661.386719 910.542969 C 660.796875 911.585938 660.207031 912.625 659.601562 913.699219 C 655.917969 921.136719 654.789062 928.386719 654.707031 936.613281 L 654.652344 939.492188 C 654.613281 941.492188 654.585938 943.492188 654.558594 945.492188 C 654.519531 948.507812 654.464844 951.523438 654.402344 954.539062 C 653.824219 973.621094 653.824219 973.621094 656.867188 992.355469 L 657.742188 995.648438 C 660.011719 1001.804688 663.785156 1005.6875 668.6875 1009.851562 C 673.015625 1013.324219 676.425781 1015.214844 681.964844 1016.179688 C 690.671875 1017.441406 699.425781 1017.289062 708.203125 1017.253906 C 711.171875 1017.246094 714.136719 1017.253906 717.105469 1017.265625 C 719.019531 1017.265625 720.9375 1017.265625 722.851562 1017.257812 L 725.492188 1017.269531 C 732.472656 1017.222656 739.632812 1016.816406 746.019531 1013.8125 L 747.679688 1012.4375 L 747.679688 1010.609375 L 749.257812 1009.941406 C 751.765625 1008.542969 753.417969 1006.84375 755.402344 1004.773438 C 758.191406 1001.910156 761.007812 999.339844 764.160156 996.878906 C 765.578125 994.035156 765.21875 991.027344 765.222656 987.910156 L 765.234375 985.675781 C 765.25 983.230469 765.257812 980.78125 765.261719 978.335938 L 765.277344 973.230469 C 765.285156 969.65625 765.289062 966.082031 765.292969 962.507812 C 765.300781 957.941406 765.320312 953.375 765.347656 948.808594 C 765.363281 945.292969 765.367188 941.773438 765.371094 938.253906 C 765.375 936.570312 765.378906 934.890625 765.394531 933.207031 C 765.410156 930.84375 765.40625 928.480469 765.398438 926.117188 L 765.425781 924.035156 C 765.386719 919.019531 764.433594 914.492188 762.328125 909.914062 C 760.417969 907.9375 760.417969 907.9375 758.007812 906.835938 L 755.417969 905.464844 C 754.527344 905.023438 753.632812 904.585938 752.714844 904.132812 L 750.09375 902.753906 C 744.875 900.050781 739.601562 897.867188 734.035156 895.972656 C 732.113281 895.265625 732.113281 895.265625 731.199219 894.351562 C 728.925781 894.203125 726.648438 894.109375 724.367188 894.066406 L 722.234375 894.027344 C 708.691406 893.808594 695.539062 893.800781 682.273438 896.8125 M 170.878906 895.265625 L 170.878906 1017.015625 L 202.925781 1017.015625 L 202.925781 896.179688 C 192.253906 895.648438 181.566406 895.265625 170.878906 895.265625 M 214.828125 895.265625 C 213.902344 898.039062 213.796875 899.886719 213.796875 902.785156 L 213.785156 905.78125 L 213.792969 909.066406 L 213.789062 912.527344 C 213.785156 915.65625 213.785156 918.789062 213.789062 921.921875 C 213.789062 925.195312 213.789062 928.46875 213.789062 931.742188 C 213.785156 937.238281 213.785156 942.734375 213.792969 948.230469 C 213.796875 954.59375 213.796875 960.953125 213.789062 967.316406 C 213.785156 972.773438 213.785156 978.230469 213.789062 983.6875 C 213.789062 986.949219 213.789062 990.210938 213.785156 993.472656 C 213.785156 997.105469 213.785156 1000.734375 213.792969 1004.367188 L 213.785156 1007.664062 L 213.796875 1010.644531 L 213.796875 1013.25 L 213.910156 1015.183594 L 214.828125 1016.101562 C 217.203125 1016.183594 219.550781 1016.207031 221.925781 1016.191406 L 224.078125 1016.1875 C 226.355469 1016.179688 228.628906 1016.167969 230.90625 1016.15625 C 232.445312 1016.152344 233.984375 1016.148438 235.523438 1016.144531 C 239.308594 1016.136719 243.089844 1016.121094 246.871094 1016.101562 L 246.886719 1013.121094 C 246.941406 1003.839844 247.007812 994.5625 247.085938 985.28125 C 247.128906 980.511719 247.164062 975.738281 247.1875 970.96875 C 247.210938 966.363281 247.25 961.757812 247.296875 957.152344 C 247.308594 955.394531 247.320312 953.640625 247.328125 951.886719 C 247.335938 949.421875 247.359375 946.960938 247.390625 944.496094 L 247.386719 942.3125 C 247.46875 937.585938 248.277344 934.234375 250.535156 930.050781 C 253.28125 928.222656 253.28125 928.222656 256.910156 927.84375 C 258.425781 927.769531 259.945312 927.703125 261.464844 927.648438 L 263.890625 927.542969 C 270.671875 927.269531 277.453125 927.246094 284.238281 927.339844 C 286.125 927.359375 288.015625 927.335938 289.902344 927.304688 L 290.816406 926.390625 C 290.933594 924.238281 290.992188 922.113281 291.003906 919.957031 L 291.019531 918.003906 C 291.027344 916.636719 291.035156 915.273438 291.039062 913.90625 C 291.046875 911.8125 291.074219 909.71875 291.105469 907.625 C 291.109375 906.300781 291.113281 904.976562 291.117188 903.652344 L 291.152344 901.746094 C 291.175781 899.789062 291.175781 899.789062 290.816406 897.097656 C 288.289062 895.097656 288.289062 895.097656 285.707031 895.042969 L 282.886719 895.054688 L 279.769531 895.058594 L 276.511719 895.09375 L 273.320312 895.097656 C 267.492188 895.125 261.785156 895.261719 256.027344 896.179688 C 252.457031 899.171875 251.074219 903.472656 249.375 907.714844 C 248.523438 910.113281 248.523438 910.113281 248.703125 913.574219 L 246.871094 913.574219 L 246.902344 910.003906 L 246.929688 905.394531 L 246.953125 903.035156 L 246.960938 900.792969 L 246.976562 898.714844 L 246.871094 897.097656 L 245.957031 896.179688 C 244.667969 896.042969 243.375 895.945312 242.078125 895.890625 L 239.640625 895.773438 L 237.027344 895.667969 L 234.398438 895.546875 C 227.871094 895.273438 221.359375 895.15625 214.828125 895.265625 M 308.207031 902.09375 C 303 906.117188 298.984375 911.136719 296.117188 917.039062 C 293.433594 924.570312 293.28125 931.597656 293.289062 939.535156 L 293.277344 943.367188 C 293.269531 946.035156 293.269531 948.703125 293.273438 951.371094 C 293.28125 954.757812 293.265625 958.148438 293.242188 961.539062 C 293.230469 964.171875 293.230469 966.808594 293.230469 969.445312 C 293.230469 971.292969 293.21875 973.140625 293.207031 974.988281 C 293.246094 983.089844 293.667969 991.242188 297.707031 998.457031 C 299.519531 1001.25 301.359375 1003.589844 303.636719 1006.03125 C 305.601562 1006.675781 305.601562 1006.675781 307.296875 1006.945312 L 308.214844 1009.691406 C 311.660156 1012.578125 314.230469 1014.011719 318.660156 1014.882812 C 327.488281 1015.953125 336.140625 1016.347656 345.035156 1016.277344 L 349.097656 1016.273438 C 352.609375 1016.261719 356.117188 1016.246094 359.628906 1016.226562 C 363.230469 1016.207031 366.835938 1016.199219 370.4375 1016.1875 C 377.46875 1016.167969 384.5 1016.140625 391.527344 1016.101562 C 391.550781 1011.816406 391.566406 1007.53125 391.578125 1003.246094 C 391.582031 1001.785156 391.589844 1000.328125 391.597656 998.867188 C 391.609375 996.773438 391.613281 994.679688 391.617188 992.589844 L 391.632812 990.601562 C 391.632812 989.03125 391.585938 987.460938 391.527344 985.890625 L 390.613281 984.976562 C 388.773438 984.867188 386.933594 984.824219 385.089844 984.800781 L 381.507812 984.757812 L 379.578125 984.738281 C 377.59375 984.71875 375.609375 984.695312 373.621094 984.667969 C 369.40625 984.613281 365.1875 984.5625 360.972656 984.519531 C 356.09375 984.464844 351.214844 984.40625 346.335938 984.34375 C 344.378906 984.320312 342.421875 984.300781 340.464844 984.28125 L 336.863281 984.234375 L 333.6875 984.199219 C 331.101562 984.0625 331.101562 984.0625 328.355469 983.144531 C 328.046875 981.660156 327.742188 980.171875 327.441406 978.683594 L 326.925781 976.171875 C 326.523438 973.992188 326.523438 973.992188 326.523438 972.160156 L 329.367188 972.167969 C 338.195312 972.183594 347.019531 972.199219 355.84375 972.207031 C 360.378906 972.210938 364.917969 972.21875 369.453125 972.230469 C 373.832031 972.238281 378.207031 972.246094 382.578125 972.246094 C 384.253906 972.25 385.925781 972.253906 387.597656 972.257812 C 389.933594 972.261719 392.269531 972.265625 394.605469 972.265625 L 396.722656 972.273438 C 398.347656 972.269531 399.972656 972.222656 401.601562 972.160156 L 402.515625 971.246094 C 402.609375 970.015625 402.640625 968.78125 402.648438 967.550781 L 402.667969 965.167969 L 402.667969 962.5625 L 402.679688 959.882812 C 402.683594 957.996094 402.683594 956.113281 402.683594 954.230469 C 402.6875 951.386719 402.703125 948.542969 402.722656 945.695312 C 403.039062 929.640625 403.039062 929.640625 399.195312 914.203125 C 396.214844 909.039062 392.207031 905.074219 387.164062 901.921875 C 375.3125 895.636719 363.984375 894.796875 350.828125 894.859375 C 348.226562 894.863281 345.625 894.839844 343.019531 894.808594 C 330.925781 894.765625 318.8125 895.574219 308.207031 902.097656 M 533.4375 895.265625 L 532.523438 896.179688 C 532.441406 897.734375 532.402344 899.285156 532.40625 900.839844 L 532.398438 903.894531 L 532.40625 907.277344 L 532.398438 910.820312 C 532.398438 914.03125 532.398438 917.246094 532.398438 920.460938 C 532.402344 923.816406 532.398438 927.171875 532.398438 930.527344 C 532.398438 936.164062 532.398438 941.800781 532.40625 947.433594 C 532.410156 953.960938 532.410156 960.484375 532.402344 967.011719 C 532.398438 972.605469 532.398438 978.199219 532.398438 983.789062 C 532.402344 987.132812 532.402344 990.480469 532.398438 993.824219 C 532.398438 997.550781 532.398438 1001.277344 532.40625 1005.003906 L 532.398438 1008.386719 L 532.40625 1011.445312 L 532.410156 1014.117188 L 532.523438 1016.101562 L 533.4375 1017.015625 C 535.804688 1017.109375 538.140625 1017.144531 540.507812 1017.136719 L 542.652344 1017.140625 C 544.148438 1017.140625 545.648438 1017.140625 547.148438 1017.136719 C 549.453125 1017.128906 551.753906 1017.136719 554.058594 1017.140625 C 555.511719 1017.140625 556.964844 1017.140625 558.417969 1017.136719 L 560.519531 1017.144531 C 562.175781 1017.136719 563.828125 1017.082031 565.484375 1017.015625 L 566.398438 1016.101562 C 566.476562 1014.535156 566.488281 1012.96875 566.472656 1011.402344 L 566.457031 1008.320312 L 566.417969 1004.902344 L 566.394531 1001.332031 C 566.367188 998.089844 566.339844 994.851562 566.308594 991.609375 C 566.277344 988.222656 566.25 984.839844 566.222656 981.457031 C 566.171875 975.042969 566.117188 968.628906 566.058594 962.214844 C 565.992188 954.917969 565.929688 947.617188 565.871094 940.320312 C 565.746094 925.300781 565.617188 910.285156 565.484375 895.265625 C 560.9375 895.242188 556.390625 895.226562 551.84375 895.214844 C 550.296875 895.210938 548.746094 895.203125 547.199219 895.199219 C 544.980469 895.1875 542.757812 895.179688 540.539062 895.175781 L 538.429688 895.164062 C 536.765625 895.164062 535.101562 895.210938 533.4375 895.265625 M 577.386719 895.265625 L 576.46875 896.179688 C 576.386719 897.722656 576.347656 899.261719 576.355469 900.804688 L 576.347656 903.835938 L 576.351562 907.195312 L 576.347656 910.707031 C 576.34375 913.898438 576.34375 917.085938 576.347656 920.273438 C 576.347656 923.605469 576.347656 926.933594 576.347656 930.265625 C 576.34375 935.855469 576.347656 941.449219 576.351562 947.042969 C 576.355469 953.519531 576.355469 959.996094 576.347656 966.46875 C 576.34375 972.019531 576.34375 977.570312 576.347656 983.121094 C 576.347656 986.4375 576.347656 989.757812 576.347656 993.078125 C 576.34375 996.773438 576.34375 1000.472656 576.351562 1004.171875 L 576.347656 1007.527344 L 576.355469 1010.5625 L 576.355469 1013.214844 L 576.46875 1015.183594 L 577.386719 1016.101562 C 579.761719 1016.183594 582.109375 1016.207031 584.484375 1016.191406 L 586.636719 1016.1875 C 588.914062 1016.179688 591.1875 1016.167969 593.464844 1016.15625 C 595.003906 1016.152344 596.542969 1016.148438 598.082031 1016.144531 C 601.867188 1016.136719 605.648438 1016.121094 609.429688 1016.101562 L 609.445312 1013.078125 C 609.5 1003.679688 609.566406 994.277344 609.644531 984.875 C 609.6875 980.042969 609.722656 975.207031 609.746094 970.375 C 609.773438 965.710938 609.808594 961.046875 609.855469 956.378906 C 609.871094 954.601562 609.878906 952.824219 609.886719 951.042969 C 609.894531 948.550781 609.921875 946.058594 609.949219 943.5625 L 609.945312 941.339844 C 610.003906 937.933594 610.3125 935.628906 611.574219 932.410156 C 613.09375 930.050781 613.09375 930.050781 615.839844 928.222656 C 617.835938 927.929688 617.835938 927.929688 620.167969 927.84375 L 622.78125 927.734375 L 625.566406 927.648438 L 628.40625 927.542969 C 634.910156 927.316406 641.40625 927.230469 647.914062 927.339844 C 649.429688 927.359375 650.945312 927.335938 652.460938 927.304688 L 653.375 926.390625 C 653.46875 924.625 653.496094 922.855469 653.5 921.085938 L 653.503906 917.792969 L 653.492188 914.320312 L 653.503906 910.898438 L 653.5 907.585938 L 653.496094 904.550781 C 653.378906 901.691406 652.992188 898.992188 652.460938 896.179688 C 647.511719 894.53125 642.042969 894.984375 636.851562 894.945312 C 635.433594 894.929688 634.019531 894.90625 632.605469 894.871094 C 630.558594 894.824219 628.507812 894.796875 626.460938 894.789062 L 624.554688 894.722656 C 622.5 894.6875 622.5 894.6875 619.5 895.265625 C 616.863281 897.429688 615.269531 899.195312 613.675781 902.195312 L 612.804688 904.535156 L 611.902344 906.886719 C 611.128906 909.066406 611.128906 909.066406 611.261719 911.742188 L 609.429688 911.742188 L 609.429688 895.265625 C 604.882812 895.246094 600.335938 895.226562 595.789062 895.214844 C 594.242188 895.210938 592.695312 895.203125 591.144531 895.199219 C 588.925781 895.1875 586.707031 895.179688 584.484375 895.175781 L 582.375 895.164062 C 580.710938 895.164062 579.046875 895.210938 577.386719 895.265625 M 67.824219 52 L 70.101562 51.964844 L 72.339844 51.960938 L 74.339844 51.949219 C 76.578125 52.171875 76.578125 52.171875 82.988281 54 L 82.988281 104.347656 L 85.734375 104.347656 L 85.847656 101.773438 C 86.636719 96.5625 88.96875 92.039062 92.144531 87.871094 C 94.019531 86.417969 95.386719 85.914062 97.699219 85.390625 C 111.414062 84.035156 126.082031 84.71875 139.09375 89.472656 C 144.890625 92.140625 149.21875 95.84375 152.914062 101.03125 C 157.109375 107.878906 158.722656 114.976562 159.070312 122.957031 C 159.113281 125.296875 159.128906 127.632812 159.132812 129.972656 L 159.140625 132.59375 C 159.144531 134.421875 159.148438 136.246094 159.148438 138.074219 C 159.148438 140.8125 159.164062 143.546875 159.183594 146.285156 C 159.207031 154.632812 159.074219 162.898438 158.171875 171.203125 L 157.960938 173.183594 C 157.230469 179.105469 155.660156 184.367188 152.570312 189.480469 C 149.230469 193.816406 145.265625 197.472656 140.242188 199.730469 C 134.730469 201.480469 128.972656 202.320312 123.269531 203.214844 L 120.25 203.734375 C 115.714844 204.261719 111.238281 204.296875 106.675781 204.300781 L 103.96875 204.335938 L 101.347656 204.339844 L 98.988281 204.351562 C 96.390625 204.097656 94.472656 203.464844 92.144531 202.296875 C 90.527344 199.910156 90.527344 199.910156 89.167969 197.035156 L 87.777344 194.1875 C 86.671875 191.367188 86.109375 188.820312 85.734375 185.820312 L 82.988281 185.820312 L 83.019531 187.566406 C 83.070312 192.578125 82.804688 197.339844 82.070312 202.296875 C 75.890625 203.890625 70.246094 204.410156 63.875 204.359375 L 61.277344 204.378906 L 58.789062 204.371094 L 56.550781 204.367188 C 54.605469 204.128906 54.605469 204.128906 51.859375 202.296875 C 51.515625 199.777344 51.515625 199.777344 51.515625 196.496094 L 51.503906 194.671875 C 51.496094 192.644531 51.507812 190.617188 51.519531 188.589844 C 51.515625 187.140625 51.511719 185.691406 51.507812 184.242188 C 51.5 180.300781 51.507812 176.355469 51.519531 172.410156 C 51.53125 168.292969 51.527344 164.171875 51.523438 160.050781 C 51.523438 153.132812 51.53125 146.210938 51.550781 139.292969 C 51.570312 131.28125 51.574219 123.273438 51.566406 115.265625 C 51.5625 107.574219 51.566406 99.878906 51.578125 92.1875 C 51.582031 88.90625 51.582031 85.628906 51.582031 82.347656 C 51.578125 78.488281 51.585938 74.632812 51.601562 70.773438 C 51.605469 69.351562 51.605469 67.933594 51.601562 66.515625 C 51.601562 64.582031 51.609375 62.652344 51.621094 60.71875 L 51.625 57.4375 L 51.859375 54.917969 L 53.6875 53.085938 C 58.355469 51.957031 63.050781 52.003906 67.824219 52 M 87.566406 115.332031 C 85.3125 116.972656 85.3125 116.972656 83.902344 118.996094 C 82.6875 122.640625 82.640625 126.230469 82.472656 130.039062 L 82.359375 132.566406 C 82.074219 139.597656 81.945312 146.628906 81.898438 153.667969 L 81.863281 156.714844 C 81.847656 164.136719 81.847656 164.136719 83.902344 171.175781 C 85.777344 173.285156 85.777344 173.285156 88.480469 174.835938 C 91.101562 175.183594 93.359375 175.332031 95.976562 175.289062 L 98.140625 175.292969 C 99.644531 175.292969 101.152344 175.28125 102.65625 175.261719 C 104.953125 175.242188 107.25 175.238281 109.546875 175.257812 C 111.011719 175.25 112.476562 175.242188 113.945312 175.234375 L 116.015625 175.242188 C 119.0625 175.183594 121.304688 174.898438 124.082031 173.609375 C 126.222656 172.089844 126.222656 172.089844 127.847656 169.34375 C 128.144531 167.144531 128.144531 167.144531 128.128906 164.664062 L 128.175781 161.777344 L 128.1875 158.65625 C 128.199219 157.59375 128.207031 156.535156 128.214844 155.441406 C 128.226562 153.199219 128.234375 150.953125 128.238281 148.710938 C 128.25 145.277344 128.292969 141.851562 128.339844 138.421875 C 128.351562 136.242188 128.355469 134.058594 128.359375 131.878906 L 128.414062 128.777344 C 128.449219 123.710938 128.449219 123.710938 126.929688 118.964844 C 125.347656 116.929688 123.691406 115.539062 121.378906 114.40625 C 115.867188 113.480469 110.488281 113.226562 104.902344 113.273438 L 102.289062 113.253906 C 97.070312 113.265625 92.546875 113.746094 87.566406 115.332031 M 430.496094 52 L 432.785156 51.964844 L 435.019531 51.960938 L 437.019531 51.949219 C 439.136719 52.171875 439.136719 52.171875 444.628906 54 L 445.546875 102.519531 L 447.378906 102.519531 L 448.21875 100.042969 L 449.378906 96.796875 L 450.507812 93.578125 C 451.957031 90.617188 451.957031 90.617188 454.1875 88.472656 C 458.589844 85.628906 462.835938 85.246094 468.015625 84.921875 C 480.132812 84.648438 494.207031 85.691406 505.058594 91.535156 C 510.105469 95.074219 514.070312 98.925781 516.960938 104.40625 C 520.9375 113.488281 521.683594 122.863281 521.660156 132.683594 L 521.660156 134.964844 C 521.660156 136.546875 521.660156 138.128906 521.65625 139.707031 C 521.652344 142.089844 521.65625 144.472656 521.664062 146.855469 C 521.675781 170.519531 521.675781 170.519531 518.621094 179.699219 L 518.003906 181.574219 C 516.300781 186.5 514.371094 190.488281 510.550781 194.058594 C 503.8125 199.695312 496.609375 201.738281 488.105469 203.273438 C 482.152344 204.246094 476.34375 204.371094 470.324219 204.300781 L 467.28125 204.300781 C 458.453125 204.25 458.453125 204.25 454.703125 203.214844 C 450.382812 198.355469 448.644531 191.84375 446.460938 185.820312 L 445.546875 185.820312 L 445.441406 189.359375 C 445.382812 190.890625 445.320312 192.417969 445.257812 193.945312 L 445.199219 196.28125 L 445.097656 198.515625 L 445.027344 200.578125 L 444.628906 202.296875 C 441.882812 204.128906 441.882812 204.128906 439.347656 204.367188 L 436.304688 204.371094 L 432.992188 204.378906 L 429.523438 204.359375 L 426.058594 204.378906 L 422.742188 204.371094 L 419.699219 204.367188 C 417.164062 204.128906 417.164062 204.128906 414.417969 202.296875 C 414.050781 200.375 414.050781 200.375 414.023438 197.933594 L 413.96875 195.125 L 413.949219 192 L 413.898438 188.679688 C 413.855469 185.625 413.828125 182.570312 413.804688 179.515625 C 413.78125 176.929688 413.75 174.34375 413.71875 171.761719 C 413.445312 148.199219 413.410156 124.632812 413.390625 101.070312 L 413.378906 92.714844 C 413.375 88.292969 413.375 83.871094 413.378906 79.453125 C 413.378906 77.8125 413.378906 76.171875 413.378906 74.53125 C 413.375 72.273438 413.378906 70.015625 413.382812 67.753906 L 413.378906 65.773438 C 413.394531 61.773438 413.703125 57.9375 414.417969 54 L 415.332031 53.085938 C 420.394531 52.144531 425.355469 52.003906 430.496094 52 M 450.25 115.707031 C 448.148438 117.273438 446.875 118.566406 445.546875 120.828125 C 444.273438 125.339844 444.464844 129.984375 444.445312 134.636719 L 444.429688 137.339844 C 444.421875 139.226562 444.414062 141.113281 444.410156 142.996094 C 444.402344 145.871094 444.375 148.742188 444.34375 151.613281 C 444.339844 153.449219 444.332031 155.285156 444.332031 157.121094 L 444.296875 159.707031 C 444.3125 164.824219 444.785156 168.539062 447.378906 173.003906 C 448.875 174.453125 448.875 174.453125 451.039062 174.835938 C 453.53125 175.042969 455.921875 175.15625 458.414062 175.175781 C 459.128906 175.183594 459.839844 175.191406 460.574219 175.199219 C 462.082031 175.214844 463.589844 175.222656 465.097656 175.226562 C 467.390625 175.234375 469.683594 175.28125 471.980469 175.328125 C 473.445312 175.335938 474.914062 175.34375 476.382812 175.347656 L 478.445312 175.402344 C 480.691406 175.429688 480.691406 175.429688 484 174.835938 C 486.222656 173.511719 487.652344 172.136719 489.492188 170.257812 C 490.59375 168.058594 490.535156 166.660156 490.554688 164.203125 L 490.582031 161.546875 L 490.59375 158.664062 L 490.609375 155.699219 C 490.617188 153.625 490.625 151.550781 490.628906 149.476562 C 490.636719 146.316406 490.664062 143.152344 490.695312 139.992188 C 490.699219 137.976562 490.703125 135.960938 490.707031 133.945312 L 490.742188 131.089844 C 490.730469 127.179688 490.675781 123.585938 489.300781 119.890625 C 487.832031 117.128906 487.832031 117.128906 485.632812 115.414062 C 482.445312 114.167969 479.558594 114.023438 476.1875 114.054688 L 474.210938 114.046875 C 472.832031 114.042969 471.457031 114.050781 470.082031 114.0625 C 467.984375 114.074219 465.886719 114.0625 463.789062 114.042969 C 462.449219 114.042969 461.105469 114.046875 459.765625 114.054688 L 457.878906 114.035156 C 454.925781 114.082031 452.917969 114.394531 450.25 115.707031 M 341.148438 85.070312 C 355.46875 84.671875 370.851562 84.875 384.203125 90.617188 C 389.371094 93.5625 393.613281 97.65625 397.023438 102.519531 C 401 110.1875 401.882812 117.96875 401.84375 126.484375 L 401.847656 129.074219 C 401.847656 130.867188 401.847656 132.660156 401.839844 134.453125 C 401.828125 137.203125 401.839844 139.949219 401.851562 142.695312 C 401.851562 144.441406 401.847656 146.191406 401.84375 147.9375 L 401.855469 150.425781 L 401.835938 152.734375 C 401.835938 153.402344 401.835938 154.070312 401.832031 154.757812 C 401.601562 156.527344 401.601562 156.527344 399.769531 159.273438 C 397.332031 159.535156 395.109375 159.621094 392.667969 159.585938 L 390.449219 159.585938 C 388.023438 159.582031 385.59375 159.566406 383.167969 159.542969 C 381.488281 159.535156 379.804688 159.53125 378.125 159.53125 C 373.695312 159.519531 369.269531 159.492188 364.839844 159.460938 C 360.324219 159.433594 355.808594 159.421875 351.289062 159.40625 C 342.425781 159.375 333.558594 159.332031 324.691406 159.273438 C 324.828125 160.742188 324.96875 162.207031 325.109375 163.675781 L 325.339844 166.152344 C 325.648438 168.769531 326 170.769531 327.441406 173.003906 C 330.894531 173.96875 334.257812 174.058594 337.832031 174.109375 L 341.332031 174.164062 L 345.082031 174.210938 L 348.941406 174.265625 C 352.316406 174.316406 355.695312 174.363281 359.070312 174.40625 C 362.519531 174.453125 365.96875 174.503906 369.417969 174.554688 C 376.175781 174.652344 382.9375 174.746094 389.699219 174.835938 C 391.5625 178.566406 390.78125 183.378906 390.785156 187.480469 L 390.820312 190.515625 L 390.824219 193.449219 L 390.835938 196.128906 C 390.59375 198.855469 390.066406 200.796875 388.78125 203.214844 C 386.03125 204.128906 384.191406 204.25 381.320312 204.261719 L 378.398438 204.28125 L 375.234375 204.28125 L 371.957031 204.292969 C 369.660156 204.296875 367.363281 204.296875 365.066406 204.296875 C 361.597656 204.300781 358.125 204.316406 354.652344 204.335938 C 323.6875 204.410156 323.6875 204.410156 311.875 198.636719 C 307.195312 195.898438 303.386719 192.457031 300.261719 188.015625 C 294.953125 178.34375 294.40625 167.425781 294.15625 156.652344 L 294.09375 154.117188 C 294.050781 152.363281 294.007812 150.605469 293.96875 148.847656 C 293.90625 146.1875 293.835938 143.53125 293.765625 140.875 C 293.128906 115.414062 293.128906 115.414062 299.058594 103.433594 C 302.175781 98.253906 305.996094 94.050781 311.167969 90.875 C 320.519531 86.554688 330.972656 85.386719 341.148438 85.070312 M 328.410156 116.546875 C 326.140625 119.496094 325.335938 121.742188 324.691406 125.402344 C 324.957031 127.242188 325.253906 129.074219 325.609375 130.894531 C 331.703125 130.917969 337.796875 130.933594 343.890625 130.945312 C 345.96875 130.953125 348.042969 130.957031 350.117188 130.964844 C 353.09375 130.976562 356.070312 130.980469 359.046875 130.984375 L 361.871094 131 L 364.480469 131 L 366.785156 131.003906 C 368.703125 131.015625 368.703125 131.015625 370.472656 129.980469 C 370.4375 128.074219 370.378906 126.164062 370.300781 124.257812 L 370.203125 121.039062 L 369.554688 118.082031 C 367.726562 115.941406 367.726562 115.941406 364.976562 114.417969 C 362.292969 114.050781 359.960938 113.882812 357.28125 113.902344 L 355.054688 113.882812 C 353.507812 113.875 351.957031 113.878906 350.410156 113.890625 C 348.046875 113.902344 345.6875 113.871094 343.324219 113.835938 C 341.816406 113.835938 340.304688 113.839844 338.796875 113.84375 L 336.667969 113.804688 C 333.019531 113.871094 331.304688 114.257812 328.410156 116.546875 M 737.609375 87.871094 L 740.484375 88.441406 C 745.429688 89.660156 749.246094 91.84375 753.136719 95.132812 C 757.082031 99.132812 759.660156 103.472656 761.320312 108.84375 C 763.027344 116.003906 763.636719 122.6875 763.574219 130.039062 L 763.578125 133.347656 C 763.574219 135.640625 763.566406 137.933594 763.550781 140.226562 C 763.53125 143.703125 763.53125 147.179688 763.539062 150.65625 C 763.535156 152.898438 763.527344 155.140625 763.519531 157.386719 L 763.519531 160.484375 C 763.441406 169.527344 763.035156 178.472656 758.949219 186.679688 C 755.632812 192.207031 751.734375 195.703125 746.132812 198.808594 C 735.015625 204 722.746094 204.347656 710.714844 204.359375 L 708.726562 204.359375 C 683.554688 204.320312 683.554688 204.320312 672.667969 198.050781 L 670.773438 196.804688 L 668.992188 195.675781 C 664.59375 192.441406 662.269531 188.234375 659.984375 183.34375 C 658.179688 178.460938 657.5625 173.582031 657.039062 168.429688 L 656.578125 165.171875 C 655.675781 157.949219 655.847656 150.632812 655.804688 143.367188 C 655.789062 141.472656 655.761719 139.582031 655.726562 137.6875 C 655.511719 125.84375 655.835938 115.328125 660.699219 104.347656 C 663.636719 99.273438 666.71875 94.851562 671.632812 91.535156 C 690.855469 81.234375 716.988281 83.675781 737.609375 87.871094 M 691.996094 115.46875 C 689.898438 117.113281 689.898438 117.113281 688.363281 119.433594 C 686.789062 124 686.859375 128.246094 686.886719 133.046875 L 686.878906 136.066406 C 686.878906 138.171875 686.882812 140.273438 686.894531 142.375 C 686.910156 145.59375 686.894531 148.808594 686.875 152.023438 C 686.878906 154.070312 686.882812 156.117188 686.886719 158.160156 L 686.871094 161.074219 C 686.90625 164.835938 686.96875 167.742188 688.417969 171.242188 C 689.902344 173.007812 689.902344 173.007812 691.550781 174.191406 C 694.636719 175.136719 697.671875 175.113281 700.867188 175.109375 L 702.972656 175.125 C 704.441406 175.128906 705.910156 175.128906 707.375 175.125 C 709.617188 175.121094 711.851562 175.144531 714.089844 175.167969 C 715.519531 175.167969 716.949219 175.167969 718.378906 175.167969 L 720.394531 175.195312 C 723.394531 175.167969 725.554688 174.90625 728.28125 173.613281 L 730.285156 172.089844 L 731.925781 170.917969 C 733.25 169.292969 733.25 169.292969 733.355469 166.648438 L 733.332031 163.34375 L 733.328125 161.539062 C 733.316406 159.601562 733.292969 157.664062 733.257812 155.726562 C 733.246094 154.394531 733.230469 153.0625 733.21875 151.734375 C 733.183594 148.441406 733.128906 145.152344 733.066406 141.859375 C 733.03125 140.199219 733.007812 138.539062 732.988281 136.875 C 732.945312 134.234375 732.882812 131.59375 732.800781 128.949219 L 732.761719 126.660156 C 732.605469 122.929688 732.203125 120.984375 730.355469 117.628906 C 728.679688 115.292969 728.679688 115.292969 726.621094 114.417969 C 724.28125 114.308594 721.9375 114.246094 719.59375 114.234375 L 717.476562 114.21875 C 716 114.207031 714.523438 114.203125 713.042969 114.199219 C 710.789062 114.1875 708.535156 114.164062 706.28125 114.132812 C 704.84375 114.125 703.40625 114.121094 701.96875 114.117188 L 699.933594 114.082031 C 697.011719 114.097656 694.714844 114.363281 691.996094 115.46875 M 578.300781 85.125 C 580.378906 85.035156 582.457031 85.007812 584.535156 85.003906 L 586.425781 85 C 587.75 85 589.074219 85.003906 590.394531 85.007812 C 592.425781 85.011719 594.449219 85.007812 596.480469 85 C 597.761719 85 599.046875 85 600.328125 85.003906 L 603.886719 85.007812 C 606.683594 85.125 606.683594 85.125 608.515625 86.039062 L 609.429688 104.347656 C 611.347656 99.878906 613.089844 95.496094 614.6875 90.921875 C 616.195312 88.128906 617.777344 86.882812 620.417969 85.125 C 623.21875 84.679688 623.21875 84.679688 626.3125 84.703125 L 629.707031 84.714844 L 633.234375 84.78125 L 636.761719 84.785156 C 646.878906 84.882812 646.878906 84.882812 650.628906 86.957031 C 651.964844 88.867188 652.414062 90.222656 652.699219 92.527344 L 652.703125 94.554688 L 652.710938 96.808594 L 652.691406 99.140625 L 652.710938 101.445312 L 652.703125 103.710938 L 652.699219 105.746094 C 652.382812 108.757812 651.515625 111.527344 650.628906 114.417969 L 647.59375 114.472656 C 643.863281 114.542969 640.136719 114.625 636.410156 114.707031 C 634.796875 114.746094 633.1875 114.777344 631.574219 114.804688 C 629.253906 114.847656 626.933594 114.898438 624.613281 114.953125 L 622.4375 114.988281 C 619.597656 115.0625 616.917969 115.296875 614.144531 115.929688 C 612.019531 117.097656 612.019531 117.097656 610.546875 119.371094 C 608.980469 123.984375 608.992188 128.292969 608.960938 133.136719 L 608.910156 136.261719 C 608.867188 139.566406 608.828125 142.867188 608.800781 146.171875 C 608.769531 148.320312 608.738281 150.464844 608.707031 152.613281 C 608.582031 161.410156 608.488281 170.199219 608.5625 178.996094 L 608.585938 182.386719 C 608.601562 184.515625 608.628906 186.644531 608.660156 188.773438 C 608.699219 193.933594 608.609375 198.386719 606.683594 203.214844 C 602.609375 205.25 597.023438 204.296875 592.550781 204.300781 L 589.070312 204.335938 L 585.742188 204.339844 L 582.683594 204.351562 C 580.132812 204.128906 580.132812 204.128906 577.386719 202.296875 C 577.046875 200.257812 577.046875 200.257812 577.050781 197.671875 L 577.035156 194.703125 L 577.058594 191.433594 L 577.054688 188 C 577.054688 184.890625 577.0625 181.777344 577.078125 178.667969 C 577.089844 175.417969 577.089844 172.164062 577.089844 168.914062 C 577.09375 163.457031 577.105469 158 577.128906 152.539062 C 577.15625 145.523438 577.164062 138.511719 577.167969 131.496094 C 577.171875 125.476562 577.183594 119.453125 577.195312 113.433594 C 577.199219 111.492188 577.203125 109.550781 577.203125 107.613281 C 577.210938 104.003906 577.222656 100.394531 577.238281 96.789062 L 577.242188 93.511719 L 577.257812 90.550781 L 577.265625 87.964844 L 577.386719 86.039062 Z M 215.742188 85.125 C 217.820312 85.035156 219.898438 85.007812 221.976562 85.003906 L 223.867188 85 C 225.191406 85 226.515625 85.003906 227.835938 85.007812 C 229.863281 85.011719 231.890625 85.007812 233.917969 85 C 235.203125 85 236.484375 85 237.769531 85.003906 L 241.324219 85.007812 C 244.125 85.125 244.125 85.125 245.957031 86.039062 L 246.871094 103.433594 L 248.703125 104.347656 L 249.332031 100.800781 C 250.4375 95.886719 252.117188 91.046875 255.109375 86.957031 C 258.601562 85.195312 261.5 84.890625 265.382812 84.882812 L 268.65625 84.875 L 272.046875 84.898438 L 275.441406 84.875 L 278.714844 84.882812 L 281.691406 84.886719 C 284.476562 85.132812 286.476562 85.75 288.988281 86.957031 L 289.902344 87.871094 C 289.992188 89.757812 290.019531 91.648438 290.023438 93.535156 L 290.027344 97.019531 L 290.019531 98.839844 C 290.015625 100.679688 290.019531 102.519531 290.027344 104.355469 L 290.023438 107.839844 L 290.019531 111.0625 L 289.902344 113.503906 L 288.988281 114.417969 C 286.476562 114.519531 283.988281 114.566406 281.480469 114.578125 L 276.808594 114.644531 C 274.347656 114.675781 271.886719 114.703125 269.425781 114.71875 C 267.050781 114.730469 264.679688 114.769531 262.308594 114.808594 L 260.097656 114.804688 C 256.5 114.882812 254.359375 115.253906 251.054688 116.851562 C 248.589844 118.804688 248.589844 118.804688 247.652344 121.398438 C 246.738281 125.015625 246.617188 128.421875 246.636719 132.128906 L 246.628906 134.386719 C 246.621094 136 246.617188 137.613281 246.621094 139.226562 C 246.621094 141.777344 246.609375 144.328125 246.59375 146.878906 C 246.550781 154.128906 246.527344 161.375 246.523438 168.625 C 246.515625 173.066406 246.496094 177.503906 246.460938 181.945312 C 246.453125 183.636719 246.453125 185.328125 246.457031 187.019531 C 246.460938 189.378906 246.445312 191.738281 246.425781 194.101562 L 246.449219 196.222656 C 246.417969 198.171875 246.417969 198.171875 245.957031 201.382812 C 244.253906 203.191406 244.253906 203.191406 242.292969 204.128906 C 239.734375 204.453125 239.734375 204.453125 236.824219 204.429688 L 233.644531 204.414062 L 230.335938 204.359375 L 227.011719 204.34375 C 218.914062 204.269531 218.914062 204.269531 215.742188 203.214844 C 214.59375 200.917969 214.710938 199.359375 214.710938 196.789062 L 214.703125 193.84375 L 214.707031 190.601562 L 214.703125 187.195312 C 214.699219 184.109375 214.699219 181.023438 214.703125 177.9375 C 214.707031 174.710938 214.703125 171.484375 214.703125 168.261719 C 214.699219 162.847656 214.703125 157.429688 214.707031 152.015625 C 214.710938 145.746094 214.710938 139.476562 214.707031 133.207031 C 214.703125 127.832031 214.699219 122.457031 214.703125 117.082031 C 214.703125 113.871094 214.703125 110.65625 214.703125 107.441406 C 214.699219 103.863281 214.703125 100.285156 214.707031 96.703125 L 214.703125 93.453125 L 214.710938 90.515625 L 214.710938 87.949219 L 214.828125 86.039062 Z M 550.320312 84.894531 L 553.796875 84.839844 L 557.125 84.824219 L 560.183594 84.800781 C 562.738281 85.125 562.738281 85.125 564.25 86.273438 C 565.484375 87.871094 565.484375 87.871094 565.824219 89.6875 C 565.824219 90.382812 565.820312 91.078125 565.820312 91.792969 L 565.835938 94.21875 L 565.808594 96.875 L 565.816406 99.675781 C 565.820312 102.746094 565.800781 105.816406 565.785156 108.886719 C 565.78125 111.023438 565.777344 113.160156 565.777344 115.300781 C 565.773438 119.792969 565.761719 124.289062 565.742188 128.78125 C 565.714844 134.511719 565.707031 140.238281 565.703125 145.964844 C 565.695312 151.457031 565.683594 156.945312 565.667969 162.4375 L 565.664062 165.566406 C 565.597656 196.382812 565.597656 196.382812 562.738281 204.128906 C 559.007812 204.175781 555.273438 204.207031 551.542969 204.230469 C 550.273438 204.238281 549.003906 204.25 547.738281 204.265625 C 545.910156 204.289062 544.085938 204.300781 542.261719 204.308594 L 538.933594 204.335938 C 536.1875 204.128906 536.1875 204.128906 533.4375 202.296875 C 533.09375 200.34375 533.09375 200.34375 533.089844 197.871094 L 533.066406 195.035156 L 533.085938 191.910156 L 533.070312 188.632812 C 533.0625 185.65625 533.0625 182.683594 533.070312 179.710938 C 533.078125 176.601562 533.070312 173.488281 533.066406 170.378906 C 533.0625 165.152344 533.066406 159.921875 533.082031 154.695312 C 533.097656 148.65625 533.089844 142.617188 533.074219 136.574219 C 533.0625 131.390625 533.0625 126.203125 533.070312 121.019531 C 533.074219 117.921875 533.074219 114.824219 533.066406 111.726562 C 533.058594 108.273438 533.070312 104.816406 533.082031 101.359375 L 533.066406 98.253906 L 533.089844 95.394531 L 533.09375 92.921875 C 533.519531 90.089844 534.53125 88.355469 536.1875 86.039062 C 540.265625 84 545.835938 84.914062 550.320312 84.894531 M 180.464844 85.003906 L 184.050781 85 L 185.921875 85.007812 C 187.808594 85.011719 189.699219 85.007812 191.582031 85 L 195.171875 85.003906 L 198.476562 85.007812 C 201.09375 85.125 201.09375 85.125 202.925781 86.039062 C 202.988281 101.167969 203.035156 116.292969 203.066406 131.421875 C 203.078125 138.445312 203.101562 145.464844 203.132812 152.488281 C 203.160156 158.609375 203.175781 164.730469 203.183594 170.847656 C 203.1875 174.089844 203.195312 177.332031 203.214844 180.574219 C 203.238281 184.1875 203.238281 187.804688 203.238281 191.417969 L 203.265625 194.691406 L 203.253906 197.664062 L 203.261719 200.257812 L 202.925781 202.296875 C 200.179688 204.128906 200.179688 204.128906 197.558594 204.351562 L 194.398438 204.339844 L 190.957031 204.335938 L 187.359375 204.300781 L 183.761719 204.300781 C 174.929688 204.257812 174.929688 204.257812 171.796875 203.214844 C 170.765625 200.542969 170.761719 197.929688 170.757812 195.089844 L 170.746094 192.371094 L 170.746094 189.40625 L 170.738281 186.269531 C 170.730469 182.84375 170.726562 179.417969 170.726562 175.988281 L 170.71875 168.847656 C 170.710938 163.855469 170.710938 158.863281 170.710938 153.867188 C 170.710938 148.105469 170.703125 142.34375 170.6875 136.582031 C 170.675781 131.027344 170.667969 125.476562 170.671875 119.921875 C 170.671875 117.566406 170.667969 115.207031 170.660156 112.847656 C 170.648438 109.550781 170.652344 106.25 170.660156 102.949219 C 170.652344 101.976562 170.648438 101.003906 170.640625 100 C 170.664062 95.011719 170.886719 90.714844 172.710938 86.039062 C 175.320312 84.734375 177.550781 85.007812 180.464844 85.003906 " fill-opacity="1" fill-rule="nonzero"/></g><g clip-path="url(#e60d2c8a12)"><path fill="#000000" d="M 103.988281 926.90625 L 107.492188 926.847656 C 115.691406 926.855469 115.691406 926.855469 118.816406 928.058594 C 122.140625 930.195312 124.1875 933.003906 126.019531 936.460938 C 127.011719 941.542969 127.023438 946.457031 126.917969 951.605469 L 126.875 954.082031 C 126.839844 955.800781 126.800781 957.519531 126.761719 959.234375 C 126.703125 961.867188 126.667969 964.5 126.628906 967.128906 L 126.519531 972.144531 L 126.492188 974.53125 L 126.429688 976.742188 L 126.390625 978.6875 C 126.019531 980.398438 126.019531 980.398438 124.734375 981.945312 C 123.269531 983.144531 123.269531 983.144531 121.441406 984.0625 C 115.304688 984.953125 109.203125 985.097656 103.015625 985.148438 L 100.664062 985.183594 C 95.691406 985.191406 91.347656 984.855469 86.648438 983.144531 C 85.09375 981.402344 85.09375 981.402344 83.902344 978.570312 C 83.503906 975.265625 83.519531 971.992188 83.539062 968.671875 L 83.527344 965.765625 C 83.527344 963.746094 83.53125 961.722656 83.542969 959.703125 C 83.558594 956.609375 83.542969 953.519531 83.527344 950.425781 C 83.527344 948.460938 83.53125 946.492188 83.539062 944.527344 L 83.519531 941.730469 C 83.558594 938.101562 83.640625 935.277344 85.011719 931.894531 C 90.308594 925.933594 96.566406 926.863281 103.988281 926.90625 M 465.476562 927.085938 C 467.390625 927.078125 469.304688 927.046875 471.222656 927.019531 C 472.445312 927.015625 473.667969 927.007812 474.894531 927.003906 L 478.253906 926.980469 C 481.253906 927.304688 481.253906 927.304688 483.765625 928.46875 C 485.902344 930.109375 487.152344 931.441406 488.578125 933.714844 C 488.917969 935.871094 488.917969 935.871094 488.917969 938.285156 L 488.9375 941.035156 L 488.910156 943.988281 L 488.910156 947.03125 C 488.910156 949.152344 488.898438 951.273438 488.886719 953.394531 C 488.863281 956.644531 488.867188 959.898438 488.871094 963.152344 C 488.867188 965.210938 488.863281 967.273438 488.851562 969.332031 L 488.855469 972.289062 L 488.828125 975.027344 L 488.816406 977.441406 C 488.578125 979.484375 488.578125 979.484375 486.746094 982.230469 C 482.980469 984.277344 479.265625 984.367188 475.074219 984.402344 L 473.03125 984.425781 C 471.613281 984.4375 470.191406 984.449219 468.773438 984.449219 C 466.609375 984.460938 464.449219 984.507812 462.285156 984.550781 C 460.902344 984.5625 459.519531 984.570312 458.136719 984.574219 L 456.1875 984.625 C 454.34375 984.609375 454.34375 984.609375 451.039062 984.0625 C 448.34375 982.382812 448.34375 982.382812 446.460938 979.484375 C 445.800781 976.058594 445.820312 972.699219 445.855469 969.21875 L 445.839844 966.199219 C 445.835938 964.09375 445.84375 961.988281 445.863281 959.886719 C 445.890625 956.671875 445.863281 953.457031 445.835938 950.242188 C 445.839844 948.195312 445.84375 946.148438 445.855469 944.101562 L 445.828125 941.195312 C 445.929688 934.726562 445.929688 934.726562 447.425781 931.882812 C 448.617188 930.375 448.617188 930.375 451.039062 928.222656 C 455.683594 926.671875 460.617188 927.097656 465.476562 927.085938 M 703.183594 926.820312 L 706.570312 926.804688 L 710.085938 926.847656 C 711.238281 926.835938 712.394531 926.820312 713.585938 926.804688 C 721.789062 926.839844 721.789062 926.839844 724.921875 928.089844 C 726.957031 929.417969 728.570312 931.082031 730.285156 932.796875 C 731.261719 935.644531 731.316406 938.324219 731.320312 941.316406 L 731.328125 944.222656 L 731.3125 947.332031 L 731.304688 950.515625 C 731.269531 957.582031 731.101562 964.644531 730.796875 971.703125 L 730.6875 974.285156 L 730.574219 976.652344 L 730.472656 978.71875 C 730.285156 980.398438 730.285156 980.398438 729.367188 982.230469 C 724.238281 984.160156 719.527344 984.316406 714.089844 984.234375 L 711.652344 984.214844 C 696.292969 984.023438 696.292969 984.023438 690.914062 982.230469 C 689.695312 980.355469 689.128906 978.90625 688.839844 976.6875 L 688.816406 974.667969 L 688.78125 972.363281 L 688.777344 969.890625 L 688.757812 967.316406 C 688.75 965.519531 688.742188 963.722656 688.742188 961.925781 C 688.738281 959.199219 688.707031 956.472656 688.671875 953.742188 C 688.667969 951.992188 688.664062 950.242188 688.660156 948.492188 L 688.621094 946.046875 C 688.65625 941.089844 689.4375 937.167969 691.664062 932.714844 C 694.632812 927.914062 697.71875 926.839844 703.183594 926.820312 M 176.429688 43.605469 L 179.839844 43.632812 L 181.660156 43.636719 C 182.929688 43.644531 184.199219 43.65625 185.46875 43.671875 C 187.414062 43.703125 189.359375 43.710938 191.304688 43.71875 C 200.792969 43.78125 200.792969 43.78125 202.925781 44.847656 L 202.925781 72.308594 C 198.882812 74.328125 193.421875 73.433594 188.929688 73.445312 C 186.910156 73.453125 184.890625 73.480469 182.871094 73.511719 C 181.59375 73.515625 180.3125 73.523438 179.035156 73.523438 L 175.496094 73.550781 L 172.710938 73.226562 C 170.878906 70.480469 170.878906 70.480469 170.628906 68.027344 C 170.601562 64.875 170.585938 61.726562 170.59375 58.578125 L 170.546875 55.246094 L 170.546875 52.054688 L 170.539062 49.132812 C 170.878906 46.679688 170.878906 46.679688 171.886719 44.988281 C 173.625 43.933594 173.625 43.933594 176.429688 43.605469 M 535.269531 43.933594 C 537.957031 43.695312 537.957031 43.695312 541.359375 43.6875 L 543.179688 43.683594 C 544.453125 43.683594 545.722656 43.683594 546.992188 43.691406 C 548.9375 43.703125 550.878906 43.691406 552.820312 43.683594 C 554.054688 43.683594 555.289062 43.683594 556.523438 43.6875 L 559.933594 43.695312 C 562.738281 43.933594 562.738281 43.933594 565.484375 45.761719 C 565.710938 48.007812 565.789062 50.257812 565.710938 52.515625 L 565.675781 54.492188 C 565.628906 56.464844 565.5625 58.4375 565.484375 60.410156 L 565.367188 63.757812 C 565.050781 69.261719 565.050781 69.261719 564.566406 71.394531 C 561.820312 73.226562 561.820312 73.226562 559.199219 73.460938 L 556.042969 73.46875 L 552.601562 73.476562 L 549.003906 73.453125 L 545.40625 73.476562 L 541.964844 73.46875 L 538.808594 73.460938 C 536.1875 73.226562 536.1875 73.226562 533.4375 71.394531 C 533.097656 68.863281 533.097656 68.863281 533.105469 65.671875 L 533.109375 62.210938 L 533.152344 58.578125 L 533.144531 54.945312 C 533.183594 48.355469 533.183594 48.355469 533.4375 45.761719 Z M 535.269531 43.933594 " fill-opacity="1" fill-rule="nonzero"/></g></svg>