<svg xmlns="http://www.w3.org/2000/svg" xmlns:xlink="http://www.w3.org/1999/xlink" width="1080" zoomAndPan="magnify" viewBox="0 0 810 239.999995" height="320" preserveAspectRatio="xMidYMid meet" version="1.0"><defs><clipPath id="34cd0b811c"><path d="M 18.671875 52 L 791.171875 52 L 791.171875 230.441406 L 18.671875 230.441406 Z M 18.671875 52 " clip-rule="nonzero"/></clipPath><clipPath id="1e0c3865f2"><path d="M 83 43 L 732 43 L 732 230.441406 L 83 230.441406 Z M 83 43 " clip-rule="nonzero"/></clipPath></defs><g clip-path="url(#34cd0b811c)"><path fill="#ffffff" d="M -303.320312 499.765625 L -301.109375 499.765625 L -298.546875 499.75 L -295.71875 499.765625 L -292.710938 499.757812 C -289.34375 499.75 -285.972656 499.757812 -282.605469 499.761719 L -275.304688 499.753906 C -269.976562 499.75 -264.648438 499.75 -259.320312 499.753906 C -251.339844 499.761719 -243.363281 499.757812 -235.386719 499.753906 C -221.792969 499.746094 -208.199219 499.746094 -194.605469 499.75 C -180.824219 499.753906 -167.042969 499.757812 -153.257812 499.753906 L -150.625 499.753906 L -140.003906 499.75 C -105.015625 499.742188 -70.03125 499.738281 -35.050781 499.746094 C 4.808594 499.746094 44.65625 499.75 84.496094 499.746094 L 151.753906 499.742188 L 154.847656 499.742188 C 205.628906 499.75 256.394531 499.753906 307.144531 499.753906 C 393.386719 499.769531 479.625 499.769531 565.859375 499.75 C 621.824219 499.753906 677.761719 499.753906 733.671875 499.746094 L 763.6875 499.75 C 794.496094 499.765625 825.3125 499.761719 856.140625 499.742188 L 859.101562 499.742188 C 895.539062 499.734375 931.976562 499.734375 968.410156 499.753906 L 971.035156 499.753906 C 984.785156 499.757812 998.535156 499.753906 1012.285156 499.75 C 1025.785156 499.746094 1039.28125 499.746094 1052.78125 499.753906 C 1060.710938 499.761719 1068.636719 499.757812 1076.566406 499.753906 C 1081.816406 499.75 1087.070312 499.75 1092.324219 499.757812 C 1095.308594 499.761719 1098.292969 499.761719 1101.28125 499.757812 C 1104.476562 499.75 1107.675781 499.757812 1110.875 499.761719 L 1113.699219 499.75 L 1116.261719 499.765625 L 1118.472656 499.765625 C 1120.351562 499.992188 1120.351562 499.992188 1123.097656 501.824219 C 1123.441406 504.332031 1123.441406 504.332031 1123.441406 507.605469 L 1123.453125 509.433594 C 1123.460938 511.480469 1123.449219 513.527344 1123.4375 515.570312 C 1123.441406 517.050781 1123.445312 518.53125 1123.449219 520.007812 C 1123.457031 524.105469 1123.453125 528.203125 1123.441406 532.300781 C 1123.429688 536.742188 1123.4375 541.1875 1123.445312 545.632812 C 1123.449219 553.433594 1123.449219 561.234375 1123.4375 569.035156 C 1123.425781 580.636719 1123.425781 592.234375 1123.429688 603.835938 C 1123.433594 623.347656 1123.429688 642.855469 1123.417969 662.367188 C 1123.402344 681.695312 1123.394531 701.023438 1123.394531 720.351562 L 1123.394531 738.605469 L 1123.390625 781.347656 C 1123.386719 811.535156 1123.371094 841.726562 1123.355469 871.914062 C 1123.320312 925.597656 1123.304688 979.289062 1123.316406 1033 C 1123.3125 1074.226562 1123.300781 1115.457031 1123.289062 1156.683594 C 1123.289062 1168.769531 1123.285156 1180.851562 1123.28125 1192.9375 C 1123.277344 1218.355469 1123.269531 1243.777344 1123.257812 1269.195312 C 1123.25 1279.710938 1123.246094 1290.230469 1123.246094 1300.746094 C 1123.246094 1309.460938 1123.242188 1318.175781 1123.234375 1326.886719 C 1123.230469 1331.28125 1123.226562 1335.671875 1123.230469 1340.0625 C 1123.230469 1344.050781 1123.230469 1348.039062 1123.222656 1352.027344 C 1123.21875 1353.46875 1123.21875 1354.910156 1123.222656 1356.351562 C 1123.222656 1358.292969 1123.222656 1360.238281 1123.214844 1362.179688 L 1123.214844 1365.453125 C 1123.097656 1367.960938 1123.097656 1367.960938 1122.183594 1369.789062 C 1114.085938 1371.238281 1105.738281 1370.839844 1097.539062 1370.832031 L 1092.464844 1370.839844 C 1087.808594 1370.847656 1083.152344 1370.851562 1078.496094 1370.851562 C 1073.429688 1370.851562 1068.363281 1370.859375 1063.300781 1370.863281 C 1054.410156 1370.875 1045.523438 1370.882812 1036.636719 1370.886719 C 1023.414062 1370.894531 1010.191406 1370.902344 996.964844 1370.917969 C 974.671875 1370.9375 952.378906 1370.957031 930.085938 1370.972656 C 907.886719 1370.988281 885.6875 1371.003906 863.488281 1371.023438 L 861.390625 1371.027344 L 795.203125 1371.082031 C 794.484375 1371.082031 793.769531 1371.082031 793.03125 1371.085938 C 758.105469 1371.113281 723.179688 1371.140625 688.253906 1371.167969 C 626.898438 1371.164062 565.503906 1371.214844 504.074219 1371.316406 C 445.222656 1371.492188 386.40625 1371.539062 327.621094 1371.460938 C 173.660156 1371.585938 173.660156 1371.585938 -6.980469 1371.636719 L -15.789062 1371.636719 C -53.398438 1371.640625 -91.007812 1371.636719 -128.613281 1371.574219 L -130.597656 1371.570312 C -151.910156 1371.535156 -173.226562 1371.476562 -194.542969 1371.394531 C -205.722656 1371.351562 -216.902344 1371.320312 -228.085938 1371.296875 C -237.199219 1371.277344 -246.3125 1371.25 -255.429688 1371.210938 C -260.722656 1371.1875 -266.015625 1371.171875 -271.308594 1371.164062 C -276.113281 1371.160156 -280.917969 1371.144531 -285.722656 1371.113281 C -287.46875 1371.105469 -289.214844 1371.101562 -290.960938 1371.105469 C -293.332031 1371.105469 -295.699219 1371.089844 -298.066406 1371.070312 L -300.160156 1371.085938 C -302.066406 1371.058594 -302.066406 1371.058594 -305.199219 1370.707031 C -306.746094 1369.632812 -306.746094 1369.632812 -307.945312 1367.960938 C -308.289062 1365.644531 -308.289062 1365.644531 -308.285156 1362.8125 L -308.304688 1359.539062 L -308.28125 1355.914062 C -308.28125 1354.632812 -308.285156 1353.351562 -308.289062 1352.070312 C -308.296875 1348.523438 -308.289062 1344.976562 -308.277344 1341.429688 C -308.265625 1337.578125 -308.273438 1333.726562 -308.277344 1329.875 C -308.277344 1323.113281 -308.273438 1316.355469 -308.261719 1309.59375 C -308.242188 1299.535156 -308.238281 1289.476562 -308.238281 1279.421875 C -308.238281 1262.480469 -308.230469 1245.542969 -308.207031 1228.601562 C -308.1875 1211.761719 -308.175781 1194.921875 -308.171875 1178.078125 L -308.171875 1174.902344 L -308.164062 1158.917969 C -308.15625 1121.101562 -308.132812 1083.285156 -308.101562 1045.46875 L -308.082031 1017.96875 L -308.078125 1014.527344 C -308.058594 987.199219 -308.042969 959.871094 -308.027344 932.542969 C -308.011719 906.890625 -308 881.238281 -307.988281 855.585938 L -307.988281 852.292969 L -307.972656 822.925781 C -307.964844 799.726562 -307.953125 776.53125 -307.933594 753.335938 C -307.921875 727.875 -307.90625 702.414062 -307.882812 676.953125 C -307.859375 629.867188 -307.917969 582.785156 -308.578125 535.703125 C -308.617188 533.085938 -308.652344 530.46875 -308.683594 527.851562 C -308.726562 524.796875 -308.773438 521.746094 -308.824219 518.691406 L -308.882812 514.730469 L -308.9375 511.363281 C -308.859375 508.078125 -308.640625 505.039062 -307.945312 501.824219 C -305.199219 499.992188 -305.199219 499.992188 -303.320312 499.765625 M 170.898438 855.238281 C 170.878906 859.394531 170.859375 863.546875 170.851562 867.703125 C 170.84375 869.117188 170.839844 870.535156 170.832031 871.949219 C 170.820312 873.976562 170.8125 876.007812 170.808594 878.039062 L 170.796875 879.964844 C 170.796875 881.488281 170.84375 883.011719 170.898438 884.535156 L 171.816406 885.449219 C 174.121094 885.53125 176.40625 885.554688 178.714844 885.539062 L 180.804688 885.535156 C 183.015625 885.53125 185.226562 885.519531 187.4375 885.507812 C 188.933594 885.503906 190.429688 885.5 191.925781 885.496094 C 195.597656 885.488281 199.273438 885.46875 202.945312 885.449219 L 202.945312 855.238281 L 187.953125 854.722656 L 183.222656 854.550781 C 181.988281 854.511719 180.753906 854.472656 179.519531 854.433594 L 177.570312 854.359375 C 174.121094 854.1875 174.121094 854.1875 170.898438 855.238281 M 532.550781 855.238281 C 532.53125 859.375 532.511719 863.515625 532.503906 867.652344 C 532.496094 869.0625 532.492188 870.46875 532.484375 871.878906 C 532.472656 873.902344 532.464844 875.925781 532.460938 877.949219 L 532.449219 879.859375 C 532.402344 883.226562 532.402344 883.226562 533.46875 886.367188 L 565.511719 886.367188 C 566.898438 883.597656 566.433594 880.773438 566.316406 877.746094 L 566.253906 875.722656 C 566.179688 873.585938 566.105469 871.449219 566.027344 869.3125 C 565.980469 867.867188 565.929688 866.417969 565.882812 864.972656 C 565.765625 861.421875 565.640625 857.871094 565.511719 854.320312 C 561.113281 854.296875 556.714844 854.28125 552.3125 854.269531 C 550.816406 854.265625 549.320312 854.257812 547.820312 854.253906 C 545.671875 854.242188 543.523438 854.234375 541.371094 854.230469 L 539.335938 854.21875 C 535.828125 854.152344 535.828125 854.152344 532.550781 855.238281 M 62.863281 863.476562 L 64.691406 865.308594 L 62.851562 866.789062 C 58.320312 870.613281 54.140625 874.277344 51.65625 879.738281 C 50.03125 886.648438 50.625 893.96875 50.960938 901.015625 L 53.578125 901.878906 C 58.15625 903.417969 58.15625 903.417969 60.117188 904.679688 C 60.761719 905.882812 61.371094 907.101562 61.945312 908.339844 L 62.957031 910.242188 C 64.605469 913.546875 65.960938 916.496094 65.78125 920.242188 C 65.175781 923.414062 63.78125 925.234375 61.71875 927.679688 C 57.429688 932.792969 55.464844 938.601562 53.707031 944.964844 L 53.011719 947.421875 C 50.949219 955.417969 50.597656 963.046875 50.691406 971.246094 C 50.695312 972.582031 50.699219 973.921875 50.703125 975.257812 C 50.714844 978.738281 50.738281 982.21875 50.769531 985.695312 C 50.800781 989.261719 50.8125 992.828125 50.824219 996.394531 C 50.855469 1003.359375 50.898438 1010.328125 50.960938 1017.292969 C 55.210938 1017.316406 59.464844 1017.332031 63.71875 1017.34375 C 65.164062 1017.347656 66.609375 1017.355469 68.058594 1017.363281 C 70.136719 1017.371094 72.21875 1017.378906 74.296875 1017.382812 L 76.253906 1017.398438 C 79.070312 1017.398438 81.226562 1017.273438 83.921875 1016.378906 L 83.921875 1003.558594 L 85.75 1003.558594 C 85.917969 1004.179688 86.085938 1004.796875 86.253906 1005.433594 L 86.953125 1007.910156 L 87.628906 1010.355469 C 88.859375 1013.75 88.859375 1013.75 91.246094 1016.378906 C 105.617188 1019.144531 124.644531 1019.1875 138.855469 1015.460938 C 142.539062 1013.535156 145.226562 1011.238281 148.011719 1008.136719 L 148.011719 1006.308594 L 150.757812 1005.390625 C 152.109375 1003.273438 153.261719 1001.203125 154.417969 998.980469 L 155.605469 997.003906 C 161.210938 987.132812 161.074219 975.453125 161.035156 964.375 L 161 960.300781 L 160.976562 956.039062 C 161.449219 933.222656 161.449219 933.222656 154.820312 911.773438 C 151.636719 906.824219 147.625 903.835938 142.515625 901.015625 C 130.175781 895.140625 116.851562 895.457031 103.433594 895.238281 L 100.8125 895.152344 C 98.484375 895.132812 96.292969 895.179688 93.992188 895.523438 C 91.1875 896.914062 91.1875 896.914062 89.414062 899.183594 C 88.109375 901.410156 88.109375 901.410156 87.296875 903.820312 L 86.390625 906.199219 C 85.621094 908.40625 85.621094 908.40625 85.75 911.085938 L 83.921875 911.085938 L 84.023438 909.023438 C 84.613281 895.152344 84.351562 883.402344 78.914062 870.511719 C 77.664062 867.507812 77.511719 866.554688 77.511719 863.476562 Z M 436.953125 862.761719 L 435.160156 862.816406 L 428.519531 863.019531 L 420.496094 863.265625 L 416.511719 863.386719 L 413.527344 863.476562 C 412.390625 893.089844 412.46875 922.714844 412.492188 952.34375 C 412.496094 957.855469 412.496094 963.363281 412.492188 968.871094 C 412.488281 974.242188 412.484375 979.609375 412.488281 984.980469 C 412.492188 988.160156 412.488281 991.34375 412.488281 994.527344 C 412.484375 998.035156 412.488281 1001.546875 412.492188 1005.054688 L 412.488281 1008.230469 L 412.496094 1011.097656 L 412.496094 1013.601562 L 412.613281 1015.460938 L 413.527344 1016.378906 C 415.96875 1016.460938 418.386719 1016.484375 420.828125 1016.46875 L 423.039062 1016.464844 C 425.382812 1016.457031 427.722656 1016.445312 430.066406 1016.4375 C 431.648438 1016.429688 433.234375 1016.425781 434.816406 1016.421875 C 438.707031 1016.414062 442.597656 1016.398438 446.488281 1016.378906 L 447.402344 1002.644531 L 449.90625 1010.066406 C 451.234375 1013.101562 452.332031 1014.980469 454.730469 1017.292969 C 457.4375 1017.726562 459.609375 1017.875 462.308594 1017.804688 L 464.554688 1017.800781 C 466.125 1017.789062 467.695312 1017.769531 469.265625 1017.738281 C 471.632812 1017.695312 474 1017.683594 476.367188 1017.679688 C 490.082031 1017.980469 490.082031 1017.980469 502.941406 1014.152344 C 508.121094 1010.683594 513.203125 1005.730469 516.414062 1000.355469 L 517.902344 997.152344 C 518.21875 996.476562 518.535156 995.804688 518.863281 995.109375 C 524.386719 982.515625 523.65625 969.410156 523.398438 955.949219 L 523.34375 952.46875 C 523.28125 948.820312 523.203125 945.175781 523.109375 941.53125 L 523.050781 938.066406 C 522.746094 927.933594 520.863281 919.398438 515.765625 910.578125 C 512.816406 906.25 509.152344 903.457031 504.628906 900.902344 C 494.230469 896.242188 483.621094 894.796875 472.347656 894.742188 C 470.207031 894.722656 468.070312 894.628906 465.929688 894.539062 C 462.007812 894.457031 458.554688 894.566406 454.730469 895.523438 C 451.855469 898.226562 450.515625 900.984375 449.234375 904.679688 L 448.320312 906.507812 L 447.402344 905.59375 C 447.273438 902.816406 447.1875 900.035156 447.148438 897.253906 L 447.09375 894.703125 C 447.042969 892 446.992188 889.296875 446.945312 886.59375 C 446.882812 883.050781 446.816406 879.507812 446.746094 875.964844 L 446.710938 873.496094 C 446.632812 869.746094 446.503906 866.222656 445.574219 862.5625 C 442.699219 862.5625 439.828125 862.671875 436.953125 862.761719 M 682.308594 897.066406 L 679.308594 897.742188 C 674.582031 898.949219 670.453125 900.3125 666.609375 903.386719 C 664.378906 905.605469 662.933594 908.054688 661.417969 910.800781 C 660.828125 911.84375 660.238281 912.886719 659.632812 913.960938 C 655.949219 921.398438 654.820312 928.648438 654.738281 936.878906 L 654.683594 939.757812 C 654.644531 941.757812 654.617188 943.753906 654.589844 945.753906 C 654.554688 948.773438 654.496094 951.789062 654.4375 954.808594 C 653.855469 973.890625 653.855469 973.890625 656.898438 992.628906 L 657.777344 995.925781 C 660.042969 1002.078125 663.820312 1005.964844 668.71875 1010.125 C 673.046875 1013.601562 676.460938 1015.492188 682 1016.457031 C 690.703125 1017.71875 699.460938 1017.566406 708.238281 1017.53125 C 711.203125 1017.523438 714.167969 1017.53125 717.136719 1017.542969 C 719.054688 1017.542969 720.96875 1017.542969 722.886719 1017.539062 L 725.527344 1017.546875 C 732.503906 1017.5 739.667969 1017.09375 746.054688 1014.089844 L 747.710938 1012.714844 L 747.710938 1010.886719 L 749.289062 1010.21875 C 751.800781 1008.816406 753.449219 1007.121094 755.4375 1005.046875 C 758.226562 1002.183594 761.039062 999.613281 764.191406 997.152344 C 765.613281 994.308594 765.25 991.300781 765.257812 988.183594 L 765.269531 985.949219 C 765.28125 983.5 765.289062 981.054688 765.292969 978.605469 L 765.308594 973.5 C 765.320312 969.925781 765.324219 966.351562 765.328125 962.777344 C 765.332031 958.210938 765.355469 953.644531 765.382812 949.074219 C 765.398438 945.558594 765.402344 942.039062 765.40625 938.515625 C 765.40625 936.835938 765.414062 935.152344 765.425781 933.46875 C 765.441406 931.105469 765.441406 928.742188 765.433594 926.378906 L 765.460938 924.296875 C 765.421875 919.28125 764.46875 914.753906 762.363281 910.171875 C 760.453125 908.199219 760.453125 908.199219 758.042969 907.09375 L 755.453125 905.722656 C 754.558594 905.28125 753.667969 904.84375 752.75 904.390625 L 750.128906 903.011719 C 744.910156 900.308594 739.632812 898.125 734.070312 896.230469 C 732.148438 895.523438 732.148438 895.523438 731.230469 894.605469 C 728.957031 894.457031 726.679688 894.363281 724.402344 894.324219 L 722.265625 894.28125 C 708.722656 894.066406 695.570312 894.058594 682.304688 897.066406 M 170.898438 895.523438 L 170.898438 1017.292969 L 202.945312 1017.292969 L 202.945312 896.4375 C 192.273438 895.902344 181.585938 895.523438 170.898438 895.523438 M 214.847656 895.523438 C 213.921875 898.292969 213.816406 900.144531 213.816406 903.042969 L 213.808594 906.039062 L 213.8125 909.324219 L 213.808594 912.785156 C 213.804688 915.917969 213.804688 919.046875 213.808594 922.183594 C 213.8125 925.457031 213.808594 928.730469 213.808594 932.007812 C 213.804688 937.503906 213.808594 943 213.8125 948.496094 C 213.816406 954.859375 213.816406 961.222656 213.8125 967.585938 C 213.808594 973.042969 213.804688 978.503906 213.808594 983.960938 C 213.808594 987.222656 213.808594 990.484375 213.808594 993.746094 C 213.804688 997.378906 213.808594 1001.011719 213.8125 1004.644531 L 213.808594 1007.941406 L 213.816406 1010.921875 L 213.816406 1013.527344 L 213.933594 1015.460938 L 214.847656 1016.378906 C 217.222656 1016.460938 219.570312 1016.484375 221.945312 1016.46875 L 224.097656 1016.464844 C 226.375 1016.457031 228.652344 1016.445312 230.929688 1016.4375 C 232.46875 1016.429688 234.007812 1016.425781 235.546875 1016.421875 C 239.328125 1016.414062 243.109375 1016.398438 246.894531 1016.378906 L 246.910156 1013.398438 C 246.960938 1004.117188 247.027344 994.835938 247.109375 985.554688 C 247.148438 980.78125 247.1875 976.011719 247.210938 971.238281 C 247.234375 966.632812 247.269531 962.027344 247.316406 957.417969 C 247.332031 955.664062 247.34375 953.90625 247.347656 952.152344 C 247.359375 949.691406 247.382812 947.226562 247.414062 944.761719 L 247.410156 942.574219 C 247.488281 937.847656 248.296875 934.496094 250.554688 930.3125 C 253.300781 928.484375 253.300781 928.484375 256.933594 928.105469 C 258.449219 928.03125 259.96875 927.964844 261.484375 927.910156 L 263.914062 927.804688 C 270.695312 927.53125 277.472656 927.507812 284.261719 927.601562 C 286.148438 927.621094 288.035156 927.597656 289.925781 927.566406 L 290.839844 926.652344 C 290.957031 924.5 291.011719 922.371094 291.027344 920.21875 L 291.042969 918.265625 C 291.050781 916.898438 291.054688 915.53125 291.058594 914.167969 C 291.070312 912.070312 291.097656 909.976562 291.128906 907.882812 C 291.132812 906.558594 291.136719 905.234375 291.140625 903.910156 L 291.175781 902.003906 C 291.199219 900.046875 291.199219 900.046875 290.839844 897.355469 C 288.3125 895.355469 288.3125 895.355469 285.726562 895.300781 L 282.90625 895.3125 L 279.792969 895.316406 L 276.535156 895.351562 L 273.339844 895.351562 C 267.515625 895.382812 261.808594 895.515625 256.046875 896.4375 C 252.480469 899.429688 251.097656 903.730469 249.394531 907.972656 C 248.546875 910.371094 248.546875 910.371094 248.722656 913.832031 L 246.894531 913.832031 L 246.925781 910.261719 L 246.949219 905.652344 L 246.972656 903.292969 L 246.984375 901.046875 L 246.996094 898.96875 L 246.894531 897.351562 L 245.976562 896.4375 C 244.6875 896.300781 243.394531 896.203125 242.101562 896.148438 L 239.660156 896.03125 L 237.050781 895.921875 L 234.417969 895.804688 C 227.890625 895.53125 221.382812 895.414062 214.847656 895.523438 M 308.230469 902.351562 C 303.023438 906.375 299.003906 911.394531 296.140625 917.300781 C 293.457031 924.832031 293.300781 931.859375 293.3125 939.796875 L 293.300781 943.628906 C 293.292969 946.296875 293.292969 948.96875 293.296875 951.636719 C 293.304688 955.027344 293.289062 958.414062 293.265625 961.804688 C 293.253906 964.441406 293.253906 967.078125 293.253906 969.714844 C 293.253906 971.5625 293.242188 973.410156 293.230469 975.257812 C 293.269531 983.363281 293.691406 991.515625 297.730469 998.730469 C 299.542969 1001.523438 301.382812 1003.863281 303.660156 1006.308594 C 305.625 1006.953125 305.625 1006.953125 307.320312 1007.222656 L 308.238281 1009.96875 C 311.683594 1012.855469 314.253906 1014.289062 318.683594 1015.160156 C 327.515625 1016.230469 336.167969 1016.625 345.058594 1016.558594 L 349.125 1016.550781 C 352.632812 1016.539062 356.144531 1016.527344 359.652344 1016.503906 C 363.257812 1016.484375 366.859375 1016.476562 370.464844 1016.46875 C 377.492188 1016.449219 384.523438 1016.417969 391.554688 1016.378906 C 391.578125 1012.09375 391.59375 1007.804688 391.605469 1003.519531 C 391.609375 1002.058594 391.613281 1000.601562 391.621094 999.140625 C 391.632812 997.046875 391.640625 994.957031 391.644531 992.863281 L 391.65625 990.875 C 391.65625 989.304688 391.609375 987.734375 391.554688 986.164062 L 390.636719 985.25 C 388.800781 985.140625 386.957031 985.09375 385.113281 985.074219 L 381.53125 985.027344 L 379.605469 985.011719 C 377.617188 984.992188 375.632812 984.96875 373.648438 984.941406 C 369.429688 984.886719 365.214844 984.835938 360.996094 984.789062 C 356.117188 984.738281 351.238281 984.679688 346.359375 984.613281 C 344.402344 984.59375 342.445312 984.570312 340.488281 984.550781 L 336.886719 984.507812 L 333.710938 984.472656 C 331.125 984.332031 331.125 984.332031 328.378906 983.417969 C 328.070312 981.929688 327.765625 980.441406 327.464844 978.953125 L 326.949219 976.445312 C 326.546875 974.261719 326.546875 974.261719 326.546875 972.429688 L 329.390625 972.4375 C 338.21875 972.457031 347.042969 972.46875 355.867188 972.476562 C 360.40625 972.484375 364.941406 972.488281 369.480469 972.5 C 373.855469 972.507812 378.230469 972.515625 382.605469 972.515625 C 384.277344 972.519531 385.953125 972.523438 387.625 972.527344 C 389.957031 972.53125 392.292969 972.535156 394.628906 972.535156 L 396.746094 972.542969 C 398.375 972.542969 400 972.492188 401.625 972.429688 L 402.539062 971.515625 C 402.636719 970.285156 402.667969 969.050781 402.671875 967.816406 L 402.691406 965.433594 L 402.695312 962.832031 L 402.703125 960.148438 C 402.707031 958.265625 402.710938 956.382812 402.710938 954.496094 C 402.710938 951.652344 402.730469 948.808594 402.746094 945.960938 C 403.0625 929.902344 403.0625 929.902344 399.222656 914.464844 C 396.242188 909.296875 392.234375 905.332031 387.191406 902.179688 C 375.339844 895.894531 364.007812 895.054688 350.855469 895.113281 C 348.25 895.121094 345.648438 895.09375 343.042969 895.066406 C 330.949219 895.019531 318.835938 895.828125 308.230469 902.351562 M 533.46875 895.523438 L 532.550781 896.4375 C 532.46875 897.988281 532.429688 899.542969 532.4375 901.09375 L 532.429688 904.152344 L 532.433594 907.539062 L 532.429688 911.078125 C 532.425781 914.292969 532.425781 917.503906 532.429688 920.71875 C 532.433594 924.078125 532.429688 927.433594 532.429688 930.789062 C 532.425781 936.425781 532.429688 942.0625 532.433594 947.699219 C 532.4375 954.226562 532.4375 960.753906 532.433594 967.28125 C 532.425781 972.875 532.425781 978.46875 532.429688 984.0625 C 532.429688 987.40625 532.429688 990.75 532.429688 994.097656 C 532.425781 997.824219 532.429688 1001.550781 532.433594 1005.277344 L 532.429688 1008.664062 L 532.4375 1011.722656 L 532.4375 1014.394531 L 532.550781 1016.378906 L 533.46875 1017.292969 C 535.832031 1017.386719 538.171875 1017.421875 540.535156 1017.414062 L 542.679688 1017.417969 C 544.179688 1017.417969 545.679688 1017.417969 547.179688 1017.414062 C 549.480469 1017.410156 551.785156 1017.414062 554.085938 1017.417969 C 555.539062 1017.417969 556.992188 1017.417969 558.445312 1017.414062 L 560.546875 1017.421875 C 562.203125 1017.414062 563.859375 1017.359375 565.511719 1017.292969 L 566.429688 1016.378906 C 566.503906 1014.8125 566.519531 1013.246094 566.503906 1011.679688 L 566.484375 1008.59375 L 566.449219 1005.179688 L 566.421875 1001.605469 C 566.398438 998.367188 566.367188 995.125 566.335938 991.882812 C 566.304688 988.496094 566.28125 985.109375 566.253906 981.726562 C 566.199219 975.3125 566.144531 968.898438 566.085938 962.484375 C 566.023438 955.183594 565.960938 947.882812 565.902344 940.585938 C 565.777344 925.5625 565.648438 910.542969 565.511719 895.523438 C 560.964844 895.5 556.417969 895.484375 551.871094 895.472656 C 550.324219 895.46875 548.777344 895.460938 547.226562 895.453125 C 545.007812 895.441406 542.789062 895.4375 540.566406 895.433594 L 538.457031 895.417969 C 536.792969 895.417969 535.128906 895.464844 533.46875 895.523438 M 577.414062 895.523438 L 576.5 896.4375 C 576.417969 897.976562 576.378906 899.519531 576.382812 901.058594 L 576.375 904.09375 L 576.382812 907.453125 L 576.375 910.96875 C 576.371094 914.15625 576.371094 917.347656 576.375 920.535156 C 576.378906 923.867188 576.375 927.195312 576.375 930.527344 C 576.375 936.121094 576.375 941.714844 576.382812 947.308594 C 576.386719 953.785156 576.386719 960.261719 576.378906 966.738281 C 576.375 972.289062 576.375 977.839844 576.375 983.390625 C 576.378906 986.710938 576.378906 990.03125 576.375 993.351562 C 576.375 997.050781 576.375 1000.75 576.382812 1004.445312 L 576.375 1007.804688 L 576.382812 1010.839844 L 576.386719 1013.492188 L 576.5 1015.460938 L 577.414062 1016.378906 C 579.789062 1016.460938 582.140625 1016.484375 584.515625 1016.46875 L 586.667969 1016.464844 C 588.941406 1016.457031 591.21875 1016.445312 593.496094 1016.4375 C 595.035156 1016.429688 596.574219 1016.425781 598.113281 1016.421875 C 601.898438 1016.414062 605.679688 1016.398438 609.460938 1016.378906 L 609.476562 1013.355469 C 609.53125 1003.953125 609.597656 994.550781 609.675781 985.148438 C 609.71875 980.3125 609.753906 975.480469 609.777344 970.644531 C 609.800781 965.980469 609.835938 961.3125 609.886719 956.648438 C 609.898438 954.867188 609.910156 953.089844 609.917969 951.308594 C 609.925781 948.816406 609.949219 946.320312 609.980469 943.828125 L 609.976562 941.605469 C 610.035156 938.199219 610.34375 935.894531 611.601562 932.675781 C 613.125 930.3125 613.125 930.3125 615.871094 928.484375 C 617.867188 928.191406 617.867188 928.191406 620.199219 928.105469 L 622.8125 927.996094 L 625.597656 927.910156 L 628.4375 927.804688 C 634.941406 927.578125 641.4375 927.492188 647.945312 927.601562 C 649.460938 927.621094 650.976562 927.597656 652.492188 927.566406 L 653.410156 926.652344 C 653.5 924.886719 653.527344 923.117188 653.53125 921.347656 L 653.535156 918.050781 L 653.523438 914.578125 L 653.535156 911.15625 L 653.53125 907.84375 L 653.527344 904.808594 C 653.410156 901.949219 653.023438 899.25 652.492188 896.4375 C 647.542969 894.789062 642.074219 895.242188 636.882812 895.203125 C 635.464844 895.1875 634.050781 895.160156 632.636719 895.125 C 630.589844 895.082031 628.539062 895.054688 626.492188 895.042969 L 624.585938 894.980469 C 622.53125 894.941406 622.53125 894.941406 619.53125 895.523438 C 616.894531 897.6875 615.296875 899.453125 613.707031 902.453125 L 612.835938 904.792969 L 611.933594 907.144531 C 611.160156 909.328125 611.160156 909.328125 611.292969 912.003906 L 609.460938 912.003906 L 609.460938 895.523438 C 604.914062 895.5 600.367188 895.484375 595.820312 895.472656 C 594.273438 895.46875 592.722656 895.460938 591.175781 895.453125 C 588.957031 895.445312 586.734375 895.4375 584.515625 895.433594 L 582.40625 895.417969 C 580.742188 895.417969 579.078125 895.464844 577.414062 895.523438 M 67.839844 52.105469 L 70.117188 52.070312 L 72.359375 52.066406 L 74.359375 52.054688 C 76.597656 52.277344 76.597656 52.277344 83.003906 54.109375 L 83.003906 104.464844 L 85.75 104.464844 L 85.867188 101.890625 C 86.65625 96.675781 88.988281 92.152344 92.160156 87.984375 C 94.035156 86.527344 95.40625 86.023438 97.71875 85.503906 C 111.433594 84.148438 126.097656 84.828125 139.113281 89.585938 C 144.910156 92.253906 149.238281 95.960938 152.933594 101.144531 C 157.128906 107.996094 158.742188 115.09375 159.089844 123.078125 C 159.132812 125.417969 159.148438 127.753906 159.152344 130.09375 L 159.160156 132.714844 C 159.164062 134.542969 159.167969 136.367188 159.167969 138.195312 C 159.167969 140.933594 159.183594 143.671875 159.203125 146.410156 C 159.226562 154.757812 159.09375 163.023438 158.191406 171.332031 L 157.980469 173.3125 C 157.25 179.234375 155.679688 184.5 152.589844 189.613281 C 149.25 193.949219 145.285156 197.605469 140.261719 199.863281 C 134.75 201.613281 128.988281 202.453125 123.289062 203.347656 L 120.269531 203.867188 C 115.734375 204.394531 111.253906 204.429688 106.695312 204.433594 L 103.988281 204.46875 L 101.367188 204.472656 L 99.003906 204.484375 C 96.40625 204.230469 94.492188 203.597656 92.160156 202.429688 C 90.542969 200.042969 90.542969 200.042969 89.183594 197.167969 L 87.796875 194.320312 C 86.6875 191.5 86.128906 188.949219 85.75 185.949219 L 83.003906 185.949219 L 83.035156 187.695312 C 83.089844 192.707031 82.824219 197.472656 82.089844 202.429688 C 75.90625 204.023438 70.261719 204.546875 63.890625 204.492188 L 61.296875 204.511719 L 58.804688 204.507812 L 56.566406 204.5 C 54.621094 204.261719 54.621094 204.261719 51.875 202.429688 C 51.53125 199.910156 51.53125 199.910156 51.53125 196.625 L 51.523438 194.804688 C 51.511719 192.773438 51.523438 190.75 51.535156 188.71875 C 51.53125 187.273438 51.527344 185.820312 51.523438 184.371094 C 51.515625 180.429688 51.523438 176.484375 51.535156 172.539062 C 51.546875 168.417969 51.542969 164.296875 51.542969 160.175781 C 51.542969 153.257812 51.550781 146.335938 51.566406 139.414062 C 51.585938 131.402344 51.589844 123.394531 51.585938 115.382812 C 51.582031 107.6875 51.582031 99.992188 51.59375 92.300781 C 51.597656 89.019531 51.601562 85.742188 51.597656 82.460938 C 51.597656 78.601562 51.601562 74.742188 51.617188 70.882812 C 51.621094 69.460938 51.621094 68.042969 51.621094 66.625 C 51.617188 64.691406 51.625 62.757812 51.636719 60.828125 L 51.644531 57.546875 L 51.875 55.023438 L 53.707031 53.191406 C 58.375 52.0625 63.066406 52.109375 67.839844 52.105469 M 87.582031 115.453125 C 85.328125 117.09375 85.328125 117.09375 83.921875 119.113281 C 82.703125 122.761719 82.660156 126.347656 82.492188 130.160156 L 82.375 132.6875 C 82.089844 139.71875 81.960938 146.75 81.917969 153.792969 L 81.882812 156.839844 C 81.863281 164.265625 81.863281 164.265625 83.921875 171.300781 C 85.796875 173.414062 85.796875 173.414062 88.5 174.964844 C 91.121094 175.3125 93.378906 175.457031 95.996094 175.417969 L 98.160156 175.421875 C 99.664062 175.421875 101.167969 175.410156 102.675781 175.390625 C 104.96875 175.371094 107.265625 175.367188 109.5625 175.382812 C 111.03125 175.378906 112.496094 175.371094 113.964844 175.363281 L 116.03125 175.367188 C 119.078125 175.3125 121.324219 175.027344 124.101562 173.738281 C 126.242188 172.21875 126.242188 172.21875 127.867188 169.46875 C 128.164062 167.273438 128.164062 167.273438 128.148438 164.792969 L 128.191406 161.902344 L 128.207031 158.78125 C 128.21875 157.71875 128.222656 156.660156 128.234375 155.566406 C 128.246094 153.324219 128.253906 151.078125 128.257812 148.832031 C 128.269531 145.402344 128.3125 141.972656 128.359375 138.542969 C 128.367188 136.363281 128.375 134.179688 128.378906 132 L 128.433594 128.894531 C 128.46875 123.832031 128.46875 123.832031 126.945312 119.082031 C 125.363281 117.046875 123.710938 115.65625 121.398438 114.523438 C 115.886719 113.597656 110.507812 113.347656 104.921875 113.390625 L 102.308594 113.371094 C 97.089844 113.382812 92.566406 113.863281 87.582031 115.453125 M 430.523438 52.105469 L 432.8125 52.070312 L 435.046875 52.066406 L 437.046875 52.054688 C 439.164062 52.277344 439.164062 52.277344 444.65625 54.109375 L 445.574219 102.632812 L 447.402344 102.632812 L 448.246094 100.160156 L 449.40625 96.910156 L 450.535156 93.691406 C 451.980469 90.730469 451.980469 90.730469 454.214844 88.585938 C 458.617188 85.738281 462.863281 85.359375 468.042969 85.035156 C 480.160156 84.757812 494.234375 85.804688 505.085938 91.648438 C 510.132812 95.191406 514.097656 99.039062 516.988281 104.523438 C 520.96875 113.605469 521.714844 122.984375 521.6875 132.804688 L 521.691406 135.085938 C 521.691406 136.667969 521.6875 138.25 521.683594 139.832031 C 521.679688 142.214844 521.683594 144.59375 521.691406 146.980469 C 521.703125 170.644531 521.703125 170.644531 518.648438 179.828125 L 518.035156 181.703125 C 516.328125 186.628906 514.402344 190.621094 510.578125 194.191406 C 503.84375 199.828125 496.636719 201.871094 488.132812 203.40625 C 482.179688 204.378906 476.371094 204.503906 470.351562 204.433594 L 467.308594 204.433594 C 458.480469 204.382812 458.480469 204.382812 454.730469 203.347656 C 450.410156 198.488281 448.667969 191.976562 446.488281 185.949219 L 445.574219 185.949219 L 445.46875 189.492188 C 445.410156 191.019531 445.347656 192.550781 445.285156 194.078125 L 445.222656 196.410156 L 445.125 198.648438 L 445.054688 200.710938 L 444.65625 202.429688 C 441.910156 204.261719 441.910156 204.261719 439.375 204.5 L 436.332031 204.507812 L 433.015625 204.511719 L 429.550781 204.492188 L 426.085938 204.511719 L 422.769531 204.507812 L 419.726562 204.5 C 417.191406 204.261719 417.191406 204.261719 414.441406 202.429688 C 414.078125 200.507812 414.078125 200.507812 414.046875 198.066406 L 413.992188 195.253906 L 413.972656 192.132812 L 413.925781 188.8125 C 413.882812 185.753906 413.851562 182.699219 413.828125 179.644531 C 413.808594 177.058594 413.777344 174.472656 413.746094 171.890625 C 413.46875 148.320312 413.4375 124.753906 413.414062 101.183594 L 413.40625 92.828125 C 413.402344 88.40625 413.398438 83.984375 413.402344 79.5625 C 413.40625 77.921875 413.40625 76.285156 413.402344 74.644531 C 413.402344 72.382812 413.402344 70.125 413.410156 67.863281 L 413.402344 65.882812 C 413.421875 61.882812 413.730469 58.046875 414.441406 54.109375 L 415.359375 53.191406 C 420.421875 52.253906 425.382812 52.109375 430.523438 52.105469 M 450.277344 115.824219 C 448.175781 117.390625 446.902344 118.683594 445.574219 120.945312 C 444.296875 125.457031 444.492188 130.105469 444.472656 134.757812 L 444.457031 137.464844 C 444.445312 139.347656 444.441406 141.234375 444.4375 143.121094 C 444.429688 145.992188 444.398438 148.867188 444.371094 151.738281 C 444.367188 153.574219 444.359375 155.410156 444.355469 157.246094 L 444.320312 159.832031 C 444.339844 164.953125 444.808594 168.664062 447.402344 173.132812 C 448.898438 174.578125 448.898438 174.578125 451.066406 174.964844 C 453.554688 175.171875 455.949219 175.285156 458.441406 175.304688 C 459.15625 175.3125 459.867188 175.320312 460.601562 175.328125 C 462.109375 175.34375 463.617188 175.351562 465.121094 175.355469 C 467.417969 175.363281 469.710938 175.410156 472.007812 175.457031 C 473.472656 175.464844 474.941406 175.472656 476.410156 175.476562 L 478.472656 175.53125 C 480.71875 175.558594 480.71875 175.558594 484.027344 174.964844 C 486.25 173.640625 487.679688 172.261719 489.519531 170.386719 C 490.621094 168.1875 490.5625 166.789062 490.582031 164.332031 L 490.609375 161.671875 L 490.621094 158.789062 L 490.636719 155.824219 C 490.644531 153.75 490.652344 151.675781 490.65625 149.601562 C 490.664062 146.4375 490.691406 143.277344 490.722656 140.113281 C 490.726562 138.097656 490.734375 136.082031 490.738281 134.066406 L 490.769531 131.210938 C 490.757812 127.300781 490.703125 123.707031 489.328125 120.011719 C 487.859375 117.246094 487.859375 117.246094 485.660156 115.53125 C 482.472656 114.285156 479.585938 114.140625 476.214844 114.171875 L 474.238281 114.164062 C 472.859375 114.160156 471.484375 114.167969 470.109375 114.179688 C 468.011719 114.191406 465.914062 114.179688 463.816406 114.160156 C 462.476562 114.164062 461.132812 114.167969 459.792969 114.171875 L 457.90625 114.15625 C 454.949219 114.199219 452.945312 114.511719 450.277344 115.824219 M 341.175781 85.179688 C 355.492188 84.785156 370.875 84.988281 384.230469 90.730469 C 389.394531 93.675781 393.636719 97.769531 397.046875 102.632812 C 401.023438 110.300781 401.90625 118.085938 401.867188 126.601562 L 401.875 129.195312 C 401.875 130.988281 401.871094 132.78125 401.863281 134.574219 C 401.855469 137.324219 401.863281 140.070312 401.875 142.820312 C 401.875 144.566406 401.871094 146.3125 401.867188 148.0625 L 401.878906 150.550781 L 401.863281 152.859375 C 401.863281 153.527344 401.859375 154.195312 401.859375 154.882812 C 401.625 156.652344 401.625 156.652344 399.792969 159.398438 C 397.355469 159.660156 395.132812 159.746094 392.695312 159.710938 L 390.472656 159.710938 C 388.046875 159.707031 385.621094 159.691406 383.191406 159.667969 C 381.511719 159.660156 379.832031 159.65625 378.148438 159.65625 C 373.722656 159.644531 369.292969 159.617188 364.863281 159.589844 C 360.347656 159.558594 355.832031 159.546875 351.3125 159.53125 C 342.449219 159.503906 333.582031 159.457031 324.71875 159.398438 C 324.851562 160.867188 324.992188 162.335938 325.132812 163.800781 L 325.363281 166.277344 C 325.671875 168.898438 326.023438 170.898438 327.464844 173.132812 C 330.917969 174.097656 334.28125 174.1875 337.855469 174.234375 L 341.355469 174.292969 L 345.105469 174.335938 L 348.964844 174.394531 C 352.34375 174.445312 355.71875 174.492188 359.09375 174.535156 C 362.542969 174.582031 365.992188 174.632812 369.441406 174.683594 C 376.203125 174.78125 382.960938 174.875 389.722656 174.964844 C 391.589844 178.695312 390.808594 183.507812 390.808594 187.609375 L 390.84375 190.644531 L 390.847656 193.578125 L 390.859375 196.261719 C 390.621094 198.988281 390.089844 200.929688 388.808594 203.347656 C 386.058594 204.261719 384.214844 204.382812 381.34375 204.394531 L 378.421875 204.414062 L 375.257812 204.417969 L 371.984375 204.425781 C 369.6875 204.429688 367.390625 204.433594 365.09375 204.433594 C 361.621094 204.433594 358.148438 204.449219 354.675781 204.46875 C 323.710938 204.542969 323.710938 204.542969 311.898438 198.769531 C 307.21875 196.027344 303.410156 192.589844 300.285156 188.148438 C 294.976562 178.472656 294.429688 167.554688 294.179688 156.777344 L 294.117188 154.242188 C 294.074219 152.484375 294.03125 150.726562 293.992188 148.96875 C 293.929688 146.3125 293.859375 143.652344 293.789062 140.996094 C 293.152344 115.53125 293.152344 115.53125 299.082031 103.550781 C 302.199219 98.367188 306.019531 94.164062 311.191406 90.988281 C 320.542969 86.667969 330.996094 85.5 341.175781 85.179688 M 328.433594 116.664062 C 326.164062 119.613281 325.359375 121.863281 324.71875 125.523438 C 324.980469 127.359375 325.277344 129.195312 325.632812 131.015625 C 331.726562 131.039062 337.824219 131.054688 343.917969 131.066406 C 345.992188 131.070312 348.066406 131.078125 350.140625 131.085938 C 353.117188 131.097656 356.09375 131.101562 359.070312 131.105469 L 361.898438 131.121094 L 364.507812 131.121094 L 366.808594 131.125 C 368.730469 131.136719 368.730469 131.136719 370.496094 130.101562 C 370.460938 128.191406 370.40625 126.285156 370.324219 124.378906 L 370.226562 121.160156 L 369.578125 118.199219 C 367.753906 116.0625 367.753906 116.0625 365.003906 114.535156 C 362.316406 114.167969 359.984375 114 357.304688 114.019531 L 355.078125 114 C 353.53125 113.992188 351.984375 113.996094 350.433594 114.007812 C 348.070312 114.019531 345.710938 113.992188 343.347656 113.953125 C 341.839844 113.953125 340.332031 113.957031 338.820312 113.960938 L 336.691406 113.921875 C 333.042969 113.988281 331.328125 114.375 328.433594 116.664062 M 737.640625 87.984375 L 740.515625 88.554688 C 745.464844 89.773438 749.28125 91.957031 753.167969 95.25 C 757.117188 99.246094 759.691406 103.585938 761.355469 108.960938 C 763.0625 116.121094 763.671875 122.808594 763.609375 130.160156 L 763.613281 133.46875 C 763.609375 135.761719 763.601562 138.054688 763.585938 140.347656 C 763.5625 143.824219 763.566406 147.304688 763.570312 150.78125 C 763.566406 153.023438 763.5625 155.265625 763.554688 157.511719 L 763.554688 160.609375 C 763.476562 169.65625 763.070312 178.601562 758.984375 186.808594 C 755.667969 192.335938 751.769531 195.832031 746.167969 198.941406 C 735.046875 204.132812 722.777344 204.480469 710.746094 204.492188 L 708.757812 204.492188 C 683.585938 204.457031 683.585938 204.457031 672.699219 198.183594 L 670.804688 196.9375 L 669.023438 195.808594 C 664.625 192.570312 662.300781 188.363281 660.019531 183.472656 C 658.210938 178.589844 657.59375 173.710938 657.070312 168.554688 L 656.609375 165.296875 C 655.707031 158.074219 655.878906 150.757812 655.835938 143.488281 C 655.820312 141.597656 655.792969 139.703125 655.757812 137.8125 C 655.542969 125.964844 655.867188 115.445312 660.734375 104.464844 C 663.671875 99.386719 666.75 94.964844 671.664062 91.648438 C 690.890625 81.34375 717.019531 83.789062 737.640625 87.984375 M 692.03125 115.585938 C 689.933594 117.230469 689.933594 117.230469 688.394531 119.550781 C 686.824219 124.121094 686.890625 128.367188 686.921875 133.167969 L 686.910156 136.1875 C 686.910156 138.292969 686.914062 140.394531 686.925781 142.496094 C 686.941406 145.714844 686.925781 148.929688 686.910156 152.148438 C 686.910156 154.195312 686.914062 156.242188 686.921875 158.285156 L 686.902344 161.199219 C 686.941406 164.964844 687 167.867188 688.453125 171.371094 C 689.933594 173.136719 689.933594 173.136719 691.582031 174.316406 C 694.667969 175.261719 697.703125 175.242188 700.898438 175.238281 L 703.007812 175.25 C 704.476562 175.257812 705.941406 175.257812 707.410156 175.253906 C 709.648438 175.25 711.886719 175.273438 714.125 175.292969 C 715.554688 175.296875 716.980469 175.296875 718.410156 175.296875 L 720.429688 175.320312 C 723.429688 175.292969 725.589844 175.035156 728.3125 173.742188 L 730.316406 172.21875 L 731.957031 171.046875 C 733.285156 169.417969 733.285156 169.417969 733.390625 166.773438 L 733.363281 163.46875 L 733.359375 161.667969 C 733.347656 159.726562 733.328125 157.789062 733.292969 155.851562 C 733.277344 154.519531 733.265625 153.1875 733.253906 151.855469 C 733.21875 148.5625 733.164062 145.273438 733.097656 141.980469 C 733.066406 140.320312 733.042969 138.660156 733.019531 136.996094 C 732.980469 134.355469 732.917969 131.710938 732.835938 129.070312 L 732.796875 126.777344 C 732.636719 123.050781 732.234375 121.105469 730.386719 117.746094 C 728.710938 115.410156 728.710938 115.410156 726.65625 114.535156 C 724.3125 114.425781 721.96875 114.363281 719.625 114.351562 L 717.511719 114.335938 C 716.035156 114.324219 714.554688 114.320312 713.078125 114.316406 C 710.820312 114.304688 708.566406 114.28125 706.3125 114.25 C 704.875 114.246094 703.4375 114.238281 702 114.234375 L 699.964844 114.199219 C 697.042969 114.214844 694.746094 114.480469 692.03125 115.585938 M 578.332031 85.238281 C 580.40625 85.144531 582.488281 85.117188 584.566406 85.117188 L 586.457031 85.113281 C 587.78125 85.113281 589.101562 85.113281 590.425781 85.117188 C 592.453125 85.125 594.480469 85.117188 596.507812 85.113281 C 597.792969 85.113281 599.074219 85.113281 600.359375 85.117188 L 603.914062 85.121094 C 606.714844 85.238281 606.714844 85.238281 608.546875 86.152344 L 609.460938 104.464844 C 611.378906 99.992188 613.117188 95.609375 614.71875 91.035156 C 616.222656 88.242188 617.808594 86.996094 620.449219 85.238281 C 623.25 84.792969 623.25 84.792969 626.34375 84.816406 L 629.738281 84.824219 L 633.265625 84.894531 L 636.792969 84.898438 C 646.910156 84.996094 646.910156 84.996094 650.660156 87.070312 C 651.996094 88.980469 652.445312 90.335938 652.730469 92.640625 L 652.738281 94.667969 L 652.742188 96.925781 L 652.722656 99.257812 L 652.742188 101.558594 L 652.738281 103.824219 L 652.730469 105.859375 C 652.414062 108.875 651.550781 111.644531 650.660156 114.535156 L 647.625 114.589844 C 643.898438 114.660156 640.167969 114.742188 636.441406 114.828125 C 634.828125 114.863281 633.21875 114.894531 631.605469 114.921875 C 629.285156 114.964844 626.964844 115.019531 624.644531 115.074219 L 622.46875 115.105469 C 619.628906 115.179688 616.949219 115.414062 614.175781 116.046875 C 612.050781 117.214844 612.050781 117.214844 610.578125 119.488281 C 609.007812 124.105469 609.019531 128.414062 608.992188 133.257812 L 608.941406 136.382812 C 608.894531 139.6875 608.859375 142.992188 608.832031 146.292969 C 608.800781 148.441406 608.769531 150.589844 608.738281 152.738281 C 608.613281 161.535156 608.519531 170.328125 608.59375 179.125 L 608.617188 182.515625 C 608.632812 184.644531 608.660156 186.773438 608.691406 188.902344 C 608.730469 194.066406 608.640625 198.515625 606.714844 203.347656 C 602.640625 205.382812 597.054688 204.433594 592.582031 204.433594 L 589.101562 204.46875 L 585.773438 204.472656 L 582.714844 204.484375 C 580.164062 204.261719 580.164062 204.261719 577.414062 202.429688 C 577.074219 200.390625 577.074219 200.390625 577.078125 197.804688 L 577.0625 194.835938 L 577.089844 191.5625 L 577.082031 188.132812 C 577.082031 185.019531 577.089844 181.90625 577.105469 178.796875 C 577.121094 175.546875 577.121094 172.292969 577.121094 169.042969 C 577.125 163.582031 577.136719 158.125 577.15625 152.664062 C 577.183594 145.648438 577.195312 138.632812 577.199219 131.617188 C 577.203125 125.59375 577.214844 119.574219 577.226562 113.550781 C 577.230469 111.609375 577.234375 109.667969 577.234375 107.726562 C 577.242188 104.121094 577.253906 100.511719 577.269531 96.902344 L 577.269531 93.625 L 577.289062 90.664062 L 577.296875 88.078125 L 577.414062 86.152344 Z M 215.761719 85.238281 C 217.839844 85.144531 219.917969 85.117188 221.996094 85.117188 L 223.890625 85.113281 C 225.210938 85.113281 226.535156 85.113281 227.859375 85.117188 C 229.886719 85.125 231.914062 85.117188 233.941406 85.113281 C 235.222656 85.113281 236.507812 85.113281 237.792969 85.117188 L 241.347656 85.121094 C 244.144531 85.238281 244.144531 85.238281 245.976562 86.152344 L 246.894531 103.550781 L 248.722656 104.464844 L 249.355469 100.917969 C 250.460938 96 252.140625 91.160156 255.132812 87.070312 C 258.625 85.308594 261.523438 85.003906 265.40625 84.996094 L 268.675781 84.988281 L 272.070312 85.007812 L 275.464844 84.988281 L 278.738281 84.996094 L 281.714844 85 C 284.5 85.242188 286.5 85.859375 289.007812 87.070312 L 289.925781 87.984375 C 290.015625 89.871094 290.042969 91.761719 290.046875 93.648438 L 290.050781 97.132812 L 290.042969 98.957031 C 290.039062 100.796875 290.042969 102.632812 290.050781 104.472656 L 290.046875 107.957031 L 290.042969 111.179688 L 289.925781 113.621094 L 289.007812 114.535156 C 286.5 114.636719 284.011719 114.683594 281.5 114.695312 L 276.828125 114.761719 C 274.367188 114.796875 271.90625 114.820312 269.445312 114.835938 C 267.074219 114.847656 264.703125 114.886719 262.332031 114.925781 L 260.121094 114.921875 C 256.519531 115 254.378906 115.371094 251.078125 116.972656 C 248.613281 118.921875 248.613281 118.921875 247.675781 121.515625 C 246.757812 125.136719 246.640625 128.542969 246.660156 132.246094 L 246.648438 134.507812 C 246.644531 136.121094 246.640625 137.734375 246.640625 139.347656 C 246.640625 141.898438 246.632812 144.449219 246.613281 147 C 246.574219 154.25 246.550781 161.5 246.542969 168.75 C 246.539062 173.191406 246.519531 177.632812 246.484375 182.074219 C 246.476562 183.765625 246.472656 185.457031 246.476562 187.152344 C 246.484375 189.511719 246.46875 191.871094 246.449219 194.230469 L 246.472656 196.355469 C 246.441406 198.304688 246.441406 198.304688 245.976562 201.515625 C 244.277344 203.324219 244.277344 203.324219 242.316406 204.261719 C 239.757812 204.589844 239.757812 204.589844 236.847656 204.5625 L 233.664062 204.550781 L 230.355469 204.492188 L 227.035156 204.476562 C 218.933594 204.402344 218.933594 204.402344 215.761719 203.347656 C 214.613281 201.050781 214.730469 199.492188 214.730469 196.921875 L 214.722656 193.976562 L 214.730469 190.730469 L 214.722656 187.328125 C 214.722656 184.238281 214.722656 181.152344 214.722656 178.066406 C 214.726562 174.839844 214.722656 171.613281 214.722656 168.386719 C 214.722656 162.972656 214.722656 157.554688 214.730469 152.140625 C 214.734375 145.871094 214.730469 139.597656 214.726562 133.328125 C 214.722656 127.953125 214.722656 122.578125 214.722656 117.203125 C 214.726562 113.988281 214.726562 110.773438 214.722656 107.558594 C 214.71875 103.980469 214.722656 100.398438 214.730469 96.820312 L 214.722656 93.570312 L 214.730469 90.628906 L 214.730469 88.0625 L 214.847656 86.152344 Z M 550.347656 85.007812 L 553.828125 84.953125 L 557.15625 84.9375 L 560.214844 84.910156 C 562.765625 85.238281 562.765625 85.238281 564.277344 86.386719 C 565.511719 87.984375 565.511719 87.984375 565.851562 89.800781 C 565.851562 90.496094 565.851562 91.191406 565.847656 91.90625 L 565.863281 94.332031 L 565.839844 96.988281 L 565.84375 99.789062 C 565.847656 102.859375 565.832031 105.929688 565.8125 109 C 565.808594 111.140625 565.808594 113.277344 565.808594 115.417969 C 565.804688 119.914062 565.792969 124.40625 565.773438 128.902344 C 565.746094 134.632812 565.734375 140.359375 565.730469 146.089844 C 565.726562 151.582031 565.714844 157.070312 565.699219 162.5625 L 565.695312 165.695312 C 565.628906 196.515625 565.628906 196.515625 562.765625 204.261719 C 559.035156 204.308594 555.304688 204.34375 551.574219 204.363281 C 550.304688 204.375 549.035156 204.386719 547.765625 204.402344 C 545.941406 204.421875 544.117188 204.433594 542.289062 204.441406 L 538.964844 204.472656 C 536.214844 204.261719 536.214844 204.261719 533.46875 202.429688 C 533.121094 200.476562 533.121094 200.476562 533.121094 198 L 533.09375 195.164062 L 533.113281 192.042969 L 533.097656 188.761719 C 533.089844 185.789062 533.089844 182.816406 533.097656 179.839844 C 533.105469 176.730469 533.097656 173.617188 533.09375 170.507812 C 533.089844 165.277344 533.097656 160.050781 533.109375 154.820312 C 533.125 148.78125 533.121094 142.738281 533.105469 136.699219 C 533.09375 131.511719 533.089844 126.324219 533.097656 121.136719 C 533.101562 118.042969 533.101562 114.945312 533.09375 111.84375 C 533.085938 108.390625 533.097656 104.933594 533.113281 101.476562 L 533.09375 98.367188 L 533.121094 95.507812 L 533.121094 93.035156 C 533.546875 90.203125 534.558594 88.46875 536.214844 86.152344 C 540.296875 84.113281 545.867188 85.027344 550.347656 85.007812 M 180.484375 85.117188 L 184.074219 85.113281 L 185.945312 85.117188 C 187.828125 85.125 189.71875 85.117188 191.605469 85.113281 L 195.191406 85.117188 L 198.5 85.121094 C 201.113281 85.238281 201.113281 85.238281 202.945312 86.152344 C 203.011719 101.28125 203.058594 116.410156 203.085938 131.542969 C 203.101562 138.566406 203.121094 145.589844 203.152344 152.613281 C 203.179688 158.734375 203.199219 164.855469 203.203125 170.976562 C 203.207031 174.21875 203.214844 177.460938 203.234375 180.703125 C 203.257812 184.320312 203.257812 187.933594 203.257812 191.550781 L 203.285156 194.824219 L 203.277344 197.796875 L 203.28125 200.390625 L 202.945312 202.429688 C 200.199219 204.261719 200.199219 204.261719 197.578125 204.484375 L 194.417969 204.472656 L 190.980469 204.46875 L 187.378906 204.433594 L 183.78125 204.433594 C 174.949219 204.390625 174.949219 204.390625 171.816406 203.347656 C 170.785156 200.675781 170.78125 198.058594 170.777344 195.21875 L 170.765625 192.503906 L 170.765625 189.539062 L 170.757812 186.402344 C 170.75 182.972656 170.746094 179.546875 170.746094 176.117188 L 170.738281 168.976562 C 170.730469 163.980469 170.730469 158.988281 170.730469 153.992188 C 170.730469 148.230469 170.722656 142.464844 170.707031 136.703125 C 170.695312 131.148438 170.6875 125.59375 170.691406 120.042969 C 170.691406 117.683594 170.6875 115.324219 170.679688 112.96875 C 170.667969 109.667969 170.671875 106.367188 170.679688 103.066406 C 170.671875 102.09375 170.667969 101.121094 170.660156 100.117188 C 170.683594 95.125 170.90625 90.828125 172.730469 86.152344 C 175.339844 84.847656 177.570312 85.117188 180.484375 85.117188 " fill-opacity="1" fill-rule="nonzero"/></g><g clip-path="url(#1e0c3865f2)"><path fill="#ffffff" d="M 104.007812 927.167969 L 107.507812 927.113281 C 115.710938 927.117188 115.710938 927.117188 118.835938 928.320312 C 122.160156 930.457031 124.207031 933.269531 126.035156 936.722656 C 127.03125 941.804688 127.042969 946.722656 126.9375 951.875 L 126.890625 954.351562 C 126.859375 956.066406 126.820312 957.785156 126.78125 959.503906 C 126.722656 962.136719 126.6875 964.765625 126.648438 967.398438 L 126.539062 972.414062 L 126.511719 974.800781 L 126.445312 977.015625 L 126.40625 978.957031 C 126.035156 980.671875 126.035156 980.671875 124.753906 982.214844 C 123.289062 983.417969 123.289062 983.417969 121.460938 984.332031 C 115.324219 985.222656 109.222656 985.371094 103.03125 985.421875 L 100.683594 985.457031 C 95.707031 985.464844 91.367188 985.128906 86.667969 983.417969 C 85.113281 981.671875 85.113281 981.671875 83.921875 978.839844 C 83.519531 975.539062 83.535156 972.261719 83.554688 968.941406 L 83.546875 966.035156 C 83.546875 964.015625 83.550781 961.992188 83.5625 959.96875 C 83.578125 956.875 83.5625 953.785156 83.542969 950.691406 C 83.546875 948.726562 83.550781 946.757812 83.554688 944.792969 L 83.539062 941.992188 C 83.574219 938.363281 83.65625 935.542969 85.03125 932.15625 C 90.324219 926.195312 96.585938 927.125 104.003906 927.167969 M 465.503906 927.347656 C 467.417969 927.339844 469.332031 927.308594 471.25 927.28125 C 472.472656 927.277344 473.695312 927.269531 474.921875 927.265625 L 478.28125 927.242188 C 481.28125 927.566406 481.28125 927.566406 483.792969 928.730469 C 485.929688 930.371094 487.179688 931.703125 488.605469 933.976562 C 488.949219 936.136719 488.949219 936.136719 488.945312 938.550781 L 488.964844 941.300781 L 488.9375 944.25 L 488.9375 947.296875 C 488.9375 949.417969 488.929688 951.539062 488.914062 953.660156 C 488.890625 956.914062 488.894531 960.167969 488.898438 963.421875 C 488.894531 965.480469 488.890625 967.539062 488.878906 969.601562 L 488.882812 972.558594 L 488.855469 975.300781 L 488.84375 977.710938 C 488.605469 979.753906 488.605469 979.753906 486.773438 982.5 C 483.007812 984.550781 479.292969 984.640625 475.101562 984.671875 L 473.058594 984.699219 C 471.640625 984.710938 470.21875 984.71875 468.800781 984.722656 C 466.636719 984.734375 464.476562 984.777344 462.308594 984.824219 C 460.929688 984.832031 459.546875 984.839844 458.160156 984.84375 L 456.214844 984.898438 C 454.371094 984.882812 454.371094 984.882812 451.066406 984.332031 C 448.371094 982.652344 448.371094 982.652344 446.488281 979.753906 C 445.828125 976.328125 445.847656 972.96875 445.878906 969.488281 L 445.867188 966.46875 C 445.863281 964.363281 445.871094 962.257812 445.890625 960.152344 C 445.917969 956.9375 445.890625 953.722656 445.863281 950.507812 C 445.863281 948.460938 445.871094 946.414062 445.878906 944.367188 L 445.851562 941.460938 C 445.957031 934.988281 445.957031 934.988281 447.453125 932.144531 C 448.644531 930.636719 448.644531 930.636719 451.066406 928.484375 C 455.710938 926.9375 460.644531 927.359375 465.503906 927.347656 M 703.21875 927.082031 L 706.601562 927.066406 L 710.117188 927.109375 C 711.273438 927.097656 712.429688 927.082031 713.621094 927.066406 C 721.824219 927.101562 721.824219 927.101562 724.957031 928.351562 C 726.992188 929.679688 728.601562 931.347656 730.316406 933.0625 C 731.296875 935.90625 731.351562 938.585938 731.355469 941.582031 L 731.359375 944.488281 L 731.347656 947.59375 L 731.339844 950.78125 C 731.304688 957.847656 731.136719 964.910156 730.832031 971.972656 L 730.722656 974.554688 L 730.605469 976.921875 L 730.503906 978.992188 C 730.316406 980.671875 730.316406 980.671875 729.402344 982.5 C 724.269531 984.433594 719.5625 984.585938 714.125 984.503906 L 711.683594 984.484375 C 696.324219 984.292969 696.324219 984.292969 690.945312 982.5 C 689.726562 980.628906 689.160156 979.175781 688.871094 976.960938 L 688.847656 974.941406 L 688.816406 972.632812 L 688.808594 970.160156 L 688.789062 967.585938 C 688.78125 965.789062 688.777344 963.992188 688.777344 962.195312 C 688.773438 959.46875 688.738281 956.738281 688.703125 954.011719 C 688.699219 952.257812 688.695312 950.507812 688.695312 948.757812 L 688.65625 946.3125 C 688.691406 941.355469 689.46875 937.433594 691.695312 932.980469 C 694.664062 928.175781 697.75 927.101562 703.21875 927.082031 M 176.453125 43.710938 L 179.859375 43.738281 L 181.679688 43.742188 C 182.949219 43.75 184.21875 43.761719 185.488281 43.777344 C 187.433594 43.808594 189.378906 43.816406 191.324219 43.824219 C 200.8125 43.886719 200.8125 43.886719 202.945312 44.953125 L 202.945312 72.417969 C 198.90625 74.4375 193.441406 73.542969 188.949219 73.554688 C 186.929688 73.5625 184.910156 73.59375 182.890625 73.621094 C 181.613281 73.628906 180.332031 73.632812 179.054688 73.636719 L 175.515625 73.660156 L 172.730469 73.335938 C 170.898438 70.589844 170.898438 70.589844 170.648438 68.132812 C 170.621094 64.984375 170.605469 61.835938 170.613281 58.6875 L 170.570312 55.351562 L 170.566406 52.164062 L 170.558594 49.238281 C 170.898438 46.785156 170.898438 46.785156 171.90625 45.09375 C 173.648438 44.035156 173.648438 44.035156 176.453125 43.710938 M 535.300781 44.035156 C 537.984375 43.800781 537.984375 43.800781 541.390625 43.792969 L 543.210938 43.789062 C 544.480469 43.789062 545.75 43.789062 547.019531 43.796875 C 548.964844 43.808594 550.90625 43.796875 552.851562 43.785156 C 554.085938 43.785156 555.320312 43.789062 556.554688 43.792969 L 559.960938 43.800781 C 562.765625 44.035156 562.765625 44.035156 565.511719 45.867188 C 565.742188 48.113281 565.820312 50.363281 565.742188 52.621094 L 565.707031 54.597656 C 565.65625 56.570312 565.59375 58.542969 565.511719 60.515625 L 565.394531 63.863281 C 565.082031 69.371094 565.082031 69.371094 564.597656 71.503906 C 561.851562 73.335938 561.851562 73.335938 559.230469 73.574219 L 556.070312 73.578125 L 552.632812 73.585938 L 549.03125 73.5625 L 545.433594 73.585938 L 541.992188 73.578125 L 538.835938 73.574219 C 536.214844 73.335938 536.214844 73.335938 533.46875 71.503906 C 533.128906 68.972656 533.128906 68.972656 533.136719 65.78125 L 533.136719 62.320312 L 533.179688 58.6875 L 533.171875 55.050781 C 533.210938 48.460938 533.210938 48.460938 533.46875 45.867188 Z M 535.300781 44.035156 " fill-opacity="1" fill-rule="nonzero"/></g></svg>