<svg xmlns="http://www.w3.org/2000/svg" xmlns:xlink="http://www.w3.org/1999/xlink" width="1080" zoomAndPan="magnify" viewBox="0 0 810 239.999995" height="320" preserveAspectRatio="xMidYMid meet" version="1.0"><defs><clipPath id="1b410db2c8"><path d="M 0 52 L 743.25 52 L 743.25 230.148438 L 0 230.148438 Z M 0 52 " clip-rule="nonzero"/></clipPath><clipPath id="94d8f9bf8f"><path d="M 35 44 L 684 44 L 684 230.148438 L 35 230.148438 Z M 35 44 " clip-rule="nonzero"/></clipPath></defs><g clip-path="url(#1b410db2c8)"><path fill="#000000" d="M -351.433594 500.035156 L -349.222656 500.035156 L -346.660156 500.019531 L -343.835938 500.035156 L -340.824219 500.027344 C -337.457031 500.019531 -334.089844 500.027344 -330.71875 500.03125 L -323.417969 500.027344 C -318.089844 500.019531 -312.761719 500.019531 -307.433594 500.023438 C -299.457031 500.03125 -291.480469 500.03125 -283.5 500.023438 C -269.910156 500.015625 -256.316406 500.015625 -242.722656 500.019531 C -228.941406 500.027344 -215.160156 500.027344 -201.375 500.023438 L -198.742188 500.023438 L -188.121094 500.019531 C -153.136719 500.011719 -118.152344 500.011719 -83.171875 500.015625 C -43.316406 500.019531 -3.464844 500.019531 36.375 500.015625 L 103.628906 500.011719 L 106.722656 500.011719 C 157.5 500.019531 208.265625 500.023438 259.015625 500.027344 C 345.253906 500.042969 431.492188 500.039062 517.726562 500.019531 C 573.691406 500.023438 629.625 500.023438 685.53125 500.015625 L 715.546875 500.019531 C 746.355469 500.035156 777.171875 500.035156 807.996094 500.015625 L 810.957031 500.015625 C 847.394531 500.003906 883.832031 500.007812 920.265625 500.023438 L 922.890625 500.023438 C 936.640625 500.027344 950.386719 500.027344 964.136719 500.019531 C 977.636719 500.015625 991.136719 500.015625 1004.636719 500.027344 C 1012.5625 500.03125 1020.488281 500.03125 1028.417969 500.023438 C 1033.667969 500.019531 1038.921875 500.019531 1044.175781 500.027344 C 1047.160156 500.03125 1050.144531 500.03125 1053.132812 500.027344 C 1056.328125 500.019531 1059.527344 500.027344 1062.726562 500.035156 L 1065.550781 500.019531 L 1068.113281 500.035156 L 1070.324219 500.035156 C 1072.203125 500.265625 1072.203125 500.265625 1074.949219 502.09375 C 1075.292969 504.601562 1075.292969 504.601562 1075.292969 507.871094 L 1075.304688 509.703125 C 1075.3125 511.746094 1075.300781 513.792969 1075.289062 515.839844 C 1075.292969 517.316406 1075.296875 518.796875 1075.300781 520.273438 C 1075.308594 524.371094 1075.300781 528.46875 1075.292969 532.5625 C 1075.28125 537.007812 1075.289062 541.453125 1075.296875 545.894531 C 1075.300781 553.695312 1075.300781 561.492188 1075.289062 569.292969 C 1075.273438 580.890625 1075.277344 592.488281 1075.28125 604.089844 C 1075.285156 623.59375 1075.28125 643.101562 1075.269531 662.609375 C 1075.253906 681.933594 1075.246094 701.257812 1075.246094 720.582031 L 1075.246094 738.832031 L 1075.242188 781.566406 C 1075.238281 811.75 1075.222656 841.933594 1075.207031 872.117188 C 1075.171875 925.789062 1075.15625 979.476562 1075.167969 1033.175781 C 1075.164062 1074.394531 1075.152344 1115.617188 1075.140625 1156.839844 C 1075.136719 1168.921875 1075.136719 1181 1075.132812 1193.082031 C 1075.128906 1218.5 1075.121094 1243.914062 1075.109375 1269.328125 C 1075.101562 1279.84375 1075.097656 1290.359375 1075.097656 1300.875 C 1075.097656 1309.585938 1075.09375 1318.300781 1075.085938 1327.011719 C 1075.082031 1331.402344 1075.078125 1335.792969 1075.082031 1340.183594 C 1075.082031 1344.171875 1075.078125 1348.160156 1075.074219 1352.144531 C 1075.070312 1353.585938 1075.070312 1355.027344 1075.074219 1356.46875 C 1075.074219 1358.410156 1075.074219 1360.355469 1075.066406 1362.296875 L 1075.066406 1365.570312 C 1074.949219 1368.074219 1074.949219 1368.074219 1074.035156 1369.90625 C 1065.9375 1371.355469 1057.589844 1370.953125 1049.390625 1370.949219 L 1044.320312 1370.957031 C 1039.660156 1370.964844 1035.003906 1370.964844 1030.347656 1370.964844 C 1025.28125 1370.96875 1020.214844 1370.972656 1015.152344 1370.980469 C 1006.265625 1370.992188 997.378906 1370.996094 988.492188 1371.003906 C 975.269531 1371.007812 962.042969 1371.019531 948.820312 1371.035156 C 926.527344 1371.054688 904.234375 1371.074219 881.941406 1371.089844 C 859.742188 1371.101562 837.542969 1371.121094 815.34375 1371.140625 L 813.25 1371.140625 L 747.0625 1371.199219 C 746.34375 1371.199219 745.628906 1371.199219 744.890625 1371.199219 C 709.964844 1371.230469 675.039062 1371.257812 640.113281 1371.28125 C 578.761719 1371.28125 517.371094 1371.328125 455.941406 1371.429688 C 397.089844 1371.605469 338.273438 1371.65625 279.492188 1371.578125 C 125.535156 1371.703125 125.535156 1371.703125 -55.101562 1371.753906 L -63.910156 1371.753906 C -101.519531 1371.757812 -139.125 1371.75 -176.730469 1371.691406 L -178.714844 1371.6875 C -200.03125 1371.652344 -221.34375 1371.589844 -242.65625 1371.507812 C -253.839844 1371.464844 -265.019531 1371.433594 -276.199219 1371.414062 C -285.316406 1371.394531 -294.429688 1371.363281 -303.542969 1371.328125 C -308.835938 1371.304688 -314.128906 1371.289062 -319.421875 1371.28125 C -324.226562 1371.277344 -329.03125 1371.257812 -333.835938 1371.230469 C -335.582031 1371.222656 -337.328125 1371.21875 -339.078125 1371.21875 C -341.445312 1371.222656 -343.8125 1371.207031 -346.183594 1371.1875 L -348.273438 1371.199219 C -350.183594 1371.175781 -350.183594 1371.175781 -353.3125 1370.820312 C -354.859375 1369.75 -354.859375 1369.75 -356.058594 1368.074219 C -356.402344 1365.761719 -356.402344 1365.761719 -356.398438 1362.929688 L -356.417969 1359.65625 L -356.394531 1356.03125 C -356.398438 1354.75 -356.398438 1353.46875 -356.402344 1352.1875 C -356.410156 1348.640625 -356.402344 1345.09375 -356.390625 1341.550781 C -356.378906 1337.699219 -356.386719 1333.847656 -356.390625 1329.996094 C -356.394531 1323.238281 -356.386719 1316.480469 -356.375 1309.71875 C -356.355469 1299.664062 -356.355469 1289.609375 -356.355469 1279.554688 C -356.351562 1262.617188 -356.34375 1245.679688 -356.324219 1228.742188 C -356.304688 1211.90625 -356.289062 1195.066406 -356.285156 1178.230469 L -356.285156 1175.050781 L -356.28125 1159.070312 C -356.269531 1121.261719 -356.246094 1083.453125 -356.214844 1045.640625 L -356.195312 1018.148438 L -356.191406 1014.707031 C -356.171875 987.382812 -356.15625 960.058594 -356.140625 932.738281 C -356.125 907.089844 -356.113281 881.441406 -356.101562 855.792969 L -356.101562 852.503906 L -356.089844 823.136719 C -356.082031 799.945312 -356.066406 776.753906 -356.046875 753.5625 C -356.035156 728.105469 -356.019531 702.648438 -355.996094 677.191406 C -355.972656 630.113281 -356.03125 583.042969 -356.691406 535.964844 C -356.730469 533.351562 -356.765625 530.734375 -356.796875 528.117188 C -356.839844 525.0625 -356.886719 522.011719 -356.941406 518.957031 L -356.996094 515 L -357.050781 511.628906 C -356.972656 508.347656 -356.753906 505.308594 -356.058594 502.09375 C -353.3125 500.265625 -353.3125 500.265625 -351.433594 500.035156 M 122.773438 855.445312 C 122.753906 859.597656 122.734375 863.753906 122.722656 867.910156 C 122.71875 869.324219 122.714844 870.738281 122.707031 872.152344 C 122.695312 874.183594 122.6875 876.210938 122.683594 878.242188 L 122.671875 880.167969 C 122.671875 881.691406 122.71875 883.214844 122.773438 884.738281 L 123.691406 885.652344 C 125.996094 885.734375 128.28125 885.757812 130.589844 885.742188 L 132.679688 885.738281 C 134.890625 885.734375 137.101562 885.722656 139.3125 885.710938 C 140.808594 885.707031 142.304688 885.699219 143.796875 885.699219 C 147.472656 885.6875 151.144531 885.671875 154.820312 885.652344 L 154.820312 855.445312 L 139.828125 854.929688 L 135.097656 854.757812 C 133.863281 854.71875 132.628906 854.679688 131.394531 854.640625 L 129.445312 854.566406 C 125.996094 854.394531 125.996094 854.394531 122.773438 855.445312 M 484.417969 855.445312 C 484.394531 859.582031 484.378906 863.71875 484.367188 867.859375 C 484.363281 869.265625 484.355469 870.675781 484.347656 872.082031 C 484.339844 874.105469 484.332031 876.128906 484.328125 878.152344 L 484.316406 880.0625 C 484.269531 883.429688 484.269531 883.429688 485.332031 886.566406 L 517.378906 886.566406 C 518.761719 883.796875 518.296875 880.976562 518.183594 877.949219 L 518.117188 875.925781 C 518.046875 873.789062 517.972656 871.65625 517.894531 869.519531 C 517.84375 868.070312 517.796875 866.625 517.746094 865.175781 C 517.628906 861.628906 517.503906 858.078125 517.378906 854.527344 C 512.976562 854.507812 508.578125 854.488281 504.179688 854.476562 C 502.683594 854.472656 501.183594 854.46875 499.6875 854.460938 C 497.535156 854.449219 495.386719 854.441406 493.238281 854.4375 L 491.203125 854.425781 C 487.695312 854.359375 487.695312 854.359375 484.417969 855.445312 M 14.738281 863.683594 L 16.570312 865.511719 L 14.726562 866.992188 C 10.195312 870.816406 6.015625 874.480469 3.535156 879.941406 C 1.910156 886.847656 2.503906 894.167969 2.835938 901.214844 L 5.457031 902.078125 C 10.035156 903.617188 10.035156 903.617188 11.992188 904.875 C 12.636719 906.078125 13.246094 907.300781 13.824219 908.539062 L 14.835938 910.441406 C 16.480469 913.746094 17.835938 916.691406 17.65625 920.4375 C 17.054688 923.609375 15.65625 925.429688 13.59375 927.875 C 9.308594 932.988281 7.339844 938.792969 5.582031 945.15625 L 4.890625 947.609375 C 2.828125 955.609375 2.472656 963.234375 2.570312 971.433594 C 2.574219 972.769531 2.578125 974.109375 2.582031 975.445312 C 2.589844 978.925781 2.617188 982.402344 2.648438 985.878906 C 2.675781 989.445312 2.6875 993.011719 2.703125 996.578125 C 2.734375 1003.542969 2.777344 1010.507812 2.835938 1017.472656 C 7.089844 1017.496094 11.34375 1017.511719 15.59375 1017.523438 C 17.039062 1017.527344 18.488281 1017.535156 19.933594 1017.539062 C 22.015625 1017.550781 24.09375 1017.558594 26.171875 1017.5625 L 28.132812 1017.574219 C 30.945312 1017.574219 33.105469 1017.453125 35.796875 1016.554688 L 35.796875 1003.742188 L 37.628906 1003.742188 C 37.792969 1004.359375 37.960938 1004.976562 38.132812 1005.613281 L 38.832031 1008.089844 L 39.503906 1010.535156 C 40.738281 1013.925781 40.738281 1013.925781 43.121094 1016.554688 C 57.496094 1019.320312 76.519531 1019.367188 90.730469 1015.640625 C 94.414062 1013.714844 97.101562 1011.417969 99.886719 1008.316406 L 99.886719 1006.488281 L 102.632812 1005.570312 C 103.984375 1003.457031 105.136719 1001.382812 106.292969 999.164062 L 107.480469 997.1875 C 113.085938 987.316406 112.949219 975.640625 112.910156 964.5625 L 112.875 960.488281 L 112.851562 956.230469 C 113.324219 933.414062 113.324219 933.414062 106.695312 911.96875 C 103.511719 907.023438 99.5 904.035156 94.390625 901.214844 C 82.050781 895.339844 68.726562 895.660156 55.308594 895.4375 L 52.691406 895.355469 C 50.363281 895.332031 48.171875 895.382812 45.867188 895.722656 C 43.0625 897.113281 43.0625 897.113281 41.289062 899.382812 C 39.988281 901.609375 39.988281 901.609375 39.171875 904.019531 L 38.269531 906.394531 C 37.496094 908.605469 37.496094 908.605469 37.628906 911.285156 L 35.796875 911.285156 L 35.898438 909.222656 C 36.488281 895.355469 36.226562 883.605469 30.789062 870.714844 C 29.539062 867.710938 29.386719 866.757812 29.386719 863.683594 Z M 388.820312 862.96875 L 387.027344 863.023438 L 380.386719 863.226562 L 372.367188 863.46875 L 368.378906 863.59375 L 365.394531 863.683594 C 364.257812 893.292969 364.339844 922.910156 364.363281 952.535156 C 364.367188 958.042969 364.367188 963.550781 364.359375 969.058594 C 364.355469 974.425781 364.355469 979.792969 364.355469 985.164062 C 364.359375 988.34375 364.359375 991.527344 364.355469 994.710938 C 364.355469 998.21875 364.355469 1001.726562 364.363281 1005.234375 L 364.355469 1008.410156 L 364.363281 1011.277344 L 364.367188 1013.78125 L 364.480469 1015.640625 L 365.394531 1016.558594 C 367.835938 1016.636719 370.253906 1016.660156 372.695312 1016.648438 L 374.910156 1016.640625 C 377.25 1016.636719 379.59375 1016.625 381.933594 1016.613281 C 383.519531 1016.609375 385.101562 1016.605469 386.683594 1016.601562 C 390.574219 1016.589844 394.464844 1016.578125 398.355469 1016.558594 L 399.273438 1002.824219 L 401.773438 1010.246094 C 403.101562 1013.28125 404.199219 1015.15625 406.597656 1017.472656 C 409.304688 1017.90625 411.476562 1018.050781 414.179688 1017.984375 L 416.421875 1017.976562 C 417.992188 1017.96875 419.5625 1017.949219 421.132812 1017.917969 C 423.5 1017.875 425.867188 1017.863281 428.234375 1017.855469 C 441.949219 1018.15625 441.949219 1018.15625 454.808594 1014.328125 C 459.988281 1010.863281 465.070312 1005.910156 468.28125 1000.535156 L 469.769531 997.332031 C 470.085938 996.660156 470.402344 995.984375 470.726562 995.292969 C 476.253906 982.699219 475.523438 969.597656 475.261719 956.140625 L 475.207031 952.65625 C 475.144531 949.011719 475.066406 945.367188 474.976562 941.722656 L 474.914062 938.257812 C 474.613281 928.125 472.730469 919.59375 467.628906 910.777344 C 464.683594 906.445312 461.015625 903.65625 456.492188 901.101562 C 446.097656 896.445312 435.488281 895 424.214844 894.945312 C 422.074219 894.921875 419.9375 894.832031 417.796875 894.738281 C 413.875 894.65625 410.421875 894.765625 406.597656 895.722656 C 403.722656 898.425781 402.382812 901.183594 401.101562 904.875 L 400.1875 906.707031 L 399.273438 905.792969 C 399.140625 903.011719 399.054688 900.234375 399.015625 897.453125 L 398.964844 894.902344 C 398.910156 892.203125 398.859375 889.5 398.8125 886.796875 C 398.75 883.253906 398.683594 879.710938 398.613281 876.167969 L 398.578125 873.699219 C 398.5 869.949219 398.371094 866.425781 397.441406 862.765625 C 394.566406 862.765625 391.695312 862.878906 388.820312 862.96875 M 634.167969 897.269531 L 631.171875 897.941406 C 626.441406 899.148438 622.316406 900.511719 618.472656 903.582031 C 616.242188 905.804688 614.792969 908.253906 613.28125 911 C 612.691406 912.039062 612.101562 913.082031 611.496094 914.15625 C 607.8125 921.59375 606.683594 928.839844 606.601562 937.070312 L 606.546875 939.949219 C 606.507812 941.949219 606.476562 943.949219 606.453125 945.945312 C 606.414062 948.964844 606.359375 951.980469 606.296875 954.996094 C 605.71875 974.078125 605.71875 974.078125 608.761719 992.8125 L 609.636719 996.105469 C 611.90625 1002.257812 615.679688 1006.144531 620.582031 1010.304688 C 624.910156 1013.78125 628.320312 1015.671875 633.859375 1016.636719 C 642.5625 1017.898438 651.320312 1017.746094 660.097656 1017.710938 C 663.066406 1017.703125 666.03125 1017.710938 669 1017.722656 C 670.914062 1017.722656 672.828125 1017.71875 674.746094 1017.714844 L 677.386719 1017.726562 C 684.367188 1017.679688 691.527344 1017.273438 697.914062 1014.269531 L 699.574219 1012.894531 L 699.574219 1011.0625 L 701.152344 1010.398438 C 703.660156 1008.996094 705.3125 1007.300781 707.296875 1005.230469 C 710.085938 1002.367188 712.902344 999.796875 716.054688 997.332031 C 717.472656 994.492188 717.109375 991.484375 717.117188 988.367188 L 717.128906 986.132812 C 717.140625 983.6875 717.152344 981.238281 717.15625 978.792969 L 717.167969 973.6875 C 717.179688 970.113281 717.183594 966.539062 717.1875 962.964844 C 717.195312 958.398438 717.214844 953.832031 717.242188 949.265625 C 717.257812 945.746094 717.261719 942.230469 717.265625 938.710938 C 717.265625 937.027344 717.273438 935.34375 717.285156 933.664062 C 717.300781 931.300781 717.300781 928.9375 717.292969 926.574219 L 717.320312 924.492188 C 717.28125 919.476562 716.328125 914.949219 714.222656 910.367188 C 712.3125 908.394531 712.3125 908.394531 709.902344 907.289062 L 707.3125 905.917969 C 706.421875 905.480469 705.527344 905.042969 704.609375 904.589844 L 701.988281 903.207031 C 696.769531 900.507812 691.492188 898.324219 685.929688 896.429688 C 684.007812 895.722656 684.007812 895.722656 683.09375 894.808594 C 680.820312 894.660156 678.542969 894.566406 676.261719 894.523438 L 674.128906 894.480469 C 660.585938 894.265625 647.433594 894.257812 634.167969 897.269531 M 122.773438 895.722656 L 122.773438 1017.472656 L 154.820312 1017.472656 L 154.820312 896.636719 C 144.144531 896.105469 133.460938 895.722656 122.773438 895.722656 M 166.722656 895.722656 C 165.796875 898.492188 165.691406 900.34375 165.6875 903.242188 L 165.679688 906.234375 L 165.6875 909.523438 L 165.683594 912.980469 C 165.679688 916.113281 165.679688 919.246094 165.683594 922.378906 C 165.683594 925.652344 165.683594 928.925781 165.683594 932.199219 C 165.679688 937.695312 165.679688 943.191406 165.6875 948.6875 C 165.691406 955.046875 165.691406 961.410156 165.683594 967.773438 C 165.679688 973.230469 165.679688 978.6875 165.683594 984.144531 C 165.683594 987.40625 165.683594 990.667969 165.679688 993.929688 C 165.679688 997.558594 165.679688 1001.191406 165.6875 1004.824219 L 165.679688 1008.121094 L 165.6875 1011.101562 L 165.691406 1013.707031 L 165.804688 1015.640625 L 166.722656 1016.558594 C 169.097656 1016.636719 171.445312 1016.660156 173.820312 1016.648438 L 175.972656 1016.640625 C 178.246094 1016.636719 180.523438 1016.625 182.800781 1016.613281 C 184.339844 1016.609375 185.878906 1016.605469 187.417969 1016.601562 C 191.203125 1016.589844 194.984375 1016.578125 198.765625 1016.558594 L 198.78125 1013.578125 C 198.835938 1004.296875 198.902344 995.015625 198.980469 985.738281 C 199.023438 980.964844 199.058594 976.195312 199.082031 971.425781 C 199.105469 966.820312 199.140625 962.214844 199.1875 957.609375 C 199.203125 955.851562 199.214844 954.097656 199.222656 952.34375 C 199.230469 949.878906 199.253906 947.417969 199.285156 944.953125 L 199.28125 942.765625 C 199.363281 938.042969 200.171875 934.691406 202.425781 930.507812 C 205.175781 928.675781 205.175781 928.675781 208.804688 928.296875 C 210.320312 928.222656 211.839844 928.160156 213.359375 928.105469 L 215.785156 927.996094 C 222.566406 927.726562 229.347656 927.699219 236.132812 927.796875 C 238.019531 927.816406 239.910156 927.792969 241.796875 927.761719 L 242.710938 926.847656 C 242.828125 924.691406 242.886719 922.566406 242.898438 920.414062 L 242.914062 918.460938 C 242.921875 917.09375 242.929688 915.730469 242.933594 914.363281 C 242.941406 912.269531 242.96875 910.175781 243 908.082031 C 243.003906 906.757812 243.007812 905.433594 243.011719 904.109375 L 243.046875 902.203125 C 243.070312 900.246094 243.070312 900.246094 242.710938 897.554688 C 240.183594 895.554688 240.183594 895.554688 237.601562 895.5 L 234.78125 895.511719 L 231.664062 895.515625 L 228.40625 895.550781 L 225.214844 895.550781 C 219.386719 895.582031 213.679688 895.71875 207.921875 896.636719 C 204.351562 899.628906 202.96875 903.925781 201.269531 908.171875 C 200.417969 910.570312 200.417969 910.570312 200.597656 914.03125 L 198.765625 914.03125 L 198.796875 910.457031 L 198.824219 905.847656 L 198.847656 903.492188 L 198.855469 901.246094 L 198.871094 899.167969 L 198.765625 897.554688 L 197.851562 896.636719 C 196.5625 896.5 195.269531 896.402344 193.972656 896.347656 L 191.535156 896.230469 L 188.921875 896.125 L 186.292969 896.003906 C 179.765625 895.730469 173.253906 895.613281 166.722656 895.722656 M 260.101562 902.550781 C 254.894531 906.574219 250.878906 911.59375 248.011719 917.496094 C 245.328125 925.027344 245.175781 932.054688 245.183594 939.992188 L 245.171875 943.820312 C 245.164062 946.488281 245.164062 949.15625 245.167969 951.824219 C 245.175781 955.214844 245.160156 958.605469 245.136719 961.992188 C 245.125 964.628906 245.125 967.265625 245.125 969.902344 C 245.125 971.75 245.113281 973.597656 245.101562 975.445312 C 245.140625 983.546875 245.5625 991.699219 249.601562 998.914062 C 251.414062 1001.707031 253.253906 1004.046875 255.53125 1006.488281 C 257.496094 1007.132812 257.496094 1007.132812 259.191406 1007.402344 L 260.109375 1010.148438 C 263.554688 1013.035156 266.125 1014.46875 270.554688 1015.339844 C 279.382812 1016.410156 288.035156 1016.804688 296.929688 1016.734375 L 300.992188 1016.726562 C 304.503906 1016.71875 308.011719 1016.703125 311.523438 1016.683594 C 315.125 1016.664062 318.730469 1016.65625 322.332031 1016.644531 C 329.363281 1016.625 336.394531 1016.597656 343.421875 1016.558594 C 343.445312 1012.269531 343.460938 1007.984375 343.472656 1003.699219 C 343.476562 1002.242188 343.484375 1000.78125 343.492188 999.324219 C 343.503906 997.230469 343.507812 995.136719 343.511719 993.046875 L 343.527344 991.058594 C 343.527344 989.488281 343.480469 987.917969 343.421875 986.347656 L 342.507812 985.433594 C 340.667969 985.324219 338.828125 985.28125 336.984375 985.257812 L 333.398438 985.214844 L 331.472656 985.195312 C 329.488281 985.175781 327.503906 985.152344 325.515625 985.125 C 321.300781 985.070312 317.082031 985.019531 312.867188 984.976562 C 307.988281 984.921875 303.109375 984.863281 298.230469 984.800781 C 296.273438 984.777344 294.316406 984.753906 292.359375 984.738281 L 288.757812 984.691406 L 285.578125 984.65625 C 282.996094 984.515625 282.996094 984.515625 280.25 983.601562 C 279.941406 982.113281 279.636719 980.628906 279.335938 979.140625 L 278.820312 976.628906 C 278.417969 974.449219 278.417969 974.449219 278.417969 972.617188 L 281.261719 972.625 C 290.089844 972.640625 298.914062 972.65625 307.738281 972.664062 C 312.273438 972.667969 316.8125 972.675781 321.347656 972.6875 C 325.726562 972.695312 330.101562 972.703125 334.472656 972.703125 C 336.148438 972.707031 337.820312 972.707031 339.492188 972.714844 C 341.828125 972.71875 344.164062 972.722656 346.5 972.722656 L 348.617188 972.730469 C 350.242188 972.726562 351.867188 972.675781 353.492188 972.617188 L 354.410156 971.703125 C 354.503906 970.472656 354.535156 969.238281 354.542969 968.003906 L 354.5625 965.621094 L 354.5625 963.019531 L 354.574219 960.335938 C 354.578125 958.453125 354.578125 956.570312 354.578125 954.6875 C 354.582031 951.839844 354.597656 948.996094 354.617188 946.152344 C 354.933594 930.097656 354.933594 930.097656 351.089844 914.660156 C 348.109375 909.492188 344.101562 905.53125 339.058594 902.378906 C 327.207031 896.09375 315.878906 895.253906 302.722656 895.3125 C 300.121094 895.320312 297.519531 895.296875 294.914062 895.265625 C 282.820312 895.21875 270.707031 896.027344 260.101562 902.550781 M 485.332031 895.722656 L 484.417969 896.636719 C 484.335938 898.1875 484.296875 899.742188 484.300781 901.292969 L 484.292969 904.351562 L 484.300781 907.734375 L 484.292969 911.273438 C 484.292969 914.488281 484.292969 917.703125 484.292969 920.914062 C 484.296875 924.269531 484.292969 927.628906 484.292969 930.980469 C 484.292969 936.621094 484.292969 942.253906 484.300781 947.890625 C 484.304688 954.417969 484.304688 960.941406 484.296875 967.46875 C 484.292969 973.0625 484.292969 978.652344 484.292969 984.246094 C 484.296875 987.589844 484.296875 990.933594 484.292969 994.28125 C 484.292969 998.007812 484.292969 1001.734375 484.300781 1005.460938 L 484.292969 1008.84375 L 484.300781 1011.898438 L 484.304688 1014.574219 L 484.417969 1016.558594 L 485.332031 1017.472656 C 487.699219 1017.5625 490.035156 1017.601562 492.402344 1017.59375 L 494.546875 1017.597656 C 496.042969 1017.597656 497.542969 1017.59375 499.042969 1017.589844 C 501.347656 1017.585938 503.648438 1017.589844 505.953125 1017.597656 C 507.40625 1017.597656 508.859375 1017.597656 510.3125 1017.59375 L 512.410156 1017.597656 C 514.066406 1017.59375 515.722656 1017.539062 517.378906 1017.472656 L 518.292969 1016.558594 C 518.371094 1014.992188 518.382812 1013.425781 518.367188 1011.859375 L 518.347656 1008.773438 L 518.3125 1005.359375 L 518.289062 1001.789062 C 518.261719 998.546875 518.234375 995.304688 518.199219 992.0625 C 518.171875 988.679688 518.144531 985.296875 518.117188 981.914062 C 518.066406 975.5 518.011719 969.085938 517.953125 962.671875 C 517.886719 955.375 517.824219 948.074219 517.765625 940.777344 C 517.640625 925.757812 517.511719 910.742188 517.378906 895.722656 C 512.832031 895.699219 508.285156 895.683594 503.738281 895.671875 C 502.191406 895.667969 500.640625 895.660156 499.09375 895.652344 C 496.875 895.644531 494.652344 895.636719 492.433594 895.632812 L 490.324219 895.617188 C 488.660156 895.617188 486.996094 895.664062 485.332031 895.722656 M 529.28125 895.722656 L 528.363281 896.636719 C 528.28125 898.175781 528.242188 899.71875 528.25 901.257812 L 528.238281 904.292969 L 528.246094 907.652344 L 528.242188 911.164062 C 528.238281 914.351562 528.238281 917.542969 528.242188 920.730469 C 528.242188 924.058594 528.242188 927.390625 528.242188 930.71875 C 528.238281 936.3125 528.242188 941.90625 528.246094 947.5 C 528.25 953.976562 528.25 960.449219 528.242188 966.925781 C 528.238281 972.476562 528.238281 978.027344 528.242188 983.574219 C 528.242188 986.894531 528.242188 990.214844 528.238281 993.53125 C 528.238281 997.230469 528.238281 1000.929688 528.246094 1004.628906 L 528.238281 1007.984375 L 528.25 1011.019531 L 528.25 1013.671875 L 528.363281 1015.640625 L 529.28125 1016.558594 C 531.65625 1016.636719 534.003906 1016.660156 536.378906 1016.648438 L 538.53125 1016.640625 C 540.808594 1016.636719 543.082031 1016.625 545.359375 1016.613281 C 546.898438 1016.609375 548.4375 1016.605469 549.976562 1016.601562 C 553.761719 1016.589844 557.542969 1016.578125 561.324219 1016.558594 L 561.339844 1013.535156 C 561.394531 1004.132812 561.460938 994.734375 561.539062 985.332031 C 561.582031 980.5 561.617188 975.664062 561.640625 970.832031 C 561.664062 966.167969 561.703125 961.5 561.75 956.835938 C 561.765625 955.058594 561.773438 953.277344 561.78125 951.5 C 561.789062 949.003906 561.8125 946.511719 561.84375 944.019531 L 561.839844 941.796875 C 561.898438 938.390625 562.207031 936.085938 563.46875 932.867188 C 564.988281 930.507812 564.988281 930.507812 567.734375 928.675781 C 569.730469 928.386719 569.730469 928.386719 572.0625 928.296875 L 574.675781 928.191406 L 577.460938 928.105469 L 580.300781 928 C 586.804688 927.769531 593.300781 927.683594 599.808594 927.796875 C 601.324219 927.816406 602.839844 927.792969 604.355469 927.761719 L 605.269531 926.847656 C 605.363281 925.082031 605.390625 923.3125 605.394531 921.542969 L 605.398438 918.25 L 605.386719 914.773438 L 605.398438 911.355469 L 605.394531 908.042969 L 605.390625 905.007812 C 605.273438 902.148438 604.886719 899.449219 604.355469 896.636719 C 599.40625 894.988281 593.9375 895.441406 588.746094 895.402344 C 587.328125 895.386719 585.914062 895.363281 584.5 895.328125 C 582.453125 895.28125 580.402344 895.253906 578.355469 895.242188 L 576.449219 895.179688 C 574.394531 895.140625 574.394531 895.140625 571.394531 895.722656 C 568.757812 897.886719 567.164062 899.652344 565.570312 902.652344 L 564.699219 904.992188 L 563.796875 907.34375 C 563.023438 909.523438 563.023438 909.523438 563.15625 912.199219 L 561.324219 912.199219 L 561.324219 895.722656 C 556.777344 895.699219 552.230469 895.683594 547.683594 895.671875 C 546.136719 895.667969 544.589844 895.660156 543.039062 895.652344 C 540.820312 895.644531 538.601562 895.636719 536.378906 895.632812 L 534.269531 895.617188 C 532.605469 895.617188 530.941406 895.664062 529.28125 895.722656 M 19.71875 52.457031 L 21.992188 52.421875 L 24.234375 52.417969 L 26.234375 52.402344 C 28.472656 52.625 28.472656 52.625 34.882812 54.457031 L 34.882812 104.804688 L 37.628906 104.804688 L 37.742188 102.230469 C 38.53125 97.019531 40.863281 92.496094 44.035156 88.328125 C 45.910156 86.871094 47.28125 86.367188 49.59375 85.847656 C 63.308594 84.492188 77.976562 85.171875 90.988281 89.929688 C 96.785156 92.59375 101.113281 96.300781 104.808594 101.488281 C 109.003906 108.335938 110.617188 115.429688 110.964844 123.414062 C 111.007812 125.753906 111.023438 128.089844 111.027344 130.429688 L 111.035156 133.050781 C 111.039062 134.875 111.042969 136.703125 111.042969 138.53125 C 111.042969 141.265625 111.058594 144.003906 111.078125 146.742188 C 111.101562 155.089844 110.96875 163.355469 110.066406 171.660156 L 109.855469 173.640625 C 109.125 179.5625 107.550781 184.824219 104.464844 189.9375 C 101.125 194.273438 97.160156 197.929688 92.136719 200.1875 C 86.625 201.933594 80.863281 202.773438 75.164062 203.667969 L 72.144531 204.191406 C 67.609375 204.71875 63.128906 204.753906 58.570312 204.757812 L 55.863281 204.792969 L 53.242188 204.796875 L 50.882812 204.808594 C 48.285156 204.550781 46.367188 203.921875 44.035156 202.753906 C 42.421875 200.367188 42.421875 200.367188 41.0625 197.492188 L 39.671875 194.644531 C 38.566406 191.824219 38.003906 189.273438 37.628906 186.277344 L 34.882812 186.277344 L 34.914062 188.023438 C 34.964844 193.035156 34.699219 197.796875 33.964844 202.753906 C 27.785156 204.347656 22.140625 204.867188 15.769531 204.8125 L 13.171875 204.835938 L 10.683594 204.828125 L 8.445312 204.824219 C 6.5 204.585938 6.5 204.585938 3.753906 202.753906 C 3.410156 200.234375 3.410156 200.234375 3.410156 196.949219 L 3.398438 195.128906 C 3.390625 193.101562 3.402344 191.074219 3.410156 189.046875 C 3.410156 187.597656 3.40625 186.148438 3.402344 184.699219 C 3.394531 180.753906 3.402344 176.8125 3.414062 172.867188 C 3.425781 168.75 3.421875 164.628906 3.417969 160.507812 C 3.417969 153.589844 3.425781 146.667969 3.445312 139.75 C 3.464844 131.738281 3.46875 123.730469 3.460938 115.722656 C 3.457031 108.027344 3.460938 100.335938 3.472656 92.640625 C 3.476562 89.363281 3.476562 86.085938 3.476562 82.804688 C 3.472656 78.945312 3.480469 75.085938 3.496094 71.226562 C 3.5 69.808594 3.5 68.390625 3.496094 66.96875 C 3.496094 65.039062 3.503906 63.105469 3.515625 61.175781 L 3.519531 57.894531 L 3.753906 55.371094 L 5.582031 53.542969 C 10.25 52.414062 14.945312 52.460938 19.71875 52.457031 M 39.460938 115.789062 C 37.207031 117.429688 37.207031 117.429688 35.796875 119.453125 C 34.582031 123.097656 34.535156 126.683594 34.367188 130.496094 L 34.253906 133.019531 C 33.96875 140.054688 33.839844 147.085938 33.792969 154.125 L 33.757812 157.167969 C 33.742188 164.59375 33.742188 164.59375 35.796875 171.628906 C 37.671875 173.742188 37.671875 173.742188 40.375 175.292969 C 42.996094 175.640625 45.253906 175.785156 47.871094 175.746094 L 50.035156 175.75 C 51.539062 175.75 53.046875 175.738281 54.550781 175.71875 C 56.847656 175.699219 59.144531 175.695312 61.441406 175.710938 C 62.90625 175.707031 64.371094 175.699219 65.839844 175.6875 L 67.90625 175.695312 C 70.957031 175.640625 73.199219 175.355469 75.976562 174.066406 C 78.117188 172.546875 78.117188 172.546875 79.742188 169.800781 C 80.039062 167.601562 80.039062 167.601562 80.023438 165.121094 L 80.070312 162.230469 L 80.082031 159.109375 C 80.09375 158.050781 80.101562 156.992188 80.109375 155.898438 C 80.121094 153.65625 80.128906 151.410156 80.132812 149.164062 C 80.144531 145.734375 80.1875 142.308594 80.234375 138.878906 C 80.246094 136.695312 80.25 134.515625 80.253906 132.335938 L 80.308594 129.230469 C 80.34375 124.167969 80.34375 124.167969 78.824219 119.421875 C 77.242188 117.386719 75.585938 115.996094 73.273438 114.859375 C 67.761719 113.9375 62.382812 113.683594 56.796875 113.730469 L 54.183594 113.710938 C 48.964844 113.722656 44.441406 114.203125 39.460938 115.789062 M 382.390625 52.457031 L 384.679688 52.421875 L 386.914062 52.417969 L 388.914062 52.402344 C 391.03125 52.625 391.03125 52.625 396.523438 54.457031 L 397.441406 102.972656 L 399.273438 102.972656 L 400.113281 100.5 L 401.273438 97.253906 L 402.402344 94.035156 C 403.847656 91.074219 403.847656 91.074219 406.082031 88.929688 C 410.484375 86.082031 414.730469 85.703125 419.910156 85.378906 C 432.027344 85.101562 446.097656 86.148438 456.953125 91.988281 C 462 95.53125 465.964844 99.382812 468.855469 104.863281 C 472.832031 113.941406 473.578125 123.320312 473.554688 133.140625 L 473.554688 135.421875 C 473.554688 137.003906 473.554688 138.582031 473.550781 140.164062 C 473.546875 142.546875 473.550781 144.929688 473.558594 147.3125 C 473.570312 170.972656 473.570312 170.972656 470.511719 180.15625 L 469.898438 182.03125 C 468.195312 186.957031 466.265625 190.945312 462.445312 194.515625 C 455.707031 200.148438 448.503906 202.191406 440 203.730469 C 434.046875 204.703125 428.238281 204.824219 422.21875 204.757812 L 419.175781 204.753906 C 410.347656 204.707031 410.347656 204.707031 406.597656 203.667969 C 402.277344 198.8125 400.535156 192.300781 398.355469 186.277344 L 397.441406 186.277344 L 397.335938 189.816406 C 397.277344 191.34375 397.214844 192.875 397.152344 194.402344 L 397.089844 196.734375 L 396.992188 198.972656 L 396.921875 201.035156 L 396.523438 202.753906 C 393.777344 204.585938 393.777344 204.585938 391.242188 204.824219 L 388.199219 204.828125 L 384.882812 204.835938 L 381.417969 204.8125 L 377.953125 204.835938 L 374.636719 204.828125 L 371.59375 204.824219 C 369.058594 204.585938 369.058594 204.585938 366.3125 202.753906 C 365.945312 200.828125 365.945312 200.828125 365.917969 198.390625 L 365.859375 195.578125 L 365.84375 192.457031 L 365.792969 189.136719 C 365.75 186.082031 365.722656 183.027344 365.699219 179.972656 C 365.675781 177.386719 365.644531 174.800781 365.613281 172.21875 C 365.339844 148.65625 365.304688 125.089844 365.285156 101.523438 L 365.273438 93.171875 C 365.269531 88.75 365.269531 84.328125 365.273438 79.90625 C 365.273438 78.269531 365.273438 76.628906 365.273438 74.988281 C 365.269531 72.730469 365.273438 70.472656 365.277344 68.210938 L 365.273438 66.230469 C 365.289062 62.230469 365.597656 58.394531 366.3125 54.457031 L 367.226562 53.542969 C 372.289062 52.601562 377.25 52.460938 382.390625 52.457031 M 402.144531 116.164062 C 400.042969 117.730469 398.769531 119.023438 397.441406 121.28125 C 396.167969 125.796875 396.359375 130.441406 396.339844 135.09375 L 396.324219 137.796875 C 396.316406 139.683594 396.308594 141.566406 396.304688 143.453125 C 396.296875 146.324219 396.269531 149.199219 396.238281 152.070312 C 396.234375 153.90625 396.226562 155.742188 396.222656 157.578125 L 396.191406 160.164062 C 396.207031 165.28125 396.679688 168.996094 399.273438 173.460938 C 400.765625 174.90625 400.765625 174.90625 402.933594 175.292969 C 405.425781 175.5 407.816406 175.613281 410.308594 175.632812 C 411.023438 175.640625 411.734375 175.648438 412.46875 175.65625 C 413.976562 175.667969 415.484375 175.679688 416.988281 175.683594 C 419.285156 175.691406 421.578125 175.738281 423.875 175.785156 C 425.339844 175.792969 426.808594 175.800781 428.277344 175.804688 L 430.339844 175.859375 C 432.585938 175.886719 432.585938 175.886719 435.894531 175.292969 C 438.117188 173.96875 439.542969 172.589844 441.386719 170.714844 C 442.488281 168.515625 442.429688 167.117188 442.449219 164.660156 L 442.476562 162.003906 L 442.488281 159.117188 L 442.503906 156.15625 C 442.511719 154.082031 442.519531 152.007812 442.523438 149.933594 C 442.53125 146.773438 442.558594 143.609375 442.589844 140.449219 C 442.59375 138.433594 442.597656 136.417969 442.601562 134.402344 L 442.636719 131.546875 C 442.625 127.636719 442.570312 124.042969 441.195312 120.347656 C 439.726562 117.585938 439.726562 117.585938 437.527344 115.871094 C 434.339844 114.625 431.453125 114.480469 428.082031 114.511719 L 426.105469 114.5 C 424.726562 114.5 423.351562 114.503906 421.976562 114.515625 C 419.878906 114.53125 417.78125 114.515625 415.683594 114.5 C 414.34375 114.5 413 114.503906 411.660156 114.511719 L 409.773438 114.492188 C 406.820312 114.535156 404.8125 114.851562 402.144531 116.164062 M 293.042969 85.523438 C 307.363281 85.128906 322.746094 85.332031 336.097656 91.074219 C 341.265625 94.019531 345.507812 98.113281 348.917969 102.972656 C 352.890625 110.640625 353.777344 118.425781 353.738281 126.941406 L 353.742188 129.53125 C 353.742188 131.324219 353.742188 133.117188 353.734375 134.910156 C 353.722656 137.65625 353.734375 140.40625 353.742188 143.152344 C 353.742188 144.898438 353.742188 146.648438 353.738281 148.394531 L 353.75 150.882812 L 353.730469 153.1875 C 353.730469 153.859375 353.726562 154.527344 353.726562 155.214844 C 353.492188 156.984375 353.492188 156.984375 351.664062 159.730469 C 349.226562 159.992188 347 160.074219 344.5625 160.042969 L 342.34375 160.042969 C 339.914062 160.039062 337.488281 160.023438 335.0625 160 C 333.378906 159.992188 331.699219 159.988281 330.019531 159.988281 C 325.589844 159.976562 321.164062 159.949219 316.734375 159.917969 C 312.21875 159.890625 307.703125 159.878906 303.183594 159.863281 C 294.320312 159.832031 285.453125 159.789062 276.585938 159.730469 C 276.722656 161.195312 276.863281 162.664062 277.003906 164.132812 L 277.234375 166.609375 C 277.542969 169.226562 277.894531 171.226562 279.335938 173.460938 C 282.789062 174.425781 286.152344 174.515625 289.726562 174.5625 L 293.226562 174.621094 L 296.976562 174.664062 L 300.835938 174.722656 C 304.210938 174.773438 307.589844 174.820312 310.964844 174.863281 C 314.414062 174.910156 317.863281 174.960938 321.3125 175.011719 C 328.070312 175.109375 334.832031 175.203125 341.59375 175.292969 C 343.457031 179.023438 342.675781 183.835938 342.679688 187.9375 L 342.714844 190.96875 L 342.71875 193.902344 L 342.730469 196.585938 C 342.488281 199.3125 341.960938 201.253906 340.675781 203.667969 C 337.925781 204.585938 336.085938 204.707031 333.214844 204.71875 L 330.292969 204.734375 L 327.128906 204.738281 L 323.851562 204.75 C 321.554688 204.753906 319.257812 204.753906 316.960938 204.753906 C 313.492188 204.757812 310.019531 204.773438 306.546875 204.792969 C 275.582031 204.863281 275.582031 204.863281 263.769531 199.09375 C 259.089844 196.351562 255.28125 192.914062 252.15625 188.472656 C 246.847656 178.800781 246.300781 167.882812 246.050781 157.109375 L 245.988281 154.574219 C 245.945312 152.816406 245.902344 151.058594 245.863281 149.300781 C 245.800781 146.644531 245.730469 143.988281 245.660156 141.332031 C 245.023438 115.867188 245.023438 115.867188 250.953125 103.890625 C 254.070312 98.707031 257.890625 94.507812 263.0625 91.332031 C 272.414062 87.011719 282.867188 85.84375 293.042969 85.523438 M 280.304688 117.003906 C 278.035156 119.949219 277.230469 122.199219 276.585938 125.859375 C 276.851562 127.695312 277.148438 129.53125 277.503906 131.351562 C 283.597656 131.375 289.691406 131.390625 295.785156 131.402344 C 297.863281 131.40625 299.9375 131.414062 302.011719 131.421875 C 304.988281 131.433594 307.964844 131.4375 310.941406 131.441406 L 313.765625 131.457031 L 316.375 131.457031 L 318.679688 131.460938 C 320.597656 131.472656 320.597656 131.472656 322.367188 130.4375 C 322.332031 128.527344 322.273438 126.621094 322.191406 124.714844 L 322.097656 121.496094 L 321.449219 118.535156 C 319.621094 116.398438 319.621094 116.398438 316.871094 114.875 C 314.1875 114.507812 311.855469 114.339844 309.175781 114.355469 L 306.949219 114.339844 C 305.402344 114.332031 303.851562 114.335938 302.304688 114.347656 C 299.941406 114.359375 297.582031 114.328125 295.21875 114.292969 C 293.707031 114.292969 292.199219 114.296875 290.691406 114.300781 L 288.5625 114.261719 C 284.914062 114.324219 283.199219 114.714844 280.304688 117.003906 M 689.503906 88.328125 L 692.375 88.894531 C 697.324219 90.117188 701.140625 92.300781 705.03125 95.589844 C 708.976562 99.589844 711.554688 103.929688 713.214844 109.300781 C 714.921875 116.460938 715.53125 123.144531 715.46875 130.496094 L 715.472656 133.804688 C 715.46875 136.097656 715.460938 138.390625 715.445312 140.683594 C 715.425781 144.160156 715.425781 147.636719 715.433594 151.113281 C 715.429688 153.355469 715.421875 155.597656 715.414062 157.839844 L 715.414062 160.941406 C 715.335938 169.984375 714.929688 178.929688 710.84375 187.136719 C 707.527344 192.660156 703.628906 196.15625 698.027344 199.265625 C 686.910156 204.457031 674.640625 204.804688 662.609375 204.8125 L 660.621094 204.816406 C 635.449219 204.777344 635.449219 204.777344 624.5625 198.507812 L 622.667969 197.261719 L 620.886719 196.132812 C 616.488281 192.894531 614.164062 188.6875 611.878906 183.800781 C 610.074219 178.917969 609.457031 174.039062 608.933594 168.882812 L 608.472656 165.628906 C 607.566406 158.40625 607.742188 151.089844 607.699219 143.820312 C 607.683594 141.929688 607.65625 140.039062 607.621094 138.144531 C 607.402344 126.300781 607.726562 115.785156 612.59375 104.804688 C 615.53125 99.730469 618.613281 95.304688 623.523438 91.988281 C 642.75 81.691406 668.882812 84.132812 689.503906 88.328125 M 643.890625 115.925781 C 641.792969 117.570312 641.792969 117.570312 640.257812 119.890625 C 638.683594 124.457031 638.753906 128.703125 638.78125 133.5 L 638.773438 136.523438 C 638.773438 138.625 638.777344 140.730469 638.789062 142.832031 C 638.804688 146.046875 638.789062 149.261719 638.769531 152.480469 C 638.773438 154.527344 638.777344 156.570312 638.78125 158.617188 L 638.765625 161.527344 C 638.800781 165.292969 638.863281 168.199219 640.3125 171.699219 C 641.796875 173.464844 641.796875 173.464844 643.445312 174.644531 C 646.53125 175.589844 649.566406 175.570312 652.761719 175.566406 L 654.867188 175.578125 C 656.335938 175.585938 657.804688 175.585938 659.269531 175.582031 C 661.507812 175.578125 663.746094 175.597656 665.984375 175.621094 C 667.414062 175.625 668.84375 175.625 670.273438 175.625 L 672.289062 175.648438 C 675.289062 175.621094 677.449219 175.363281 680.175781 174.070312 L 682.175781 172.546875 L 683.816406 171.375 C 685.144531 169.746094 685.144531 169.746094 685.25 167.105469 L 685.226562 163.800781 L 685.222656 161.996094 C 685.210938 160.058594 685.1875 158.121094 685.152344 156.183594 C 685.140625 154.851562 685.125 153.519531 685.113281 152.1875 C 685.078125 148.898438 685.023438 145.605469 684.960938 142.316406 C 684.925781 140.65625 684.902344 138.992188 684.882812 137.332031 C 684.839844 134.691406 684.777344 132.046875 684.695312 129.40625 L 684.65625 127.117188 C 684.5 123.386719 684.097656 121.441406 682.25 118.085938 C 680.574219 115.75 680.574219 115.75 678.515625 114.875 C 676.175781 114.761719 673.832031 114.703125 671.488281 114.6875 L 669.371094 114.671875 C 667.894531 114.664062 666.417969 114.660156 664.9375 114.65625 C 662.683594 114.644531 660.429688 114.621094 658.175781 114.589844 C 656.738281 114.582031 655.300781 114.578125 653.863281 114.574219 L 651.828125 114.539062 C 648.90625 114.550781 646.609375 114.820312 643.890625 115.925781 M 530.195312 85.582031 C 532.273438 85.488281 534.351562 85.460938 536.429688 85.460938 L 538.320312 85.457031 C 539.644531 85.457031 540.96875 85.457031 542.289062 85.460938 C 544.316406 85.46875 546.34375 85.460938 548.375 85.457031 C 549.65625 85.457031 550.941406 85.457031 552.222656 85.460938 L 555.777344 85.464844 C 558.578125 85.582031 558.578125 85.582031 560.410156 86.496094 L 561.324219 104.804688 C 563.242188 100.335938 564.980469 95.953125 566.582031 91.378906 C 568.085938 88.585938 569.671875 87.339844 572.3125 85.582031 C 575.113281 85.136719 575.113281 85.136719 578.207031 85.160156 L 581.601562 85.167969 L 585.128906 85.238281 L 588.65625 85.242188 C 598.773438 85.339844 598.773438 85.339844 602.523438 87.414062 C 603.859375 89.324219 604.308594 90.679688 604.59375 92.984375 L 604.597656 95.011719 L 604.605469 97.265625 L 604.585938 99.597656 L 604.605469 101.898438 L 604.597656 104.164062 L 604.59375 106.203125 C 604.277344 109.214844 603.410156 111.984375 602.523438 114.875 L 599.488281 114.929688 C 595.757812 115 592.03125 115.082031 588.304688 115.164062 C 586.691406 115.199219 585.078125 115.234375 583.46875 115.261719 C 581.148438 115.304688 578.828125 115.355469 576.507812 115.410156 L 574.332031 115.441406 C 571.492188 115.519531 568.8125 115.753906 566.039062 116.386719 C 563.914062 117.550781 563.914062 117.550781 562.441406 119.828125 C 560.875 124.441406 560.886719 128.75 560.855469 133.59375 L 560.804688 136.71875 C 560.761719 140.019531 560.722656 143.324219 560.695312 146.628906 C 560.664062 148.773438 560.632812 150.921875 560.601562 153.070312 C 560.476562 161.863281 560.382812 170.65625 560.457031 179.453125 L 560.480469 182.84375 C 560.496094 184.972656 560.523438 187.101562 560.554688 189.230469 C 560.59375 194.390625 560.503906 198.839844 558.578125 203.671875 C 554.503906 205.707031 548.917969 204.753906 544.445312 204.757812 L 540.964844 204.792969 L 537.636719 204.796875 L 534.578125 204.808594 C 532.027344 204.585938 532.027344 204.585938 529.28125 202.753906 C 528.941406 200.714844 528.941406 200.714844 528.945312 198.128906 L 528.929688 195.160156 L 528.953125 191.890625 L 528.949219 188.457031 C 528.945312 185.34375 528.957031 182.234375 528.972656 179.125 C 528.984375 175.875 528.984375 172.621094 528.984375 169.371094 C 528.988281 163.914062 529 158.453125 529.023438 152.996094 C 529.050781 145.980469 529.058594 138.964844 529.0625 131.949219 C 529.066406 125.929688 529.078125 119.910156 529.089844 113.890625 C 529.09375 111.949219 529.097656 110.007812 529.097656 108.066406 C 529.105469 104.460938 529.117188 100.851562 529.132812 97.242188 L 529.136719 93.96875 L 529.152344 91.007812 L 529.160156 88.421875 L 529.28125 86.496094 Z M 167.636719 85.582031 C 169.714844 85.488281 171.792969 85.460938 173.871094 85.460938 L 175.761719 85.457031 C 177.085938 85.457031 178.410156 85.457031 179.730469 85.460938 C 181.757812 85.46875 183.785156 85.460938 185.8125 85.457031 C 187.097656 85.457031 188.378906 85.457031 189.664062 85.460938 L 193.21875 85.464844 C 196.019531 85.582031 196.019531 85.582031 197.851562 86.496094 L 198.765625 103.890625 L 200.597656 104.804688 L 201.226562 101.257812 C 202.332031 96.34375 204.011719 91.503906 207.003906 87.414062 C 210.496094 85.652344 213.394531 85.347656 217.277344 85.339844 L 220.550781 85.332031 L 223.941406 85.351562 L 227.335938 85.332031 L 230.609375 85.339844 L 233.585938 85.34375 C 236.371094 85.589844 238.371094 86.203125 240.878906 87.414062 L 241.796875 88.328125 C 241.886719 90.214844 241.914062 92.105469 241.917969 93.992188 L 241.921875 97.472656 L 241.914062 99.296875 C 241.910156 101.136719 241.914062 102.972656 241.921875 104.8125 L 241.917969 108.296875 L 241.914062 111.515625 L 241.796875 113.960938 L 240.882812 114.875 C 238.371094 114.976562 235.882812 115.023438 233.375 115.035156 L 228.703125 115.101562 C 226.242188 115.132812 223.777344 115.160156 221.316406 115.171875 C 218.945312 115.1875 216.574219 115.222656 214.203125 115.265625 L 211.992188 115.257812 C 208.394531 115.339844 206.253906 115.710938 202.949219 117.308594 C 200.484375 119.257812 200.484375 119.257812 199.546875 121.855469 C 198.632812 125.472656 198.511719 128.878906 198.53125 132.582031 L 198.523438 134.84375 C 198.515625 136.457031 198.511719 138.070312 198.515625 139.679688 C 198.515625 142.234375 198.503906 144.785156 198.488281 147.335938 C 198.445312 154.582031 198.421875 161.832031 198.417969 169.082031 C 198.410156 173.519531 198.390625 177.960938 198.355469 182.398438 C 198.347656 184.09375 198.347656 185.785156 198.351562 187.476562 C 198.355469 189.835938 198.339844 192.195312 198.320312 194.554688 L 198.34375 196.679688 C 198.3125 198.625 198.3125 198.625 197.851562 201.839844 C 196.148438 203.648438 196.148438 203.648438 194.1875 204.585938 C 191.628906 204.910156 191.628906 204.910156 188.71875 204.886719 L 185.539062 204.871094 L 182.230469 204.8125 L 178.90625 204.800781 C 170.808594 204.726562 170.808594 204.726562 167.636719 203.667969 C 166.488281 201.375 166.605469 199.816406 166.605469 197.246094 L 166.597656 194.300781 L 166.601562 191.058594 L 166.597656 187.652344 C 166.59375 184.566406 166.59375 181.480469 166.597656 178.390625 C 166.601562 175.167969 166.597656 171.941406 166.597656 168.71875 C 166.59375 163.300781 166.597656 157.886719 166.601562 152.472656 C 166.605469 146.203125 166.605469 139.933594 166.601562 133.664062 C 166.597656 128.289062 166.59375 122.914062 166.597656 117.539062 C 166.597656 114.328125 166.597656 111.113281 166.597656 107.898438 C 166.59375 104.320312 166.597656 100.738281 166.601562 97.160156 L 166.597656 93.910156 L 166.605469 90.972656 L 166.605469 88.40625 L 166.722656 86.496094 Z M 502.214844 85.351562 L 505.691406 85.296875 L 509.019531 85.28125 L 512.078125 85.253906 C 514.632812 85.582031 514.632812 85.582031 516.144531 86.730469 C 517.378906 88.328125 517.378906 88.328125 517.71875 90.144531 C 517.71875 90.839844 517.714844 91.535156 517.714844 92.25 L 517.730469 94.675781 L 517.703125 97.328125 L 517.710938 100.132812 C 517.714844 103.203125 517.695312 106.269531 517.679688 109.339844 C 517.675781 111.480469 517.671875 113.617188 517.671875 115.757812 C 517.667969 120.25 517.65625 124.746094 517.636719 129.238281 C 517.609375 134.964844 517.601562 140.695312 517.597656 146.421875 C 517.589844 151.914062 517.578125 157.402344 517.5625 162.890625 L 517.558594 166.023438 C 517.492188 196.839844 517.492188 196.839844 514.632812 204.585938 C 510.898438 204.632812 507.167969 204.664062 503.4375 204.6875 C 502.167969 204.695312 500.898438 204.707031 499.632812 204.722656 C 497.804688 204.746094 495.980469 204.753906 494.15625 204.765625 L 490.828125 204.792969 C 488.082031 204.585938 488.082031 204.585938 485.332031 202.753906 C 484.988281 200.796875 484.988281 200.796875 484.984375 198.324219 L 484.960938 195.488281 L 484.976562 192.367188 L 484.964844 189.089844 C 484.957031 186.113281 484.957031 183.140625 484.964844 180.167969 C 484.972656 177.058594 484.964844 173.945312 484.960938 170.835938 C 484.957031 165.609375 484.960938 160.378906 484.976562 155.152344 C 484.992188 149.113281 484.984375 143.074219 484.96875 137.03125 C 484.957031 131.847656 484.957031 126.660156 484.964844 121.476562 C 484.96875 118.378906 484.96875 115.28125 484.960938 112.183594 C 484.953125 108.730469 484.960938 105.273438 484.976562 101.816406 L 484.960938 98.710938 L 484.984375 95.851562 L 484.988281 93.375 C 485.414062 90.546875 486.425781 88.808594 488.082031 86.496094 C 492.160156 84.457031 497.730469 85.371094 502.214844 85.351562 M 132.359375 85.460938 L 135.945312 85.457031 L 137.816406 85.460938 C 139.703125 85.46875 141.59375 85.460938 143.476562 85.457031 L 147.066406 85.460938 L 150.371094 85.464844 C 152.988281 85.582031 152.988281 85.582031 154.820312 86.496094 C 154.882812 101.625 154.929688 116.75 154.960938 131.875 C 154.972656 138.898438 154.996094 145.921875 155.027344 152.945312 C 155.054688 159.066406 155.070312 165.183594 155.078125 171.304688 C 155.082031 174.546875 155.089844 177.789062 155.109375 181.03125 C 155.132812 184.644531 155.132812 188.261719 155.132812 191.875 L 155.160156 195.148438 L 155.148438 198.121094 L 155.15625 200.714844 L 154.820312 202.753906 C 152.070312 204.585938 152.070312 204.585938 149.449219 204.808594 L 146.292969 204.796875 L 142.851562 204.792969 L 139.253906 204.757812 L 135.65625 204.753906 C 126.820312 204.714844 126.820312 204.714844 123.691406 203.667969 C 122.660156 201 122.65625 198.382812 122.652344 195.542969 L 122.640625 192.828125 L 122.640625 189.863281 L 122.632812 186.726562 C 122.625 183.300781 122.621094 179.875 122.621094 176.445312 L 122.613281 169.304688 C 122.605469 164.3125 122.605469 159.316406 122.605469 154.324219 C 122.605469 148.5625 122.597656 142.800781 122.582031 137.035156 C 122.570312 131.484375 122.5625 125.933594 122.566406 120.378906 C 122.566406 118.023438 122.5625 115.664062 122.554688 113.304688 C 122.542969 110.003906 122.546875 106.707031 122.554688 103.40625 C 122.546875 102.433594 122.542969 101.460938 122.535156 100.457031 C 122.558594 95.46875 122.78125 91.171875 124.605469 86.496094 C 127.214844 85.191406 129.445312 85.460938 132.359375 85.460938 " fill-opacity="1" fill-rule="nonzero"/></g><g clip-path="url(#94d8f9bf8f)"><path fill="#000000" d="M 55.882812 927.363281 L 59.386719 927.304688 C 67.585938 927.308594 67.585938 927.308594 70.710938 928.515625 C 74.035156 930.652344 76.082031 933.460938 77.914062 936.914062 C 78.90625 942 78.917969 946.914062 78.8125 952.0625 L 78.765625 954.539062 C 78.734375 956.257812 78.695312 957.972656 78.65625 959.691406 C 78.597656 962.324219 78.5625 964.953125 78.523438 967.585938 L 78.414062 972.601562 L 78.386719 974.988281 L 78.324219 977.199219 L 78.285156 979.144531 C 77.914062 980.855469 77.914062 980.855469 76.628906 982.398438 C 75.164062 983.601562 75.164062 983.601562 73.335938 984.515625 C 67.199219 985.40625 61.097656 985.554688 54.910156 985.605469 L 52.558594 985.640625 C 47.585938 985.648438 43.242188 985.3125 38.542969 983.601562 C 36.988281 981.855469 36.988281 981.855469 35.796875 979.023438 C 35.398438 975.722656 35.414062 972.449219 35.433594 969.128906 L 35.421875 966.222656 C 35.421875 964.203125 35.425781 962.179688 35.4375 960.15625 C 35.453125 957.066406 35.4375 953.972656 35.421875 950.882812 C 35.421875 948.917969 35.425781 946.949219 35.433594 944.980469 L 35.414062 942.1875 C 35.453125 938.554688 35.535156 935.734375 36.90625 932.351562 C 42.203125 926.390625 48.460938 927.320312 55.882812 927.359375 M 417.371094 927.542969 C 419.285156 927.53125 421.199219 927.503906 423.117188 927.476562 C 424.339844 927.46875 425.5625 927.464844 426.789062 927.460938 L 430.148438 927.4375 C 433.148438 927.761719 433.148438 927.761719 435.660156 928.925781 C 437.796875 930.5625 439.046875 931.894531 440.472656 934.167969 C 440.8125 936.328125 440.8125 936.328125 440.8125 938.742188 L 440.832031 941.492188 L 440.804688 944.441406 L 440.804688 947.484375 C 440.804688 949.605469 440.792969 951.730469 440.78125 953.851562 C 440.757812 957.101562 440.761719 960.355469 440.765625 963.609375 C 440.761719 965.667969 440.753906 967.726562 440.746094 969.789062 L 440.75 972.746094 L 440.722656 975.484375 L 440.710938 977.898438 C 440.472656 979.941406 440.472656 979.941406 438.640625 982.6875 C 434.875 984.734375 431.160156 984.824219 426.96875 984.855469 L 424.925781 984.882812 C 423.507812 984.894531 422.085938 984.902344 420.667969 984.90625 C 418.503906 984.917969 416.34375 984.960938 414.179688 985.007812 C 412.796875 985.019531 411.414062 985.023438 410.03125 985.027344 L 408.082031 985.082031 C 406.238281 985.066406 406.238281 985.066406 402.933594 984.515625 C 400.238281 982.839844 400.238281 982.839844 398.355469 979.941406 C 397.695312 976.511719 397.714844 973.15625 397.75 969.671875 L 397.734375 966.65625 C 397.730469 964.550781 397.738281 962.445312 397.757812 960.339844 C 397.785156 957.125 397.757812 953.914062 397.730469 950.699219 C 397.734375 948.652344 397.738281 946.605469 397.75 944.558594 L 397.71875 941.652344 C 397.824219 935.183594 397.824219 935.183594 399.320312 932.335938 C 400.511719 930.832031 400.511719 930.832031 402.933594 928.675781 C 407.578125 927.128906 412.511719 927.554688 417.371094 927.542969 M 655.078125 927.277344 L 658.464844 927.261719 L 661.980469 927.304688 C 663.132812 927.289062 664.289062 927.277344 665.480469 927.261719 C 673.683594 927.296875 673.683594 927.296875 676.816406 928.542969 C 678.851562 929.875 680.464844 931.539062 682.175781 933.253906 C 683.15625 936.101562 683.210938 938.78125 683.214844 941.773438 L 683.21875 944.679688 L 683.207031 947.785156 L 683.199219 950.972656 C 683.164062 958.035156 682.996094 965.101562 682.691406 972.160156 L 682.582031 974.742188 L 682.46875 977.109375 L 682.367188 979.175781 C 682.175781 980.855469 682.175781 980.855469 681.261719 982.6875 C 676.132812 984.617188 671.421875 984.773438 665.984375 984.6875 L 663.546875 984.667969 C 648.1875 984.480469 648.1875 984.480469 642.808594 982.6875 C 641.589844 980.8125 641.023438 979.363281 640.734375 977.144531 L 640.710938 975.125 L 640.675781 972.820312 L 640.671875 970.347656 L 640.652344 967.773438 C 640.644531 965.976562 640.636719 964.179688 640.636719 962.382812 C 640.632812 959.65625 640.601562 956.925781 640.566406 954.199219 C 640.5625 952.449219 640.558594 950.699219 640.554688 948.949219 L 640.515625 946.503906 C 640.550781 941.546875 641.332031 937.625 643.558594 933.171875 C 646.527344 928.371094 649.613281 927.296875 655.078125 927.277344 M 128.324219 44.0625 L 131.734375 44.085938 L 133.554688 44.09375 C 134.824219 44.097656 136.09375 44.113281 137.363281 44.128906 C 139.308594 44.160156 141.253906 44.167969 143.199219 44.175781 C 152.6875 44.238281 152.6875 44.238281 154.820312 45.304688 L 154.820312 72.765625 C 150.777344 74.785156 145.316406 73.890625 140.824219 73.902344 C 138.804688 73.910156 136.785156 73.9375 134.765625 73.96875 C 133.488281 73.972656 132.207031 73.976562 130.929688 73.980469 L 127.390625 74.007812 L 124.605469 73.679688 C 122.773438 70.933594 122.773438 70.933594 122.523438 68.480469 C 122.496094 65.332031 122.480469 62.183594 122.488281 59.035156 L 122.441406 55.703125 L 122.441406 52.511719 L 122.433594 49.585938 C 122.773438 47.132812 122.773438 47.132812 123.78125 45.445312 C 125.519531 44.386719 125.519531 44.386719 128.324219 44.0625 M 487.164062 44.386719 C 489.851562 44.152344 489.851562 44.152344 493.253906 44.144531 L 495.074219 44.140625 C 496.347656 44.140625 497.617188 44.140625 498.886719 44.148438 C 500.832031 44.160156 502.773438 44.148438 504.714844 44.136719 C 505.949219 44.136719 507.183594 44.140625 508.417969 44.144531 L 511.828125 44.152344 C 514.632812 44.386719 514.632812 44.386719 517.378906 46.21875 C 517.605469 48.464844 517.683594 50.714844 517.605469 52.96875 L 517.570312 54.949219 C 517.523438 56.921875 517.457031 58.894531 517.378906 60.867188 L 517.261719 64.210938 C 516.945312 69.71875 516.945312 69.71875 516.460938 71.851562 C 513.714844 73.679688 513.714844 73.679688 511.09375 73.917969 L 507.9375 73.925781 L 504.496094 73.929688 L 500.898438 73.910156 L 497.300781 73.929688 L 493.859375 73.925781 L 490.703125 73.917969 C 488.082031 73.679688 488.082031 73.679688 485.332031 71.851562 C 484.992188 69.320312 484.992188 69.320312 485 66.128906 L 485.003906 62.667969 L 485.046875 59.035156 L 485.039062 55.402344 C 485.078125 48.8125 485.078125 48.8125 485.332031 46.21875 Z M 487.164062 44.386719 " fill-opacity="1" fill-rule="nonzero"/></g></svg>