<svg xmlns="http://www.w3.org/2000/svg" xmlns:xlink="http://www.w3.org/1999/xlink" width="1080" zoomAndPan="magnify" viewBox="0 0 810 239.999995" height="320" preserveAspectRatio="xMidYMid meet" version="1.0"><defs><clipPath id="e82773ea15"><path d="M 0 53 L 746.25 53 L 746.25 229.007812 L 0 229.007812 Z M 0 53 " clip-rule="nonzero"/></clipPath><clipPath id="1533c51401"><path d="M 38 45 L 687 45 L 687 229.007812 L 38 229.007812 Z M 38 45 " clip-rule="nonzero"/></clipPath></defs><g clip-path="url(#e82773ea15)"><path fill="#ffffff" d="M -348.4375 501.328125 L -346.226562 501.328125 L -343.664062 501.316406 L -340.835938 501.328125 L -337.828125 501.320312 C -334.460938 501.3125 -331.089844 501.320312 -327.722656 501.328125 L -320.421875 501.320312 C -315.09375 501.3125 -309.765625 501.3125 -304.4375 501.320312 C -296.457031 501.324219 -288.480469 501.324219 -280.503906 501.320312 C -266.910156 501.308594 -253.316406 501.308594 -239.722656 501.316406 C -225.941406 501.320312 -212.15625 501.320312 -198.375 501.316406 L -195.742188 501.316406 L -185.121094 501.3125 C -150.132812 501.304688 -115.148438 501.304688 -80.167969 501.308594 C -40.308594 501.3125 -0.460938 501.3125 39.378906 501.308594 L 106.636719 501.304688 L 109.730469 501.304688 C 160.511719 501.316406 211.277344 501.320312 262.027344 501.320312 C 348.269531 501.335938 434.507812 501.332031 520.742188 501.3125 C 576.710938 501.320312 632.644531 501.316406 688.554688 501.308594 L 718.570312 501.3125 C 749.378906 501.328125 780.195312 501.328125 811.023438 501.308594 L 813.984375 501.308594 C 850.421875 501.296875 886.859375 501.300781 923.292969 501.316406 L 925.917969 501.316406 C 939.667969 501.320312 953.417969 501.320312 967.167969 501.3125 C 980.667969 501.308594 994.164062 501.308594 1007.664062 501.320312 C 1015.59375 501.324219 1023.519531 501.324219 1031.449219 501.316406 C 1036.699219 501.3125 1041.953125 501.3125 1047.207031 501.320312 C 1050.191406 501.324219 1053.175781 501.324219 1056.164062 501.320312 C 1059.359375 501.3125 1062.558594 501.320312 1065.757812 501.328125 L 1068.582031 501.316406 L 1071.144531 501.328125 L 1073.355469 501.328125 C 1075.234375 501.558594 1075.234375 501.558594 1077.980469 503.386719 C 1078.324219 505.894531 1078.324219 505.894531 1078.324219 509.167969 L 1078.335938 510.996094 C 1078.34375 513.042969 1078.332031 515.089844 1078.324219 517.136719 C 1078.324219 518.613281 1078.328125 520.09375 1078.332031 521.570312 C 1078.339844 525.667969 1078.335938 529.765625 1078.324219 533.863281 C 1078.3125 538.308594 1078.324219 542.753906 1078.328125 547.195312 C 1078.332031 554.996094 1078.332031 562.796875 1078.320312 570.597656 C 1078.308594 582.199219 1078.308594 593.800781 1078.3125 605.398438 C 1078.320312 624.910156 1078.316406 644.421875 1078.300781 663.929688 C 1078.285156 683.257812 1078.277344 702.585938 1078.277344 721.914062 L 1078.277344 740.167969 L 1078.273438 782.910156 C 1078.269531 813.101562 1078.253906 843.289062 1078.238281 873.480469 C 1078.203125 927.160156 1078.1875 980.855469 1078.199219 1034.5625 C 1078.195312 1075.789062 1078.183594 1117.019531 1078.171875 1158.25 C 1078.171875 1170.332031 1078.167969 1182.417969 1078.164062 1194.5 C 1078.160156 1219.917969 1078.152344 1245.339844 1078.140625 1270.757812 C 1078.132812 1281.277344 1078.128906 1291.792969 1078.128906 1302.3125 C 1078.128906 1311.023438 1078.125 1319.738281 1078.117188 1328.453125 C 1078.113281 1332.84375 1078.109375 1337.234375 1078.113281 1341.628906 C 1078.113281 1345.617188 1078.113281 1349.601562 1078.105469 1353.589844 C 1078.101562 1355.03125 1078.101562 1356.472656 1078.105469 1357.914062 C 1078.105469 1359.859375 1078.105469 1361.800781 1078.097656 1363.742188 L 1078.097656 1367.015625 C 1077.980469 1369.523438 1077.980469 1369.523438 1077.066406 1371.355469 C 1068.96875 1372.804688 1060.621094 1372.402344 1052.421875 1372.398438 L 1047.347656 1372.40625 C 1042.691406 1372.410156 1038.035156 1372.414062 1033.378906 1372.414062 C 1028.3125 1372.417969 1023.246094 1372.421875 1018.183594 1372.429688 C 1009.292969 1372.4375 1000.40625 1372.445312 991.519531 1372.449219 C 978.296875 1372.457031 965.074219 1372.46875 951.847656 1372.480469 C 929.554688 1372.503906 907.261719 1372.519531 884.96875 1372.535156 C 862.769531 1372.550781 840.570312 1372.566406 818.371094 1372.589844 L 816.273438 1372.589844 L 750.085938 1372.648438 C 749.367188 1372.648438 748.652344 1372.648438 747.914062 1372.648438 C 712.988281 1372.679688 678.0625 1372.703125 643.136719 1372.730469 C 581.78125 1372.726562 520.386719 1372.777344 458.957031 1372.878906 C 400.105469 1373.054688 341.289062 1373.105469 282.503906 1373.023438 C 128.542969 1373.148438 128.542969 1373.148438 -52.097656 1373.203125 L -60.90625 1373.203125 C -98.515625 1373.203125 -136.121094 1373.199219 -173.730469 1373.136719 L -175.714844 1373.136719 C -197.027344 1373.097656 -218.34375 1373.039062 -239.65625 1372.957031 C -250.839844 1372.914062 -262.019531 1372.882812 -273.203125 1372.863281 C -282.316406 1372.84375 -291.429688 1372.8125 -300.546875 1372.773438 C -305.839844 1372.75 -311.132812 1372.738281 -316.425781 1372.730469 C -321.230469 1372.722656 -326.035156 1372.707031 -330.839844 1372.679688 C -332.585938 1372.671875 -334.332031 1372.667969 -336.078125 1372.667969 C -338.449219 1372.671875 -340.816406 1372.65625 -343.183594 1372.636719 L -345.277344 1372.648438 C -347.183594 1372.621094 -347.183594 1372.621094 -350.316406 1372.269531 C -351.863281 1371.195312 -351.863281 1371.195312 -353.0625 1369.523438 C -353.40625 1367.210938 -353.40625 1367.210938 -353.402344 1364.375 L -353.421875 1361.101562 L -353.398438 1357.476562 C -353.398438 1356.195312 -353.402344 1354.914062 -353.40625 1353.632812 C -353.414062 1350.085938 -353.40625 1346.539062 -353.394531 1342.992188 C -353.382812 1339.140625 -353.390625 1335.289062 -353.394531 1331.4375 C -353.394531 1324.679688 -353.390625 1317.917969 -353.378906 1311.15625 C -353.359375 1301.101562 -353.355469 1291.042969 -353.355469 1280.984375 C -353.355469 1264.046875 -353.347656 1247.105469 -353.324219 1230.164062 C -353.304688 1213.324219 -353.292969 1196.484375 -353.289062 1179.644531 L -353.289062 1176.464844 L -353.28125 1160.480469 C -353.273438 1122.664062 -353.25 1084.847656 -353.21875 1047.03125 L -353.199219 1019.535156 L -353.195312 1016.089844 C -353.175781 988.761719 -353.160156 961.433594 -353.144531 934.105469 C -353.128906 908.457031 -353.117188 882.804688 -353.105469 857.152344 L -353.101562 853.859375 L -353.089844 824.488281 C -353.082031 801.292969 -353.070312 778.09375 -353.050781 754.898438 C -353.039062 729.4375 -353.023438 703.976562 -353 678.515625 C -352.976562 631.429688 -353.035156 584.351562 -353.695312 537.265625 C -353.734375 534.648438 -353.769531 532.03125 -353.800781 529.417969 C -353.84375 526.363281 -353.890625 523.308594 -353.941406 520.253906 L -353.996094 516.296875 L -354.054688 512.925781 C -353.976562 509.640625 -353.757812 506.601562 -353.0625 503.386719 C -350.316406 501.558594 -350.316406 501.558594 -348.4375 501.328125 M 125.78125 856.800781 C 125.761719 860.957031 125.742188 865.113281 125.734375 869.269531 C 125.726562 870.683594 125.722656 872.097656 125.714844 873.511719 C 125.703125 875.542969 125.695312 877.570312 125.691406 879.601562 L 125.679688 881.527344 C 125.679688 883.050781 125.726562 884.578125 125.78125 886.097656 L 126.699219 887.015625 C 129.007812 887.09375 131.289062 887.121094 133.597656 887.105469 L 135.6875 887.101562 C 137.898438 887.09375 140.109375 887.082031 142.320312 887.074219 C 143.816406 887.066406 145.3125 887.0625 146.808594 887.058594 C 150.480469 887.050781 154.15625 887.03125 157.828125 887.015625 L 157.828125 856.800781 L 142.835938 856.285156 L 138.105469 856.117188 C 136.871094 856.074219 135.636719 856.035156 134.402344 855.996094 L 132.453125 855.921875 C 129.007812 855.75 129.007812 855.75 125.78125 856.800781 M 487.433594 856.800781 C 487.414062 860.9375 487.394531 865.078125 487.386719 869.21875 C 487.378906 870.625 487.375 872.035156 487.367188 873.441406 C 487.355469 875.464844 487.347656 877.488281 487.34375 879.511719 L 487.332031 881.425781 C 487.285156 884.789062 487.285156 884.789062 488.351562 887.929688 L 520.394531 887.929688 C 521.78125 885.160156 521.316406 882.335938 521.199219 879.3125 L 521.136719 877.285156 C 521.0625 875.148438 520.988281 873.015625 520.910156 870.878906 C 520.863281 869.429688 520.8125 867.984375 520.765625 866.535156 C 520.648438 862.984375 520.523438 859.433594 520.394531 855.886719 C 515.996094 855.863281 511.597656 855.84375 507.195312 855.835938 C 505.699219 855.828125 504.203125 855.824219 502.703125 855.816406 C 500.554688 855.804688 498.40625 855.800781 496.253906 855.796875 L 494.21875 855.78125 C 490.710938 855.71875 490.710938 855.71875 487.433594 856.800781 M 17.746094 865.039062 L 19.578125 866.871094 L 17.734375 868.351562 C 13.203125 872.175781 9.023438 875.839844 6.539062 881.304688 C 4.914062 888.210938 5.507812 895.53125 5.84375 902.578125 L 8.460938 903.445312 C 13.039062 904.984375 13.039062 904.984375 15 906.242188 C 15.644531 907.445312 16.253906 908.664062 16.828125 909.902344 L 17.839844 911.804688 C 19.488281 915.113281 20.84375 918.0625 20.664062 921.804688 C 20.058594 924.976562 18.664062 926.800781 16.601562 929.246094 C 12.3125 934.359375 10.347656 940.164062 8.589844 946.527344 L 7.894531 948.984375 C 5.832031 956.984375 5.480469 964.609375 5.574219 972.808594 C 5.578125 974.148438 5.582031 975.484375 5.585938 976.824219 C 5.597656 980.300781 5.621094 983.78125 5.652344 987.257812 C 5.683594 990.824219 5.695312 994.390625 5.707031 997.957031 C 5.738281 1004.925781 5.78125 1011.890625 5.84375 1018.859375 C 10.097656 1018.878906 14.347656 1018.898438 18.601562 1018.90625 C 20.046875 1018.914062 21.492188 1018.917969 22.941406 1018.925781 C 25.019531 1018.9375 27.101562 1018.945312 29.179688 1018.945312 L 31.136719 1018.960938 C 33.953125 1018.960938 36.109375 1018.839844 38.804688 1017.941406 L 38.804688 1005.125 L 40.632812 1005.125 C 40.800781 1005.742188 40.96875 1006.359375 41.136719 1006.996094 L 41.835938 1009.472656 L 42.511719 1011.917969 C 43.742188 1015.3125 43.742188 1015.3125 46.128906 1017.941406 C 60.5 1020.707031 79.527344 1020.753906 93.738281 1017.027344 C 97.421875 1015.097656 100.109375 1012.804688 102.894531 1009.703125 L 102.894531 1007.871094 L 105.640625 1006.953125 C 106.992188 1004.839844 108.144531 1002.765625 109.300781 1000.546875 L 110.488281 998.566406 C 116.09375 988.699219 115.957031 977.015625 115.917969 965.9375 L 115.882812 961.863281 L 115.859375 957.605469 C 116.332031 934.785156 116.332031 934.785156 109.703125 913.335938 C 106.519531 908.386719 102.507812 905.398438 97.398438 902.578125 C 85.058594 896.703125 71.734375 897.023438 58.316406 896.800781 L 55.695312 896.71875 C 53.371094 896.699219 51.175781 896.746094 48.875 897.085938 C 46.070312 898.476562 46.070312 898.476562 44.296875 900.75 C 42.992188 902.976562 42.992188 902.976562 42.179688 905.382812 L 41.273438 907.761719 C 40.503906 909.96875 40.503906 909.96875 40.632812 912.652344 L 38.804688 912.652344 L 38.90625 910.585938 C 39.496094 896.71875 39.234375 884.964844 33.796875 872.074219 C 32.546875 869.070312 32.394531 868.117188 32.394531 865.039062 Z M 391.835938 864.324219 L 390.042969 864.378906 L 383.402344 864.582031 L 375.378906 864.828125 L 371.394531 864.949219 L 368.410156 865.039062 C 367.273438 894.65625 367.351562 924.277344 367.375 953.910156 C 367.378906 959.417969 367.378906 964.925781 367.375 970.4375 C 367.371094 975.804688 367.367188 981.171875 367.371094 986.542969 C 367.375 989.726562 367.371094 992.910156 367.371094 996.09375 C 367.367188 999.601562 367.371094 1003.109375 367.378906 1006.617188 L 367.371094 1009.792969 L 367.378906 1012.660156 L 367.378906 1015.164062 L 367.496094 1017.027344 L 368.410156 1017.941406 C 370.851562 1018.023438 373.269531 1018.046875 375.710938 1018.03125 L 377.921875 1018.027344 C 380.265625 1018.023438 382.605469 1018.011719 384.949219 1018 C 386.53125 1017.996094 388.117188 1017.992188 389.699219 1017.988281 C 393.589844 1017.976562 397.480469 1017.960938 401.371094 1017.941406 L 402.285156 1004.207031 L 404.789062 1011.628906 C 406.117188 1014.667969 407.214844 1016.542969 409.613281 1018.859375 C 412.320312 1019.289062 414.492188 1019.4375 417.195312 1019.371094 L 419.4375 1019.363281 C 421.011719 1019.355469 422.578125 1019.335938 424.148438 1019.304688 C 426.515625 1019.257812 428.882812 1019.246094 431.25 1019.242188 C 444.964844 1019.542969 444.964844 1019.542969 457.824219 1015.714844 C 463.003906 1012.246094 468.085938 1007.292969 471.296875 1001.917969 L 472.785156 998.714844 C 473.101562 998.042969 473.417969 997.367188 473.746094 996.671875 C 479.269531 984.082031 478.539062 970.976562 478.28125 957.515625 L 478.226562 954.03125 C 478.164062 950.386719 478.085938 946.738281 477.992188 943.09375 L 477.933594 939.628906 C 477.628906 929.496094 475.746094 920.960938 470.648438 912.144531 C 467.699219 907.8125 464.035156 905.023438 459.511719 902.464844 C 449.113281 897.808594 438.503906 896.363281 427.230469 896.308594 C 425.089844 896.285156 422.957031 896.195312 420.816406 896.101562 C 416.890625 896.019531 413.4375 896.128906 409.613281 897.085938 C 406.738281 899.792969 405.398438 902.546875 404.117188 906.242188 L 403.203125 908.074219 L 402.285156 907.15625 C 402.15625 904.378906 402.070312 901.597656 402.03125 898.816406 L 401.976562 896.269531 C 401.925781 893.566406 401.875 890.863281 401.828125 888.160156 C 401.765625 884.617188 401.699219 881.074219 401.628906 877.53125 L 401.59375 875.0625 C 401.515625 871.308594 401.386719 867.785156 400.457031 864.125 C 397.582031 864.125 394.710938 864.238281 391.835938 864.324219 M 637.191406 898.632812 L 634.191406 899.308594 C 629.464844 900.511719 625.335938 901.875 621.492188 904.949219 C 619.261719 907.167969 617.816406 909.621094 616.304688 912.367188 C 615.710938 913.40625 615.121094 914.449219 614.515625 915.523438 C 610.835938 922.960938 609.703125 930.210938 609.621094 938.441406 L 609.566406 941.320312 C 609.527344 943.320312 609.5 945.320312 609.472656 947.320312 C 609.4375 950.335938 609.378906 953.355469 609.320312 956.371094 C 608.738281 975.457031 608.738281 975.457031 611.78125 994.195312 L 612.660156 997.488281 C 614.925781 1003.640625 618.703125 1007.527344 623.601562 1011.691406 C 627.929688 1015.164062 631.34375 1017.058594 636.882812 1018.019531 C 645.585938 1019.285156 654.34375 1019.132812 663.121094 1019.097656 C 666.085938 1019.085938 669.050781 1019.097656 672.019531 1019.109375 C 673.9375 1019.109375 675.851562 1019.105469 677.769531 1019.101562 L 680.410156 1019.113281 C 687.386719 1019.066406 694.550781 1018.660156 700.9375 1015.652344 L 702.59375 1014.28125 L 702.59375 1012.449219 L 704.171875 1011.78125 C 706.683594 1010.382812 708.332031 1008.683594 710.320312 1006.613281 C 713.109375 1003.75 715.921875 1001.179688 719.074219 998.714844 C 720.496094 995.875 720.132812 992.867188 720.140625 989.746094 L 720.152344 987.511719 C 720.164062 985.066406 720.171875 982.617188 720.175781 980.171875 L 720.191406 975.066406 C 720.203125 971.488281 720.207031 967.914062 720.210938 964.339844 C 720.214844 959.773438 720.238281 955.207031 720.265625 950.640625 C 720.28125 947.121094 720.285156 943.601562 720.289062 940.082031 C 720.289062 938.398438 720.296875 936.714844 720.308594 935.035156 C 720.324219 932.671875 720.324219 930.304688 720.316406 927.941406 L 720.34375 925.859375 C 720.304688 920.84375 719.351562 916.316406 717.246094 911.734375 C 715.335938 909.761719 715.335938 909.761719 712.925781 908.65625 L 710.335938 907.285156 C 709.441406 906.84375 708.550781 906.40625 707.632812 905.957031 L 705.011719 904.574219 C 699.792969 901.871094 694.515625 899.6875 688.953125 897.792969 C 687.03125 897.085938 687.03125 897.085938 686.113281 896.171875 C 683.839844 896.023438 681.5625 895.929688 679.285156 895.886719 L 677.148438 895.84375 C 663.605469 895.628906 650.453125 895.621094 637.191406 898.632812 M 125.78125 897.085938 L 125.78125 1018.859375 L 157.828125 1018.859375 L 157.828125 898 C 147.15625 897.46875 136.46875 897.085938 125.78125 897.085938 M 169.730469 897.085938 C 168.804688 899.859375 168.699219 901.707031 168.699219 904.605469 L 168.691406 907.601562 L 168.695312 910.886719 L 168.691406 914.347656 C 168.6875 917.480469 168.6875 920.613281 168.691406 923.746094 C 168.695312 927.019531 168.691406 930.292969 168.691406 933.570312 C 168.6875 939.066406 168.691406 944.5625 168.695312 950.058594 C 168.699219 956.421875 168.699219 962.785156 168.695312 969.148438 C 168.691406 974.609375 168.6875 980.066406 168.691406 985.523438 C 168.695312 988.785156 168.691406 992.046875 168.691406 995.308594 C 168.6875 998.941406 168.691406 1002.574219 168.695312 1006.207031 L 168.691406 1009.507812 L 168.699219 1012.484375 L 168.699219 1015.089844 L 168.816406 1017.027344 L 169.730469 1017.941406 C 172.105469 1018.023438 174.453125 1018.046875 176.832031 1018.03125 L 178.980469 1018.027344 C 181.257812 1018.023438 183.535156 1018.011719 185.8125 1018 C 187.351562 1017.996094 188.890625 1017.992188 190.429688 1017.988281 C 194.210938 1017.976562 197.992188 1017.960938 201.777344 1017.941406 L 201.792969 1014.960938 C 201.84375 1005.679688 201.910156 996.398438 201.992188 987.117188 C 202.03125 982.34375 202.070312 977.574219 202.09375 972.800781 C 202.117188 968.195312 202.152344 963.589844 202.199219 958.984375 C 202.214844 957.226562 202.226562 955.472656 202.230469 953.714844 C 202.242188 951.253906 202.265625 948.789062 202.296875 946.328125 L 202.292969 944.140625 C 202.371094 939.414062 203.179688 936.058594 205.4375 931.878906 C 208.183594 930.046875 208.183594 930.046875 211.816406 929.667969 C 213.332031 929.59375 214.851562 929.53125 216.367188 929.476562 L 218.796875 929.367188 C 225.578125 929.097656 232.355469 929.070312 239.144531 929.164062 C 241.03125 929.183594 242.921875 929.164062 244.808594 929.132812 L 245.722656 928.214844 C 245.839844 926.0625 245.898438 923.9375 245.910156 921.78125 L 245.925781 919.828125 C 245.933594 918.460938 245.941406 917.097656 245.941406 915.730469 C 245.953125 913.636719 245.980469 911.542969 246.011719 909.449219 C 246.015625 908.125 246.019531 906.796875 246.023438 905.472656 L 246.058594 903.570312 C 246.082031 901.609375 246.082031 901.609375 245.722656 898.917969 C 243.195312 896.917969 243.195312 896.917969 240.609375 896.863281 L 237.789062 896.875 L 234.675781 896.878906 L 231.417969 896.914062 L 228.222656 896.914062 C 222.398438 896.945312 216.691406 897.082031 210.933594 898 C 207.363281 900.992188 205.980469 905.292969 204.277344 909.535156 C 203.429688 911.933594 203.429688 911.933594 203.605469 915.398438 L 201.777344 915.398438 L 201.808594 911.824219 L 201.832031 907.214844 L 201.855469 904.855469 L 201.867188 902.613281 L 201.878906 900.535156 L 201.777344 898.917969 L 200.859375 898 C 199.570312 897.863281 198.277344 897.765625 196.984375 897.710938 L 194.542969 897.59375 L 191.933594 897.488281 L 189.300781 897.367188 C 182.773438 897.09375 176.265625 896.976562 169.730469 897.085938 M 263.113281 903.917969 C 257.90625 907.9375 253.886719 912.960938 251.023438 918.863281 C 248.339844 926.394531 248.183594 933.425781 248.195312 941.363281 L 248.183594 945.195312 C 248.175781 947.863281 248.175781 950.53125 248.179688 953.199219 C 248.1875 956.589844 248.171875 959.980469 248.148438 963.371094 C 248.136719 966.007812 248.136719 968.640625 248.136719 971.277344 C 248.136719 973.125 248.125 974.972656 248.113281 976.820312 C 248.152344 984.925781 248.574219 993.078125 252.613281 1000.296875 C 254.425781 1003.089844 256.265625 1005.429688 258.542969 1007.871094 C 260.507812 1008.515625 260.507812 1008.515625 262.203125 1008.785156 L 263.121094 1011.535156 C 266.570312 1014.417969 269.136719 1015.855469 273.566406 1016.722656 C 282.398438 1017.792969 291.050781 1018.1875 299.941406 1018.121094 L 304.007812 1018.113281 C 307.515625 1018.105469 311.027344 1018.089844 314.535156 1018.066406 C 318.140625 1018.050781 321.742188 1018.039062 325.347656 1018.03125 C 332.375 1018.011719 339.40625 1017.980469 346.4375 1017.941406 C 346.460938 1013.65625 346.476562 1009.371094 346.488281 1005.082031 C 346.492188 1003.625 346.5 1002.164062 346.503906 1000.707031 C 346.515625 998.613281 346.523438 996.519531 346.527344 994.425781 L 346.539062 992.4375 C 346.539062 990.867188 346.492188 989.296875 346.4375 987.726562 L 345.519531 986.8125 C 343.683594 986.703125 341.839844 986.660156 339.996094 986.636719 L 336.414062 986.59375 L 334.488281 986.574219 C 332.5 986.554688 330.515625 986.53125 328.53125 986.503906 C 324.3125 986.449219 320.097656 986.398438 315.878906 986.355469 C 311 986.300781 306.121094 986.242188 301.242188 986.179688 C 299.285156 986.15625 297.328125 986.136719 295.371094 986.117188 L 291.769531 986.070312 L 288.59375 986.035156 C 286.007812 985.898438 286.007812 985.898438 283.261719 984.980469 C 282.957031 983.492188 282.648438 982.007812 282.347656 980.519531 L 281.832031 978.007812 C 281.429688 975.824219 281.429688 975.824219 281.429688 973.996094 L 284.273438 974 C 293.101562 974.019531 301.925781 974.03125 310.75 974.042969 C 315.289062 974.046875 319.824219 974.054688 324.363281 974.0625 C 328.738281 974.074219 333.113281 974.078125 337.488281 974.082031 C 339.160156 974.082031 340.835938 974.085938 342.507812 974.089844 C 344.84375 974.097656 347.175781 974.097656 349.511719 974.097656 L 351.628906 974.109375 C 353.257812 974.105469 354.882812 974.054688 356.507812 973.996094 L 357.421875 973.078125 C 357.519531 971.847656 357.550781 970.613281 357.554688 969.382812 L 357.574219 967 L 357.578125 964.394531 L 357.585938 961.714844 C 357.589844 959.828125 357.59375 957.945312 357.59375 956.0625 C 357.59375 953.214844 357.613281 950.371094 357.628906 947.523438 C 357.945312 931.464844 357.945312 931.464844 354.105469 916.027344 C 351.125 910.859375 347.117188 906.898438 342.074219 903.742188 C 330.222656 897.457031 318.890625 896.617188 305.738281 896.679688 C 303.132812 896.683594 300.53125 896.660156 297.925781 896.628906 C 285.832031 896.585938 273.71875 897.394531 263.113281 903.917969 M 488.351562 897.085938 L 487.433594 898 C 487.351562 899.554688 487.3125 901.105469 487.320312 902.660156 L 487.3125 905.71875 L 487.316406 909.101562 L 487.3125 912.640625 C 487.308594 915.855469 487.308594 919.070312 487.3125 922.285156 C 487.316406 925.640625 487.3125 928.996094 487.3125 932.351562 C 487.308594 937.992188 487.3125 943.628906 487.316406 949.265625 C 487.320312 955.792969 487.320312 962.316406 487.316406 968.84375 C 487.308594 974.4375 487.308594 980.03125 487.3125 985.625 C 487.3125 988.96875 487.3125 992.316406 487.3125 995.660156 C 487.308594 999.386719 487.3125 1003.117188 487.316406 1006.84375 L 487.3125 1010.226562 L 487.320312 1013.285156 L 487.320312 1015.957031 L 487.433594 1017.941406 L 488.351562 1018.859375 C 490.714844 1018.949219 493.054688 1018.984375 495.417969 1018.980469 L 497.5625 1018.980469 C 499.0625 1018.980469 500.5625 1018.980469 502.0625 1018.976562 C 504.363281 1018.972656 506.667969 1018.976562 508.96875 1018.984375 C 510.421875 1018.984375 511.875 1018.980469 513.328125 1018.980469 L 515.429688 1018.984375 C 517.085938 1018.976562 518.742188 1018.921875 520.394531 1018.859375 L 521.3125 1017.941406 C 521.390625 1016.378906 521.402344 1014.8125 521.386719 1013.246094 L 521.367188 1010.160156 L 521.332031 1006.742188 L 521.304688 1003.171875 C 521.28125 999.929688 521.25 996.6875 521.21875 993.445312 C 521.1875 990.058594 521.164062 986.675781 521.136719 983.292969 C 521.082031 976.875 521.027344 970.460938 520.96875 964.046875 C 520.90625 956.75 520.84375 949.449219 520.785156 942.148438 C 520.660156 927.128906 520.53125 912.105469 520.394531 897.085938 C 515.847656 897.0625 511.300781 897.046875 506.753906 897.035156 C 505.207031 897.03125 503.660156 897.023438 502.109375 897.015625 C 499.890625 897.007812 497.671875 897 495.449219 896.996094 L 493.339844 896.984375 C 491.675781 896.984375 490.015625 897.03125 488.351562 897.085938 M 532.296875 897.085938 L 531.382812 898 C 531.300781 899.542969 531.261719 901.082031 531.265625 902.625 L 531.257812 905.660156 L 531.265625 909.015625 L 531.257812 912.53125 C 531.257812 915.71875 531.257812 918.910156 531.257812 922.097656 C 531.261719 925.429688 531.257812 928.761719 531.257812 932.089844 C 531.257812 937.683594 531.257812 943.277344 531.265625 948.871094 C 531.269531 955.347656 531.269531 961.828125 531.261719 968.304688 C 531.257812 973.855469 531.257812 979.40625 531.257812 984.957031 C 531.261719 988.273438 531.261719 991.59375 531.257812 994.914062 C 531.257812 998.613281 531.257812 1002.3125 531.265625 1006.011719 L 531.257812 1009.371094 L 531.265625 1012.402344 L 531.269531 1015.058594 L 531.382812 1017.027344 L 532.296875 1017.941406 C 534.671875 1018.023438 537.023438 1018.046875 539.398438 1018.03125 L 541.550781 1018.027344 C 543.824219 1018.023438 546.101562 1018.011719 548.378906 1018 C 549.917969 1017.996094 551.457031 1017.992188 552.996094 1017.988281 C 556.78125 1017.976562 560.5625 1017.960938 564.34375 1017.941406 L 564.359375 1014.921875 C 564.414062 1005.519531 564.480469 996.113281 564.558594 986.710938 C 564.601562 981.878906 564.636719 977.042969 564.660156 972.210938 C 564.683594 967.542969 564.722656 962.878906 564.769531 958.210938 C 564.78125 956.433594 564.792969 954.652344 564.800781 952.875 C 564.808594 950.378906 564.832031 947.886719 564.863281 945.390625 L 564.859375 943.167969 C 564.917969 939.761719 565.226562 937.457031 566.484375 934.238281 C 568.007812 931.878906 568.007812 931.878906 570.753906 930.046875 C 572.75 929.753906 572.75 929.753906 575.082031 929.667969 L 577.695312 929.5625 L 580.480469 929.476562 L 583.320312 929.367188 C 589.824219 929.140625 596.320312 929.054688 602.828125 929.164062 C 604.34375 929.183594 605.859375 929.164062 607.375 929.132812 L 608.292969 928.214844 C 608.382812 926.449219 608.410156 924.679688 608.414062 922.910156 L 608.417969 919.617188 L 608.40625 916.140625 L 608.417969 912.722656 L 608.414062 909.40625 L 608.410156 906.375 C 608.292969 903.511719 607.90625 900.8125 607.375 898 C 602.425781 896.351562 596.957031 896.804688 591.765625 896.765625 C 590.347656 896.75 588.933594 896.726562 587.519531 896.691406 C 585.472656 896.644531 583.421875 896.617188 581.375 896.609375 L 579.46875 896.542969 C 577.414062 896.507812 577.414062 896.507812 574.414062 897.085938 C 571.777344 899.25 570.179688 901.015625 568.589844 904.015625 L 567.71875 906.355469 L 566.816406 908.710938 C 566.042969 910.890625 566.042969 910.890625 566.175781 913.566406 L 564.34375 913.566406 L 564.34375 897.085938 C 559.796875 897.066406 555.25 897.046875 550.703125 897.035156 C 549.15625 897.03125 547.609375 897.023438 546.058594 897.019531 C 543.839844 897.007812 541.617188 897 539.398438 896.996094 L 537.289062 896.984375 C 535.625 896.984375 533.960938 897.03125 532.296875 897.085938 M 22.722656 53.667969 L 25 53.636719 L 27.242188 53.628906 L 29.242188 53.617188 C 31.480469 53.839844 31.480469 53.839844 37.886719 55.671875 L 37.886719 106.027344 L 40.632812 106.027344 L 40.75 103.453125 C 41.539062 98.238281 43.871094 93.71875 47.042969 89.546875 C 48.917969 88.09375 50.289062 87.589844 52.601562 87.066406 C 66.316406 85.714844 80.980469 86.394531 93.996094 91.152344 C 99.792969 93.816406 104.121094 97.523438 107.816406 102.710938 C 112.015625 109.5625 113.628906 116.65625 113.972656 124.640625 C 114.015625 126.980469 114.03125 129.316406 114.035156 131.65625 L 114.042969 134.277344 C 114.046875 136.105469 114.050781 137.933594 114.050781 139.757812 C 114.050781 142.496094 114.066406 145.234375 114.085938 147.972656 C 114.109375 156.320312 113.976562 164.589844 113.074219 172.894531 L 112.863281 174.875 C 112.132812 180.800781 110.5625 186.0625 107.472656 191.175781 C 104.132812 195.511719 100.167969 199.171875 95.144531 201.425781 C 89.632812 203.175781 83.871094 204.015625 78.171875 204.910156 L 75.152344 205.433594 C 70.617188 205.960938 66.136719 205.996094 61.578125 205.996094 L 58.871094 206.03125 L 56.25 206.035156 L 53.886719 206.050781 C 51.289062 205.792969 49.375 205.164062 47.042969 203.996094 C 45.425781 201.605469 45.425781 201.605469 44.066406 198.730469 L 42.679688 195.882812 C 41.570312 193.0625 41.011719 190.511719 40.632812 187.515625 L 37.886719 187.515625 L 37.917969 189.261719 C 37.972656 194.273438 37.707031 199.039062 36.972656 203.996094 C 30.789062 205.589844 25.148438 206.109375 18.773438 206.054688 L 16.179688 206.078125 L 13.6875 206.070312 L 11.449219 206.0625 C 9.503906 205.828125 9.503906 205.828125 6.757812 203.996094 C 6.414062 201.472656 6.414062 201.472656 6.414062 198.191406 L 6.40625 196.367188 C 6.394531 194.339844 6.40625 192.3125 6.417969 190.285156 C 6.414062 188.835938 6.410156 187.386719 6.40625 185.9375 C 6.398438 181.992188 6.40625 178.046875 6.417969 174.105469 C 6.429688 169.984375 6.425781 165.863281 6.425781 161.742188 C 6.425781 154.820312 6.433594 147.898438 6.449219 140.976562 C 6.46875 132.96875 6.472656 124.957031 6.46875 116.949219 C 6.464844 109.253906 6.464844 101.558594 6.476562 93.863281 C 6.480469 90.582031 6.484375 87.304688 6.480469 84.023438 C 6.480469 80.164062 6.484375 76.304688 6.5 72.445312 C 6.503906 71.027344 6.503906 69.605469 6.503906 68.1875 C 6.5 66.253906 6.507812 64.324219 6.519531 62.390625 L 6.527344 59.109375 L 6.757812 56.585938 L 8.589844 54.757812 C 13.257812 53.628906 17.949219 53.671875 22.722656 53.667969 M 42.464844 117.015625 C 40.210938 118.65625 40.210938 118.65625 38.804688 120.679688 C 37.585938 124.324219 37.542969 127.914062 37.375 131.722656 L 37.257812 134.25 C 36.972656 141.28125 36.84375 148.316406 36.800781 155.355469 L 36.765625 158.402344 C 36.746094 165.828125 36.746094 165.828125 38.804688 172.867188 C 40.679688 174.976562 40.679688 174.976562 43.382812 176.527344 C 46.003906 176.875 48.261719 177.023438 50.878906 176.980469 L 53.042969 176.988281 C 54.546875 176.984375 56.050781 176.972656 57.558594 176.957031 C 59.855469 176.933594 62.148438 176.929688 64.445312 176.949219 C 65.914062 176.941406 67.378906 176.933594 68.847656 176.925781 L 70.914062 176.933594 C 73.960938 176.878906 76.207031 176.589844 78.984375 175.300781 C 81.125 173.78125 81.125 173.78125 82.75 171.035156 C 83.046875 168.835938 83.046875 168.835938 83.03125 166.355469 L 83.074219 163.464844 L 83.089844 160.34375 C 83.101562 159.285156 83.105469 158.222656 83.117188 157.132812 C 83.128906 154.886719 83.136719 152.640625 83.140625 150.398438 C 83.152344 146.964844 83.195312 143.535156 83.242188 140.105469 C 83.25 137.925781 83.257812 135.746094 83.261719 133.5625 L 83.316406 130.460938 C 83.351562 125.394531 83.351562 125.394531 81.828125 120.648438 C 80.246094 118.613281 78.59375 117.222656 76.28125 116.085938 C 70.769531 115.160156 65.390625 114.910156 59.804688 114.957031 L 57.191406 114.933594 C 51.972656 114.949219 47.449219 115.429688 42.464844 117.015625 M 385.40625 53.667969 L 387.695312 53.636719 L 389.929688 53.628906 L 391.929688 53.617188 C 394.046875 53.839844 394.046875 53.839844 399.539062 55.671875 L 400.457031 104.199219 L 402.285156 104.199219 L 403.128906 101.722656 L 404.289062 98.476562 L 405.417969 95.257812 C 406.863281 92.296875 406.863281 92.296875 409.097656 90.148438 C 413.5 87.304688 417.746094 86.921875 422.925781 86.597656 C 435.042969 86.324219 449.117188 87.367188 459.96875 93.210938 C 465.015625 96.753906 468.980469 100.605469 471.871094 106.085938 C 475.851562 115.167969 476.597656 124.546875 476.570312 134.367188 L 476.574219 136.648438 C 476.574219 138.230469 476.570312 139.8125 476.566406 141.394531 C 476.5625 143.777344 476.566406 146.160156 476.574219 148.542969 C 476.585938 172.210938 476.585938 172.210938 473.53125 181.390625 L 472.917969 183.269531 C 471.210938 188.195312 469.285156 192.183594 465.460938 195.753906 C 458.726562 201.390625 451.519531 203.433594 443.015625 204.972656 C 437.0625 205.941406 431.253906 206.066406 425.234375 205.996094 L 422.191406 205.996094 C 413.363281 205.949219 413.363281 205.949219 409.613281 204.910156 C 405.292969 200.054688 403.550781 193.539062 401.371094 187.515625 L 400.457031 187.515625 L 400.351562 191.054688 C 400.292969 192.585938 400.230469 194.113281 400.167969 195.640625 L 400.105469 197.976562 L 400.007812 200.210938 L 399.9375 202.273438 L 399.539062 203.996094 C 396.792969 205.828125 396.792969 205.828125 394.257812 206.0625 L 391.214844 206.070312 L 387.898438 206.078125 L 384.433594 206.054688 L 380.96875 206.078125 L 377.652344 206.070312 L 374.609375 206.0625 C 372.074219 205.828125 372.074219 205.828125 369.328125 203.996094 C 368.960938 202.070312 368.960938 202.070312 368.929688 199.632812 L 368.875 196.820312 L 368.859375 193.695312 L 368.808594 190.375 C 368.765625 187.320312 368.734375 184.265625 368.710938 181.207031 C 368.691406 178.621094 368.660156 176.039062 368.628906 173.453125 C 368.351562 149.886719 368.320312 126.316406 368.300781 102.75 L 368.289062 94.394531 C 368.285156 89.96875 368.285156 85.546875 368.285156 81.125 C 368.289062 79.488281 368.289062 77.847656 368.285156 76.207031 C 368.285156 73.949219 368.285156 71.6875 368.292969 69.429688 L 368.285156 67.445312 C 368.304688 63.445312 368.613281 59.609375 369.324219 55.671875 L 370.242188 54.757812 C 375.304688 53.816406 380.265625 53.671875 385.40625 53.667969 M 405.160156 117.390625 C 403.058594 118.953125 401.785156 120.25 400.457031 122.507812 C 399.179688 127.023438 399.375 131.667969 399.355469 136.320312 L 399.339844 139.027344 C 399.332031 140.914062 399.324219 142.796875 399.320312 144.683594 C 399.3125 147.554688 399.28125 150.429688 399.253906 153.300781 C 399.25 155.136719 399.242188 156.972656 399.238281 158.808594 L 399.203125 161.398438 C 399.222656 166.515625 399.691406 170.230469 402.285156 174.695312 C 403.78125 176.144531 403.78125 176.144531 405.949219 176.527344 C 408.441406 176.734375 410.832031 176.851562 413.324219 176.867188 C 414.039062 176.875 414.75 176.882812 415.484375 176.890625 C 416.992188 176.90625 418.5 176.914062 420.007812 176.917969 C 422.300781 176.929688 424.59375 176.972656 426.890625 177.019531 C 428.355469 177.027344 429.824219 177.035156 431.292969 177.039062 L 433.355469 177.09375 C 435.601562 177.121094 435.601562 177.121094 438.910156 176.527344 C 441.132812 175.203125 442.5625 173.828125 444.402344 171.949219 C 445.503906 169.75 445.445312 168.351562 445.464844 165.894531 L 445.492188 163.234375 L 445.503906 160.351562 L 445.519531 157.386719 C 445.527344 155.316406 445.535156 153.242188 445.539062 151.164062 C 445.546875 148.003906 445.574219 144.839844 445.605469 141.675781 C 445.609375 139.660156 445.617188 137.644531 445.621094 135.632812 L 445.652344 132.773438 C 445.640625 128.863281 445.585938 125.269531 444.214844 121.574219 C 442.742188 118.808594 442.742188 118.808594 440.542969 117.09375 C 437.355469 115.851562 434.46875 115.707031 431.097656 115.734375 L 429.121094 115.726562 C 427.742188 115.726562 426.367188 115.730469 424.992188 115.742188 C 422.894531 115.757812 420.796875 115.742188 418.699219 115.722656 C 417.359375 115.726562 416.015625 115.730469 414.675781 115.734375 L 412.789062 115.71875 C 409.835938 115.761719 407.828125 116.078125 405.160156 117.390625 M 296.058594 86.746094 C 310.375 86.347656 325.757812 86.550781 339.113281 92.296875 C 344.277344 95.242188 348.519531 99.335938 351.929688 104.199219 C 355.90625 111.867188 356.789062 119.652344 356.75 128.167969 L 356.757812 130.761719 C 356.757812 132.554688 356.753906 134.34375 356.746094 136.136719 C 356.738281 138.886719 356.746094 141.632812 356.757812 144.382812 C 356.757812 146.128906 356.757812 147.878906 356.75 149.625 L 356.761719 152.113281 L 356.746094 154.421875 C 356.746094 155.089844 356.742188 155.757812 356.742188 156.445312 C 356.507812 158.214844 356.507812 158.214844 354.675781 160.964844 C 352.238281 161.226562 350.015625 161.308594 347.578125 161.273438 L 345.355469 161.277344 C 342.929688 161.269531 340.503906 161.257812 338.074219 161.230469 C 336.394531 161.226562 334.714844 161.222656 333.03125 161.21875 C 328.605469 161.210938 324.175781 161.183594 319.746094 161.152344 C 315.230469 161.125 310.714844 161.113281 306.195312 161.097656 C 297.332031 161.066406 288.464844 161.023438 279.601562 160.964844 C 279.734375 162.429688 279.875 163.898438 280.015625 165.367188 L 280.246094 167.84375 C 280.554688 170.460938 280.90625 172.460938 282.347656 174.695312 C 285.804688 175.660156 289.164062 175.75 292.738281 175.800781 L 296.238281 175.855469 L 299.988281 175.902344 L 303.851562 175.960938 C 307.226562 176.007812 310.601562 176.054688 313.976562 176.097656 C 317.425781 176.148438 320.875 176.195312 324.324219 176.246094 C 331.085938 176.347656 337.84375 176.441406 344.605469 176.527344 C 346.472656 180.261719 345.691406 185.074219 345.691406 189.175781 L 345.726562 192.210938 L 345.730469 195.144531 L 345.742188 197.824219 C 345.503906 200.550781 344.972656 202.496094 343.691406 204.910156 C 340.941406 205.828125 339.097656 205.949219 336.226562 205.960938 L 333.308594 205.976562 L 330.140625 205.980469 L 326.867188 205.988281 C 324.570312 205.992188 322.273438 205.996094 319.976562 205.996094 C 316.503906 205.996094 313.03125 206.015625 309.558594 206.03125 C 278.59375 206.105469 278.59375 206.105469 266.78125 200.332031 C 262.101562 197.59375 258.292969 194.152344 255.167969 189.710938 C 249.859375 180.035156 249.3125 169.117188 249.0625 158.34375 L 249 155.808594 C 248.957031 154.050781 248.914062 152.292969 248.875 150.535156 C 248.8125 147.875 248.742188 145.21875 248.671875 142.558594 C 248.035156 117.09375 248.035156 117.09375 253.964844 105.113281 C 257.082031 99.929688 260.902344 95.730469 266.074219 92.550781 C 275.425781 88.230469 285.878906 87.0625 296.058594 86.746094 M 283.316406 118.226562 C 281.046875 121.175781 280.242188 123.425781 279.601562 127.085938 C 279.863281 128.925781 280.160156 130.757812 280.515625 132.582031 C 286.609375 132.601562 292.707031 132.621094 298.800781 132.628906 C 300.875 132.636719 302.949219 132.640625 305.023438 132.648438 C 308 132.660156 310.976562 132.664062 313.953125 132.671875 L 316.78125 132.683594 L 319.390625 132.683594 L 321.695312 132.691406 C 323.613281 132.699219 323.613281 132.699219 325.378906 131.664062 C 325.34375 129.757812 325.289062 127.847656 325.207031 125.941406 L 325.109375 122.722656 L 324.464844 119.761719 C 322.636719 117.625 322.636719 117.625 319.886719 116.101562 C 317.199219 115.730469 314.867188 115.5625 312.1875 115.582031 L 309.960938 115.5625 C 308.414062 115.558594 306.867188 115.558594 305.316406 115.574219 C 302.953125 115.585938 300.59375 115.554688 298.230469 115.519531 C 296.722656 115.519531 295.214844 115.519531 293.707031 115.523438 L 291.574219 115.488281 C 287.925781 115.550781 286.214844 115.9375 283.316406 118.226562 M 692.523438 89.546875 L 695.398438 90.117188 C 700.347656 91.339844 704.164062 93.519531 708.050781 96.8125 C 712 100.8125 714.574219 105.152344 716.238281 110.523438 C 717.945312 117.6875 718.554688 124.371094 718.492188 131.722656 L 718.496094 135.035156 C 718.492188 137.328125 718.484375 139.621094 718.46875 141.910156 C 718.445312 145.390625 718.449219 148.867188 718.457031 152.34375 C 718.449219 154.585938 718.445312 156.832031 718.4375 159.074219 L 718.4375 162.175781 C 718.359375 171.21875 717.953125 180.167969 713.867188 188.375 C 710.550781 193.902344 706.652344 197.398438 701.050781 200.503906 C 689.929688 205.695312 677.660156 206.042969 665.628906 206.054688 L 663.640625 206.058594 C 638.46875 206.019531 638.46875 206.019531 627.582031 199.746094 L 625.6875 198.5 L 623.90625 197.371094 C 619.507812 194.136719 617.183594 189.925781 614.902344 185.035156 C 613.09375 180.152344 612.476562 175.277344 611.953125 170.117188 L 611.492188 166.863281 C 610.589844 159.636719 610.761719 152.320312 610.71875 145.050781 C 610.703125 143.160156 610.675781 141.265625 610.640625 139.375 C 610.425781 127.527344 610.75 117.011719 615.617188 106.027344 C 618.554688 100.953125 621.632812 96.527344 626.546875 93.210938 C 645.773438 82.910156 671.902344 85.351562 692.523438 89.546875 M 646.914062 117.148438 C 644.816406 118.792969 644.816406 118.792969 643.277344 121.117188 C 641.707031 125.683594 641.773438 129.929688 641.804688 134.730469 L 641.792969 137.753906 C 641.792969 139.855469 641.796875 141.957031 641.808594 144.0625 C 641.824219 147.277344 641.808594 150.496094 641.792969 153.710938 C 641.792969 155.757812 641.796875 157.804688 641.804688 159.851562 L 641.785156 162.761719 C 641.824219 166.527344 641.882812 169.433594 643.335938 172.933594 C 644.816406 174.699219 644.816406 174.699219 646.464844 175.882812 C 649.550781 176.828125 652.585938 176.808594 655.78125 176.804688 L 657.890625 176.816406 C 659.359375 176.820312 660.824219 176.820312 662.292969 176.816406 C 664.53125 176.816406 666.769531 176.835938 669.007812 176.859375 C 670.4375 176.859375 671.867188 176.863281 673.292969 176.859375 L 675.3125 176.886719 C 678.3125 176.859375 680.472656 176.597656 683.199219 175.304688 L 685.199219 173.78125 L 686.839844 172.609375 C 688.167969 170.980469 688.167969 170.980469 688.273438 168.339844 L 688.246094 165.03125 L 688.242188 163.230469 C 688.230469 161.292969 688.210938 159.355469 688.175781 157.414062 C 688.160156 156.085938 688.148438 154.753906 688.136719 153.421875 C 688.101562 150.128906 688.046875 146.835938 687.980469 143.546875 C 687.949219 141.882812 687.925781 140.222656 687.902344 138.5625 C 687.863281 135.917969 687.800781 133.277344 687.71875 130.636719 L 687.679688 128.34375 C 687.519531 124.613281 687.117188 122.667969 685.269531 119.3125 C 683.597656 116.976562 683.597656 116.976562 681.539062 116.101562 C 679.195312 115.988281 676.855469 115.925781 674.507812 115.914062 L 672.394531 115.898438 C 670.917969 115.890625 669.4375 115.882812 667.960938 115.878906 C 665.703125 115.867188 663.449219 115.847656 661.195312 115.8125 C 659.757812 115.808594 658.320312 115.804688 656.882812 115.800781 L 654.847656 115.765625 C 651.925781 115.777344 649.628906 116.042969 646.914062 117.148438 M 533.214844 86.800781 C 535.289062 86.710938 537.371094 86.683594 539.449219 86.679688 L 541.339844 86.675781 C 542.664062 86.675781 543.988281 86.679688 545.308594 86.683594 C 547.335938 86.6875 549.363281 86.683594 551.390625 86.675781 C 552.675781 86.675781 553.957031 86.675781 555.242188 86.679688 L 558.796875 86.683594 C 561.597656 86.800781 561.597656 86.800781 563.429688 87.71875 L 564.34375 106.027344 C 566.261719 101.558594 568 97.175781 569.601562 92.597656 C 571.105469 89.804688 572.691406 88.5625 575.332031 86.800781 C 578.132812 86.355469 578.132812 86.355469 581.226562 86.378906 L 584.621094 86.390625 L 588.148438 86.457031 L 591.675781 86.460938 C 601.792969 86.558594 601.792969 86.558594 605.542969 88.632812 C 606.878906 90.542969 607.328125 91.902344 607.613281 94.207031 L 607.621094 96.234375 L 607.625 98.488281 L 607.605469 100.820312 L 607.625 103.121094 L 607.621094 105.390625 L 607.613281 107.425781 C 607.296875 110.441406 606.433594 113.207031 605.542969 116.101562 L 602.507812 116.15625 C 598.78125 116.222656 595.050781 116.304688 591.324219 116.390625 C 589.710938 116.425781 588.101562 116.457031 586.488281 116.488281 C 584.167969 116.527344 581.847656 116.582031 579.527344 116.636719 L 577.351562 116.667969 C 574.511719 116.746094 571.832031 116.976562 569.058594 117.613281 C 566.933594 118.777344 566.933594 118.777344 565.460938 121.050781 C 563.890625 125.667969 563.90625 129.976562 563.875 134.824219 L 563.824219 137.949219 C 563.78125 141.25 563.742188 144.554688 563.714844 147.859375 C 563.683594 150.007812 563.652344 152.15625 563.621094 154.300781 C 563.496094 163.097656 563.402344 171.890625 563.476562 180.6875 L 563.5 184.082031 C 563.515625 186.210938 563.542969 188.339844 563.574219 190.46875 C 563.613281 195.628906 563.523438 200.082031 561.597656 204.910156 C 557.523438 206.945312 551.9375 205.996094 547.464844 206 L 543.984375 206.03125 L 540.65625 206.039062 L 537.597656 206.050781 C 535.046875 205.828125 535.046875 205.828125 532.296875 203.996094 C 531.957031 201.957031 531.957031 201.957031 531.960938 199.367188 L 531.945312 196.398438 L 531.972656 193.128906 L 531.964844 189.695312 C 531.964844 186.582031 531.972656 183.472656 531.988281 180.359375 C 532.003906 177.109375 532.003906 173.855469 532.003906 170.605469 C 532.007812 165.148438 532.019531 159.6875 532.039062 154.226562 C 532.066406 147.210938 532.078125 140.195312 532.082031 133.179688 C 532.085938 127.160156 532.097656 121.136719 532.109375 115.113281 C 532.113281 113.175781 532.117188 111.234375 532.117188 109.292969 C 532.125 105.683594 532.136719 102.074219 532.152344 98.464844 L 532.152344 95.191406 L 532.171875 92.230469 L 532.179688 89.640625 L 532.296875 87.71875 Z M 170.644531 86.800781 C 172.722656 86.710938 174.800781 86.683594 176.878906 86.679688 L 178.773438 86.675781 C 180.09375 86.675781 181.417969 86.679688 182.742188 86.683594 C 184.769531 86.6875 186.796875 86.683594 188.824219 86.675781 C 190.105469 86.675781 191.390625 86.675781 192.675781 86.679688 L 196.230469 86.683594 C 199.027344 86.800781 199.027344 86.800781 200.859375 87.71875 L 201.777344 105.113281 L 203.605469 106.027344 L 204.238281 102.480469 C 205.34375 97.566406 207.023438 92.726562 210.015625 88.632812 C 213.507812 86.871094 216.40625 86.566406 220.289062 86.558594 L 223.558594 86.550781 L 226.953125 86.574219 L 230.347656 86.550781 L 233.621094 86.558594 L 236.597656 86.566406 C 239.382812 86.808594 241.382812 87.425781 243.890625 88.632812 L 244.808594 89.546875 C 244.898438 91.433594 244.925781 93.324219 244.929688 95.214844 L 244.933594 98.695312 L 244.925781 100.519531 C 244.921875 102.359375 244.925781 104.199219 244.933594 106.035156 L 244.929688 109.519531 L 244.925781 112.742188 L 244.808594 115.183594 L 243.890625 116.101562 C 241.382812 116.199219 238.894531 116.25 236.382812 116.261719 L 231.710938 116.328125 C 229.25 116.359375 226.789062 116.386719 224.328125 116.398438 C 221.957031 116.414062 219.585938 116.449219 217.214844 116.488281 L 215.003906 116.484375 C 211.402344 116.5625 209.261719 116.9375 205.960938 118.535156 C 203.496094 120.484375 203.496094 120.484375 202.558594 123.082031 C 201.640625 126.699219 201.523438 130.105469 201.542969 133.8125 L 201.53125 136.074219 C 201.527344 137.6875 201.523438 139.300781 201.523438 140.910156 C 201.523438 143.460938 201.515625 146.015625 201.496094 148.566406 C 201.457031 155.816406 201.433594 163.066406 201.425781 170.316406 C 201.421875 174.757812 201.402344 179.195312 201.367188 183.636719 C 201.359375 185.328125 201.355469 187.023438 201.359375 188.714844 C 201.367188 191.074219 201.351562 193.433594 201.332031 195.796875 L 201.355469 197.917969 C 201.324219 199.867188 201.324219 199.867188 200.859375 203.078125 C 199.160156 204.886719 199.160156 204.886719 197.199219 205.828125 C 194.640625 206.152344 194.640625 206.152344 191.730469 206.125 L 188.546875 206.113281 L 185.238281 206.054688 L 181.917969 206.039062 C 173.816406 205.96875 173.816406 205.96875 170.644531 204.910156 C 169.496094 202.613281 169.617188 201.058594 169.613281 198.484375 L 169.605469 195.539062 L 169.613281 192.296875 L 169.605469 188.890625 C 169.605469 185.804688 169.605469 182.714844 169.605469 179.628906 C 169.609375 176.402344 169.605469 173.179688 169.605469 169.953125 C 169.605469 164.535156 169.605469 159.121094 169.613281 153.703125 C 169.617188 147.433594 169.617188 141.164062 169.609375 134.894531 C 169.605469 129.515625 169.605469 124.140625 169.605469 118.765625 C 169.609375 115.550781 169.609375 112.335938 169.605469 109.121094 C 169.601562 105.542969 169.605469 101.960938 169.613281 98.382812 L 169.605469 95.132812 L 169.613281 92.195312 L 169.617188 89.625 L 169.730469 87.71875 Z M 505.234375 86.574219 L 508.710938 86.515625 L 512.039062 86.5 L 515.097656 86.476562 C 517.648438 86.800781 517.648438 86.800781 519.160156 87.949219 C 520.394531 89.546875 520.394531 89.546875 520.734375 91.363281 C 520.734375 92.0625 520.734375 92.753906 520.730469 93.472656 L 520.746094 95.898438 L 520.722656 98.550781 L 520.730469 101.355469 C 520.730469 104.425781 520.714844 107.496094 520.695312 110.566406 C 520.695312 112.703125 520.691406 114.84375 520.691406 116.980469 C 520.6875 121.476562 520.675781 125.972656 520.65625 130.464844 C 520.628906 136.195312 520.617188 141.925781 520.613281 147.652344 C 520.609375 153.144531 520.597656 158.636719 520.582031 164.125 L 520.578125 167.257812 C 520.511719 198.082031 520.511719 198.082031 517.648438 205.828125 C 513.917969 205.871094 510.1875 205.90625 506.457031 205.929688 C 505.1875 205.9375 503.917969 205.949219 502.648438 205.964844 C 500.824219 205.988281 499 205.996094 497.171875 206.003906 L 493.847656 206.035156 C 491.097656 205.828125 491.097656 205.828125 488.351562 203.996094 C 488.003906 202.039062 488.003906 202.039062 488.003906 199.566406 L 487.976562 196.730469 L 487.996094 193.605469 L 487.980469 190.328125 C 487.972656 187.351562 487.972656 184.378906 487.980469 181.40625 C 487.988281 178.292969 487.980469 175.183594 487.976562 172.070312 C 487.972656 166.84375 487.980469 161.613281 487.992188 156.386719 C 488.007812 150.34375 488.003906 144.300781 487.988281 138.261719 C 487.976562 133.074219 487.972656 127.886719 487.980469 122.703125 C 487.984375 119.605469 487.984375 116.507812 487.976562 113.410156 C 487.96875 109.953125 487.980469 106.496094 487.996094 103.039062 L 487.976562 99.933594 L 488.003906 97.074219 L 488.003906 94.597656 C 488.429688 91.769531 489.441406 90.03125 491.097656 87.71875 C 495.179688 85.675781 500.75 86.589844 505.230469 86.574219 M 135.367188 86.679688 L 138.957031 86.675781 L 140.828125 86.683594 C 142.714844 86.6875 144.601562 86.683594 146.488281 86.675781 L 150.074219 86.679688 L 153.382812 86.683594 C 155.996094 86.800781 155.996094 86.800781 157.828125 87.71875 C 157.894531 102.847656 157.941406 117.976562 157.96875 133.105469 C 157.984375 140.128906 158.003906 147.152344 158.035156 154.179688 C 158.0625 160.296875 158.082031 166.417969 158.085938 172.539062 C 158.089844 175.78125 158.097656 179.023438 158.117188 182.269531 C 158.140625 185.882812 158.140625 189.5 158.140625 193.113281 L 158.167969 196.390625 L 158.160156 199.359375 L 158.167969 201.953125 L 157.828125 203.996094 C 155.082031 205.828125 155.082031 205.828125 152.460938 206.050781 L 149.300781 206.035156 L 145.863281 206.03125 L 142.261719 205.996094 L 138.664062 205.996094 C 129.832031 205.953125 129.832031 205.953125 126.699219 204.910156 C 125.667969 202.238281 125.664062 199.625 125.660156 196.785156 L 125.648438 194.066406 L 125.648438 191.101562 L 125.640625 187.964844 C 125.632812 184.539062 125.628906 181.109375 125.628906 177.683594 L 125.621094 170.539062 C 125.613281 165.546875 125.613281 160.550781 125.613281 155.558594 C 125.613281 149.792969 125.605469 144.03125 125.589844 138.265625 C 125.578125 132.710938 125.570312 127.160156 125.574219 121.605469 C 125.574219 119.246094 125.570312 116.890625 125.5625 114.53125 C 125.550781 111.230469 125.554688 107.929688 125.5625 104.628906 C 125.554688 103.65625 125.550781 102.683594 125.546875 101.679688 C 125.566406 96.691406 125.789062 92.394531 127.613281 87.71875 C 130.222656 86.414062 132.453125 86.683594 135.367188 86.679688 " fill-opacity="1" fill-rule="nonzero"/></g><g clip-path="url(#1533c51401)"><path fill="#ffffff" d="M 58.890625 928.730469 L 62.390625 928.675781 C 70.59375 928.679688 70.59375 928.679688 73.71875 929.882812 C 77.042969 932.023438 79.089844 934.832031 80.917969 938.285156 C 81.914062 943.371094 81.925781 948.289062 81.820312 953.4375 L 81.773438 955.914062 C 81.742188 957.632812 81.703125 959.347656 81.664062 961.066406 C 81.605469 963.699219 81.570312 966.332031 81.53125 968.960938 L 81.421875 973.980469 L 81.394531 976.363281 L 81.328125 978.578125 L 81.289062 980.523438 C 80.917969 982.234375 80.917969 982.234375 79.636719 983.777344 C 78.171875 984.980469 78.171875 984.980469 76.34375 985.898438 C 70.207031 986.789062 64.105469 986.933594 57.917969 986.984375 L 55.566406 987.019531 C 50.589844 987.027344 46.25 986.695312 41.550781 984.980469 C 39.996094 983.234375 39.996094 983.234375 38.804688 980.402344 C 38.402344 977.101562 38.417969 973.824219 38.4375 970.503906 L 38.429688 967.601562 C 38.429688 965.578125 38.433594 963.554688 38.445312 961.535156 C 38.460938 958.441406 38.445312 955.347656 38.425781 952.257812 C 38.429688 950.289062 38.433594 948.324219 38.4375 946.355469 L 38.421875 943.558594 C 38.457031 939.925781 38.539062 937.105469 39.914062 933.71875 C 45.207031 927.757812 51.46875 928.6875 58.886719 928.730469 M 420.386719 928.910156 C 422.300781 928.902344 424.214844 928.875 426.132812 928.84375 C 427.355469 928.839844 428.578125 928.835938 429.804688 928.832031 L 433.164062 928.804688 C 436.164062 929.132812 436.164062 929.132812 438.675781 930.296875 C 440.8125 931.933594 442.0625 933.265625 443.488281 935.539062 C 443.832031 937.699219 443.832031 937.699219 443.828125 940.113281 L 443.847656 942.863281 L 443.820312 945.816406 L 443.820312 948.859375 C 443.820312 950.980469 443.8125 953.101562 443.796875 955.222656 C 443.773438 958.476562 443.777344 961.730469 443.78125 964.984375 C 443.777344 967.042969 443.773438 969.105469 443.761719 971.164062 L 443.765625 974.121094 L 443.738281 976.863281 L 443.726562 979.277344 C 443.488281 981.320312 443.488281 981.320312 441.65625 984.066406 C 437.890625 986.113281 434.175781 986.203125 429.984375 986.238281 L 427.941406 986.261719 C 426.523438 986.273438 425.101562 986.285156 423.683594 986.285156 C 421.519531 986.296875 419.359375 986.34375 417.195312 986.386719 C 415.8125 986.398438 414.429688 986.40625 413.046875 986.410156 L 411.097656 986.460938 C 409.253906 986.445312 409.253906 986.445312 405.949219 985.898438 C 403.253906 984.21875 403.253906 984.21875 401.371094 981.320312 C 400.710938 977.890625 400.730469 974.53125 400.761719 971.050781 L 400.75 968.03125 C 400.746094 965.925781 400.753906 963.820312 400.773438 961.714844 C 400.800781 958.5 400.773438 955.289062 400.746094 952.074219 C 400.75 950.023438 400.753906 947.976562 400.761719 945.929688 L 400.734375 943.023438 C 400.839844 936.554688 400.839844 936.554688 402.335938 933.707031 C 403.527344 932.199219 403.527344 932.199219 405.949219 930.046875 C 410.59375 928.5 415.527344 928.925781 420.386719 928.910156 M 658.101562 928.644531 L 661.488281 928.628906 L 665 928.671875 C 666.15625 928.660156 667.3125 928.644531 668.503906 928.628906 C 676.707031 928.664062 676.707031 928.664062 679.839844 929.914062 C 681.875 931.242188 683.484375 932.910156 685.199219 934.625 C 686.179688 937.472656 686.234375 940.152344 686.238281 943.144531 L 686.242188 946.054688 L 686.230469 949.160156 L 686.222656 952.34375 C 686.1875 959.410156 686.019531 966.476562 685.714844 973.535156 L 685.605469 976.117188 L 685.488281 978.484375 L 685.386719 980.554688 C 685.199219 982.234375 685.199219 982.234375 684.285156 984.066406 C 679.152344 985.996094 674.445312 986.152344 669.007812 986.070312 L 666.566406 986.050781 C 651.207031 985.859375 651.207031 985.859375 645.832031 984.066406 C 644.609375 982.191406 644.042969 980.742188 643.753906 978.523438 L 643.734375 976.503906 L 643.699219 974.195312 L 643.691406 971.722656 L 643.671875 969.152344 C 643.664062 967.351562 643.660156 965.554688 643.660156 963.757812 C 643.65625 961.03125 643.621094 958.300781 643.585938 955.574219 C 643.582031 953.824219 643.578125 952.074219 643.578125 950.320312 L 643.539062 947.875 C 643.574219 942.917969 644.351562 938.996094 646.578125 934.542969 C 649.546875 929.742188 652.636719 928.667969 658.101562 928.644531 M 131.335938 45.273438 L 134.742188 45.300781 L 136.5625 45.304688 C 137.832031 45.3125 139.101562 45.324219 140.371094 45.34375 C 142.316406 45.371094 144.261719 45.382812 146.207031 45.386719 C 155.695312 45.449219 155.695312 45.449219 157.828125 46.515625 L 157.828125 73.984375 C 153.789062 76.003906 148.324219 75.105469 143.832031 75.117188 C 141.8125 75.128906 139.796875 75.15625 137.773438 75.183594 C 136.496094 75.191406 135.214844 75.195312 133.9375 75.199219 L 130.398438 75.226562 L 127.613281 74.898438 C 125.78125 72.152344 125.78125 72.152344 125.53125 69.699219 C 125.503906 66.550781 125.488281 63.398438 125.496094 60.25 L 125.453125 56.917969 L 125.449219 53.726562 L 125.441406 50.800781 C 125.78125 48.347656 125.78125 48.347656 126.789062 46.65625 C 128.53125 45.601562 128.53125 45.601562 131.335938 45.273438 M 490.183594 45.601562 C 492.867188 45.363281 492.867188 45.363281 496.273438 45.355469 L 498.09375 45.351562 C 499.363281 45.351562 500.632812 45.355469 501.90625 45.363281 C 503.847656 45.371094 505.789062 45.363281 507.734375 45.351562 C 508.96875 45.351562 510.203125 45.351562 511.4375 45.355469 L 514.84375 45.363281 C 517.648438 45.601562 517.648438 45.601562 520.394531 47.433594 C 520.625 49.675781 520.703125 51.929688 520.625 54.183594 L 520.589844 56.160156 C 520.539062 58.136719 520.476562 60.109375 520.394531 62.082031 L 520.277344 65.429688 C 519.964844 70.933594 519.964844 70.933594 519.480469 73.066406 C 516.734375 74.898438 516.734375 74.898438 514.113281 75.136719 L 510.953125 75.144531 L 507.515625 75.148438 L 503.914062 75.128906 L 500.316406 75.148438 L 496.875 75.144531 L 493.71875 75.136719 C 491.097656 74.898438 491.097656 74.898438 488.351562 73.066406 C 488.011719 70.535156 488.011719 70.535156 488.019531 67.34375 L 488.019531 63.882812 L 488.066406 60.25 L 488.054688 56.617188 C 488.09375 50.027344 488.09375 50.027344 488.351562 47.433594 Z M 490.183594 45.601562 " fill-opacity="1" fill-rule="nonzero"/></g></svg>